solid OpenSCAD_Model
  facet normal -1 0 0
    outer loop
      vertex -32 -23.5195 0
      vertex -32 -23.5195 4
      vertex -32 23.5195 0
    endloop
  endfacet
  facet normal -1 0 0
    outer loop
      vertex -32 23.5195 0
      vertex -32 -23.5195 4
      vertex -32 23.5195 4
    endloop
  endfacet
  facet normal -0.939693 -0.34202 0
    outer loop
      vertex -21.9979 -51 4
      vertex -32 -23.5195 4
      vertex -21.9979 -51 0
    endloop
  endfacet
  facet normal -0.939693 -0.34202 0
    outer loop
      vertex -21.9979 -51 0
      vertex -32 -23.5195 4
      vertex -32 -23.5195 0
    endloop
  endfacet
  facet normal 0 0 -1
    outer loop
      vertex -32 -23.5195 0
      vertex -32 23.5195 0
      vertex -21.9979 -51 0
    endloop
  endfacet
  facet normal 0 0 -1
    outer loop
      vertex -21.9979 -51 0
      vertex -32 23.5195 0
      vertex -21.9979 51 0
    endloop
  endfacet
  facet normal 0 0 -1
    outer loop
      vertex -17.753 47.5637 0
      vertex -21.9979 51 0
      vertex 32 51 0
    endloop
  endfacet
  facet normal 0 0 -1
    outer loop
      vertex 27 20 0
      vertex 32 51 0
      vertex 32 20 0
    endloop
  endfacet
  facet normal 0 0 -1
    outer loop
      vertex 30 46 0
      vertex 32 51 0
      vertex 27 20 0
    endloop
  endfacet
  facet normal 0 0 -1
    outer loop
      vertex -19.445 -47.9499 0
      vertex -21.9979 -51 0
      vertex -20.8019 -46.8678 0
    endloop
  endfacet
  facet normal 0 0 -1
    outer loop
      vertex -21.9979 -51 0
      vertex 27 -20 0
      vertex 32 -20 0
    endloop
  endfacet
  facet normal 0 0 -1
    outer loop
      vertex 30 -46 0
      vertex 32 -20 0
      vertex 32 -51 0
    endloop
  endfacet
  facet normal 0 0 -1
    outer loop
      vertex -21.9979 -51 0
      vertex -21.9979 51 0
      vertex -20.8019 -45.1322 0
    endloop
  endfacet
  facet normal 0 0 -1
    outer loop
      vertex -21.9979 -51 0
      vertex -20.8019 -45.1322 0
      vertex -20.8019 -46.8678 0
    endloop
  endfacet
  facet normal 0 0 -1
    outer loop
      vertex -21.9979 -51 0
      vertex -19.445 -47.9499 0
      vertex -17.753 -47.5637 0
    endloop
  endfacet
  facet normal 0 0 -1
    outer loop
      vertex -21.9979 -51 0
      vertex -17.753 -47.5637 0
      vertex 27 -20 0
    endloop
  endfacet
  facet normal 0 0 -1
    outer loop
      vertex -17.753 -44.4363 0
      vertex 27 20 0
      vertex -17 -46 0
    endloop
  endfacet
  facet normal 0 0 -1
    outer loop
      vertex -17 46 0
      vertex 32 51 0
      vertex -17.753 44.4363 0
    endloop
  endfacet
  facet normal 0 0 -1
    outer loop
      vertex -20.8019 -45.1322 0
      vertex -21.9979 51 0
      vertex -20.8019 45.1322 0
    endloop
  endfacet
  facet normal 0 0 -1
    outer loop
      vertex -21.9979 51 0
      vertex -20.8019 46.8678 0
      vertex -20.8019 45.1322 0
    endloop
  endfacet
  facet normal 0 0 -1
    outer loop
      vertex -20.8019 -45.1322 0
      vertex -20.8019 45.1322 0
      vertex -19.445 44.0501 0
    endloop
  endfacet
  facet normal 0 0 -1
    outer loop
      vertex 27.555 47.9499 0
      vertex -19.445 44.0501 0
      vertex 32 51 0
    endloop
  endfacet
  facet normal 0 0 -1
    outer loop
      vertex -19.445 44.0501 0
      vertex -17.753 44.4363 0
      vertex 32 51 0
    endloop
  endfacet
  facet normal 0 0 -1
    outer loop
      vertex -17.753 47.5637 0
      vertex 32 51 0
      vertex -17 46 0
    endloop
  endfacet
  facet normal 0 0 -1
    outer loop
      vertex -19.445 47.9499 0
      vertex -21.9979 51 0
      vertex -17.753 47.5637 0
    endloop
  endfacet
  facet normal 0 0 -1
    outer loop
      vertex 29.247 -47.5637 0
      vertex 32 -51 0
      vertex 27.555 -47.9499 0
    endloop
  endfacet
  facet normal 0 0 -1
    outer loop
      vertex -20.8019 46.8678 0
      vertex -21.9979 51 0
      vertex -19.445 47.9499 0
    endloop
  endfacet
  facet normal 0 0 -1
    outer loop
      vertex -21.9979 -51 0
      vertex 32 -20 0
      vertex 26.1981 -45.1322 0
    endloop
  endfacet
  facet normal 0 0 -1
    outer loop
      vertex -21.9979 -51 0
      vertex 26.1981 -45.1322 0
      vertex 26.1981 -46.8678 0
    endloop
  endfacet
  facet normal 0 0 -1
    outer loop
      vertex 29.247 44.4363 0
      vertex -20.8019 -45.1322 0
      vertex 27.555 44.0501 0
    endloop
  endfacet
  facet normal 0 0 -1
    outer loop
      vertex -21.9979 -51 0
      vertex 26.1981 -46.8678 0
      vertex 27.555 -47.9499 0
    endloop
  endfacet
  facet normal 0 0 -1
    outer loop
      vertex -21.9979 -51 0
      vertex 27.555 -47.9499 0
      vertex 32 -51 0
    endloop
  endfacet
  facet normal 0 0 -1
    outer loop
      vertex 29.247 44.4363 0
      vertex -17.753 -44.4363 0
      vertex -19.445 -44.0501 0
    endloop
  endfacet
  facet normal 0 0 -1
    outer loop
      vertex 29.247 -44.4363 0
      vertex 32 -20 0
      vertex 30 -46 0
    endloop
  endfacet
  facet normal 0 0 -1
    outer loop
      vertex 29.247 44.4363 0
      vertex -19.445 -44.0501 0
      vertex -20.8019 -45.1322 0
    endloop
  endfacet
  facet normal 0 0 -1
    outer loop
      vertex 29.247 -47.5637 0
      vertex 30 -46 0
      vertex 32 -51 0
    endloop
  endfacet
  facet normal 0 0 -1
    outer loop
      vertex 27.555 -44.0501 0
      vertex 32 -20 0
      vertex 29.247 -44.4363 0
    endloop
  endfacet
  facet normal 0 0 -1
    outer loop
      vertex 26.1981 -45.1322 0
      vertex 32 -20 0
      vertex 27.555 -44.0501 0
    endloop
  endfacet
  facet normal 0 0 -1
    outer loop
      vertex -20.8019 -45.1322 0
      vertex -19.445 44.0501 0
      vertex 26.1981 46.8678 0
    endloop
  endfacet
  facet normal 0 0 -1
    outer loop
      vertex -20.8019 -45.1322 0
      vertex 26.1981 46.8678 0
      vertex 26.1981 45.1322 0
    endloop
  endfacet
  facet normal 0 0 -1
    outer loop
      vertex -20.8019 -45.1322 0
      vertex 26.1981 45.1322 0
      vertex 27.555 44.0501 0
    endloop
  endfacet
  facet normal 0 0 -1
    outer loop
      vertex 29.247 47.5637 0
      vertex 32 51 0
      vertex 30 46 0
    endloop
  endfacet
  facet normal 0 0 -1
    outer loop
      vertex -17.753 -44.4363 0
      vertex 29.247 44.4363 0
      vertex 27 20 0
    endloop
  endfacet
  facet normal 0 0 -1
    outer loop
      vertex 29.247 44.4363 0
      vertex 30 46 0
      vertex 27 20 0
    endloop
  endfacet
  facet normal 0 0 -1
    outer loop
      vertex 27.555 47.9499 0
      vertex 32 51 0
      vertex 29.247 47.5637 0
    endloop
  endfacet
  facet normal 0 0 -1
    outer loop
      vertex 26.1981 46.8678 0
      vertex -19.445 44.0501 0
      vertex 27.555 47.9499 0
    endloop
  endfacet
  facet normal 0 0 -1
    outer loop
      vertex -17 -46 0
      vertex 27 -20 0
      vertex -17.753 -47.5637 0
    endloop
  endfacet
  facet normal 0 0 -1
    outer loop
      vertex 27 -20 0
      vertex -17 -46 0
      vertex 27 20 0
    endloop
  endfacet
  facet normal -0.939693 0.34202 0
    outer loop
      vertex -32 23.5195 0
      vertex -32 23.5195 4
      vertex -21.9979 51 0
    endloop
  endfacet
  facet normal -0.939693 0.34202 0
    outer loop
      vertex -21.9979 51 0
      vertex -32 23.5195 4
      vertex -21.9979 51 4
    endloop
  endfacet
  facet normal 0 0 1
    outer loop
      vertex -32 23.5195 4
      vertex -32 -23.5195 4
      vertex -21.9979 -51 4
    endloop
  endfacet
  facet normal 0 0 1
    outer loop
      vertex -20.8019 -46.8678 4
      vertex -32 23.5195 4
      vertex -21.9979 -51 4
    endloop
  endfacet
  facet normal 0 0 1
    outer loop
      vertex 32 -20 4
      vertex 27 -20 4
      vertex 32 -51 4
    endloop
  endfacet
  facet normal 0 0 1
    outer loop
      vertex -17.753 -44.4363 4
      vertex -17 -46 4
      vertex 32 -51 4
    endloop
  endfacet
  facet normal 0 0 1
    outer loop
      vertex 32 20 4
      vertex -32 23.5195 4
      vertex 27 20 4
    endloop
  endfacet
  facet normal 0 0 1
    outer loop
      vertex 26.1981 45.1322 4
      vertex -32 23.5195 4
      vertex 32 20 4
    endloop
  endfacet
  facet normal 0 0 1
    outer loop
      vertex -17.753 44.4363 4
      vertex -32 23.5195 4
      vertex 32 51 4
    endloop
  endfacet
  facet normal 0 0 1
    outer loop
      vertex -19.445 -47.9499 4
      vertex -20.8019 -46.8678 4
      vertex -21.9979 -51 4
    endloop
  endfacet
  facet normal 0 0 1
    outer loop
      vertex -20.8019 -45.1322 4
      vertex -32 23.5195 4
      vertex -20.8019 -46.8678 4
    endloop
  endfacet
  facet normal 0 0 1
    outer loop
      vertex -19.445 -44.0501 4
      vertex -32 23.5195 4
      vertex -20.8019 -45.1322 4
    endloop
  endfacet
  facet normal 0 0 1
    outer loop
      vertex 26.1981 -46.8678 4
      vertex -32 23.5195 4
      vertex -19.445 -44.0501 4
    endloop
  endfacet
  facet normal 0 0 1
    outer loop
      vertex -17 -46 4
      vertex -17.753 -47.5637 4
      vertex 32 -51 4
    endloop
  endfacet
  facet normal 0 0 1
    outer loop
      vertex 32 -51 4
      vertex -19.445 -44.0501 4
      vertex -17.753 -44.4363 4
    endloop
  endfacet
  facet normal 0 0 1
    outer loop
      vertex -17.753 47.5637 4
      vertex -17 46 4
      vertex 32 51 4
    endloop
  endfacet
  facet normal 0 0 1
    outer loop
      vertex 32 -51 4
      vertex -17.753 -47.5637 4
      vertex -21.9979 -51 4
    endloop
  endfacet
  facet normal 0 0 1
    outer loop
      vertex -17.753 -47.5637 4
      vertex -19.445 -47.9499 4
      vertex -21.9979 -51 4
    endloop
  endfacet
  facet normal 0 0 1
    outer loop
      vertex -21.9979 51 4
      vertex -32 23.5195 4
      vertex -20.8019 45.1322 4
    endloop
  endfacet
  facet normal 0 0 1
    outer loop
      vertex -17 46 4
      vertex -17.753 44.4363 4
      vertex 32 51 4
    endloop
  endfacet
  facet normal 0 0 1
    outer loop
      vertex -21.9979 51 4
      vertex -20.8019 45.1322 4
      vertex -20.8019 46.8678 4
    endloop
  endfacet
  facet normal 0 0 1
    outer loop
      vertex -21.9979 51 4
      vertex -19.445 47.9499 4
      vertex 32 51 4
    endloop
  endfacet
  facet normal 0 0 1
    outer loop
      vertex -21.9979 51 4
      vertex -20.8019 46.8678 4
      vertex -19.445 47.9499 4
    endloop
  endfacet
  facet normal 0 0 1
    outer loop
      vertex -19.445 47.9499 4
      vertex -17.753 47.5637 4
      vertex 32 51 4
    endloop
  endfacet
  facet normal 0 0 1
    outer loop
      vertex 27.555 47.9499 4
      vertex 29.247 47.5637 4
      vertex 32 51 4
    endloop
  endfacet
  facet normal 0 0 1
    outer loop
      vertex -19.445 44.0501 4
      vertex -32 23.5195 4
      vertex -17.753 44.4363 4
    endloop
  endfacet
  facet normal 0 0 1
    outer loop
      vertex -20.8019 45.1322 4
      vertex -32 23.5195 4
      vertex -19.445 44.0501 4
    endloop
  endfacet
  facet normal 0 0 1
    outer loop
      vertex 27.555 -47.9499 4
      vertex 26.1981 -46.8678 4
      vertex -19.445 -44.0501 4
    endloop
  endfacet
  facet normal 0 0 1
    outer loop
      vertex 26.1981 -45.1322 4
      vertex -32 23.5195 4
      vertex 26.1981 -46.8678 4
    endloop
  endfacet
  facet normal 0 0 1
    outer loop
      vertex 30 -46 4
      vertex 29.247 -47.5637 4
      vertex 32 -51 4
    endloop
  endfacet
  facet normal 0 0 1
    outer loop
      vertex 27 -20 4
      vertex -32 23.5195 4
      vertex 27.555 -44.0501 4
    endloop
  endfacet
  facet normal 0 0 1
    outer loop
      vertex 29.247 -47.5637 4
      vertex 27.555 -47.9499 4
      vertex 32 -51 4
    endloop
  endfacet
  facet normal 0 0 1
    outer loop
      vertex 27 -20 4
      vertex 27.555 -44.0501 4
      vertex 29.247 -44.4363 4
    endloop
  endfacet
  facet normal 0 0 1
    outer loop
      vertex 27 -20 4
      vertex 30 -46 4
      vertex 32 -51 4
    endloop
  endfacet
  facet normal 0 0 1
    outer loop
      vertex 27 -20 4
      vertex 29.247 -44.4363 4
      vertex 30 -46 4
    endloop
  endfacet
  facet normal 0 0 1
    outer loop
      vertex 32 -51 4
      vertex 27.555 -47.9499 4
      vertex -19.445 -44.0501 4
    endloop
  endfacet
  facet normal 0 0 1
    outer loop
      vertex 27.555 44.0501 4
      vertex 26.1981 45.1322 4
      vertex 32 20 4
    endloop
  endfacet
  facet normal 0 0 1
    outer loop
      vertex 26.1981 46.8678 4
      vertex -32 23.5195 4
      vertex 26.1981 45.1322 4
    endloop
  endfacet
  facet normal 0 0 1
    outer loop
      vertex 30 46 4
      vertex 29.247 44.4363 4
      vertex 32 20 4
    endloop
  endfacet
  facet normal 0 0 1
    outer loop
      vertex 27.555 47.9499 4
      vertex -32 23.5195 4
      vertex 26.1981 46.8678 4
    endloop
  endfacet
  facet normal 0 0 1
    outer loop
      vertex 32 51 4
      vertex -32 23.5195 4
      vertex 27.555 47.9499 4
    endloop
  endfacet
  facet normal 0 0 1
    outer loop
      vertex 32 51 4
      vertex 30 46 4
      vertex 32 20 4
    endloop
  endfacet
  facet normal 0 0 1
    outer loop
      vertex 32 51 4
      vertex 29.247 47.5637 4
      vertex 30 46 4
    endloop
  endfacet
  facet normal 0 0 1
    outer loop
      vertex 29.247 44.4363 4
      vertex 27.555 44.0501 4
      vertex 32 20 4
    endloop
  endfacet
  facet normal 0 0 1
    outer loop
      vertex 27 -20 4
      vertex 27 20 4
      vertex -32 23.5195 4
    endloop
  endfacet
  facet normal 0 0 1
    outer loop
      vertex 26.1981 -45.1322 4
      vertex 27.555 -44.0501 4
      vertex -32 23.5195 4
    endloop
  endfacet
  facet normal 0 -1 0
    outer loop
      vertex -21.9979 -51 4
      vertex -21.9979 -51 0
      vertex 32 -51 0
    endloop
  endfacet
  facet normal 0 -1 0
    outer loop
      vertex 32 -51 4
      vertex -21.9979 -51 4
      vertex 32 -51 0
    endloop
  endfacet
  facet normal 1 0 0
    outer loop
      vertex 32 -51 4
      vertex 32 -51 0
      vertex 32 -20 0
    endloop
  endfacet
  facet normal 1 0 0
    outer loop
      vertex 32 -20 4
      vertex 32 -51 4
      vertex 32 -20 0
    endloop
  endfacet
  facet normal 0 1 0
    outer loop
      vertex 32 -20 4
      vertex 32 -20 0
      vertex 27 -20 4
    endloop
  endfacet
  facet normal 0 1 0
    outer loop
      vertex 27 -20 4
      vertex 32 -20 0
      vertex 27 -20 0
    endloop
  endfacet
  facet normal 1 0 0
    outer loop
      vertex 27 20 0
      vertex 27 20 4
      vertex 27 -20 4
    endloop
  endfacet
  facet normal 1 0 0
    outer loop
      vertex 27 -20 0
      vertex 27 20 0
      vertex 27 -20 4
    endloop
  endfacet
  facet normal 0 -1 0
    outer loop
      vertex 32 20 0
      vertex 32 20 4
      vertex 27 20 4
    endloop
  endfacet
  facet normal 0 -1 0
    outer loop
      vertex 27 20 0
      vertex 32 20 0
      vertex 27 20 4
    endloop
  endfacet
  facet normal 1 0 0
    outer loop
      vertex 32 20 4
      vertex 32 20 0
      vertex 32 51 0
    endloop
  endfacet
  facet normal 1 0 0
    outer loop
      vertex 32 51 4
      vertex 32 20 4
      vertex 32 51 0
    endloop
  endfacet
  facet normal 0 1 0
    outer loop
      vertex -21.9979 51 0
      vertex -21.9979 51 4
      vertex 32 51 0
    endloop
  endfacet
  facet normal 0 1 0
    outer loop
      vertex 32 51 0
      vertex -21.9979 51 4
      vertex 32 51 4
    endloop
  endfacet
  facet normal 0.62349 -0.781831 0
    outer loop
      vertex -19.445 -44.0501 0
      vertex -19.445 -44.0501 4
      vertex -20.8019 -45.1322 4
    endloop
  endfacet
  facet normal 0.62349 -0.781831 0
    outer loop
      vertex -20.8019 -45.1322 0
      vertex -19.445 -44.0501 0
      vertex -20.8019 -45.1322 4
    endloop
  endfacet
  facet normal 1 0 0
    outer loop
      vertex -20.8019 -45.1322 0
      vertex -20.8019 -45.1322 4
      vertex -20.8019 -46.8678 4
    endloop
  endfacet
  facet normal 1 0 0
    outer loop
      vertex -20.8019 -46.8678 0
      vertex -20.8019 -45.1322 0
      vertex -20.8019 -46.8678 4
    endloop
  endfacet
  facet normal -0.222521 -0.974928 0
    outer loop
      vertex -17.753 -44.4363 0
      vertex -17.753 -44.4363 4
      vertex -19.445 -44.0501 4
    endloop
  endfacet
  facet normal -0.222521 -0.974928 0
    outer loop
      vertex -19.445 -44.0501 0
      vertex -17.753 -44.4363 0
      vertex -19.445 -44.0501 4
    endloop
  endfacet
  facet normal -0.900969 -0.433884 0
    outer loop
      vertex -17 -46 4
      vertex -17.753 -44.4363 4
      vertex -17 -46 0
    endloop
  endfacet
  facet normal -0.900969 -0.433884 0
    outer loop
      vertex -17 -46 0
      vertex -17.753 -44.4363 4
      vertex -17.753 -44.4363 0
    endloop
  endfacet
  facet normal -0.900969 0.433884 0
    outer loop
      vertex -17 -46 4
      vertex -17 -46 0
      vertex -17.753 -47.5637 4
    endloop
  endfacet
  facet normal -0.900969 0.433884 0
    outer loop
      vertex -17.753 -47.5637 4
      vertex -17 -46 0
      vertex -17.753 -47.5637 0
    endloop
  endfacet
  facet normal -0.222521 0.974928 0
    outer loop
      vertex -17.753 -47.5637 4
      vertex -17.753 -47.5637 0
      vertex -19.445 -47.9499 4
    endloop
  endfacet
  facet normal -0.222521 0.974928 0
    outer loop
      vertex -19.445 -47.9499 4
      vertex -17.753 -47.5637 0
      vertex -19.445 -47.9499 0
    endloop
  endfacet
  facet normal 0.62349 0.781831 0
    outer loop
      vertex -19.445 -47.9499 4
      vertex -19.445 -47.9499 0
      vertex -20.8019 -46.8678 4
    endloop
  endfacet
  facet normal 0.62349 0.781831 0
    outer loop
      vertex -20.8019 -46.8678 4
      vertex -19.445 -47.9499 0
      vertex -20.8019 -46.8678 0
    endloop
  endfacet
  facet normal 0.62349 -0.781831 0
    outer loop
      vertex -19.445 47.9499 0
      vertex -19.445 47.9499 4
      vertex -20.8019 46.8678 4
    endloop
  endfacet
  facet normal 0.62349 -0.781831 0
    outer loop
      vertex -20.8019 46.8678 0
      vertex -19.445 47.9499 0
      vertex -20.8019 46.8678 4
    endloop
  endfacet
  facet normal 1 0 0
    outer loop
      vertex -20.8019 46.8678 0
      vertex -20.8019 46.8678 4
      vertex -20.8019 45.1322 4
    endloop
  endfacet
  facet normal 1 0 0
    outer loop
      vertex -20.8019 45.1322 0
      vertex -20.8019 46.8678 0
      vertex -20.8019 45.1322 4
    endloop
  endfacet
  facet normal -0.222521 -0.974928 0
    outer loop
      vertex -17.753 47.5637 0
      vertex -17.753 47.5637 4
      vertex -19.445 47.9499 4
    endloop
  endfacet
  facet normal -0.222521 -0.974928 0
    outer loop
      vertex -19.445 47.9499 0
      vertex -17.753 47.5637 0
      vertex -19.445 47.9499 4
    endloop
  endfacet
  facet normal -0.900969 -0.433884 0
    outer loop
      vertex -17 46 4
      vertex -17.753 47.5637 4
      vertex -17 46 0
    endloop
  endfacet
  facet normal -0.900969 -0.433884 0
    outer loop
      vertex -17 46 0
      vertex -17.753 47.5637 4
      vertex -17.753 47.5637 0
    endloop
  endfacet
  facet normal -0.900969 0.433884 0
    outer loop
      vertex -17 46 4
      vertex -17 46 0
      vertex -17.753 44.4363 4
    endloop
  endfacet
  facet normal -0.900969 0.433884 0
    outer loop
      vertex -17.753 44.4363 4
      vertex -17 46 0
      vertex -17.753 44.4363 0
    endloop
  endfacet
  facet normal -0.222521 0.974928 0
    outer loop
      vertex -17.753 44.4363 4
      vertex -17.753 44.4363 0
      vertex -19.445 44.0501 4
    endloop
  endfacet
  facet normal -0.222521 0.974928 0
    outer loop
      vertex -19.445 44.0501 4
      vertex -17.753 44.4363 0
      vertex -19.445 44.0501 0
    endloop
  endfacet
  facet normal 0.62349 0.781831 0
    outer loop
      vertex -19.445 44.0501 4
      vertex -19.445 44.0501 0
      vertex -20.8019 45.1322 4
    endloop
  endfacet
  facet normal 0.62349 0.781831 0
    outer loop
      vertex -20.8019 45.1322 4
      vertex -19.445 44.0501 0
      vertex -20.8019 45.1322 0
    endloop
  endfacet
  facet normal 1 0 0
    outer loop
      vertex 26.1981 -45.1322 0
      vertex 26.1981 -45.1322 4
      vertex 26.1981 -46.8678 4
    endloop
  endfacet
  facet normal 1 0 0
    outer loop
      vertex 26.1981 -46.8678 0
      vertex 26.1981 -45.1322 0
      vertex 26.1981 -46.8678 4
    endloop
  endfacet
  facet normal 0.62349 -0.781831 0
    outer loop
      vertex 27.555 -44.0501 0
      vertex 27.555 -44.0501 4
      vertex 26.1981 -45.1322 4
    endloop
  endfacet
  facet normal 0.62349 -0.781831 0
    outer loop
      vertex 26.1981 -45.1322 0
      vertex 27.555 -44.0501 0
      vertex 26.1981 -45.1322 4
    endloop
  endfacet
  facet normal -0.222521 -0.974928 0
    outer loop
      vertex 29.247 -44.4363 0
      vertex 29.247 -44.4363 4
      vertex 27.555 -44.0501 4
    endloop
  endfacet
  facet normal -0.222521 -0.974928 0
    outer loop
      vertex 27.555 -44.0501 0
      vertex 29.247 -44.4363 0
      vertex 27.555 -44.0501 4
    endloop
  endfacet
  facet normal -0.900969 -0.433884 0
    outer loop
      vertex 30 -46 4
      vertex 29.247 -44.4363 4
      vertex 30 -46 0
    endloop
  endfacet
  facet normal -0.900969 -0.433884 0
    outer loop
      vertex 30 -46 0
      vertex 29.247 -44.4363 4
      vertex 29.247 -44.4363 0
    endloop
  endfacet
  facet normal -0.900969 0.433884 0
    outer loop
      vertex 30 -46 4
      vertex 30 -46 0
      vertex 29.247 -47.5637 4
    endloop
  endfacet
  facet normal -0.900969 0.433884 0
    outer loop
      vertex 29.247 -47.5637 4
      vertex 30 -46 0
      vertex 29.247 -47.5637 0
    endloop
  endfacet
  facet normal -0.222521 0.974928 0
    outer loop
      vertex 29.247 -47.5637 4
      vertex 29.247 -47.5637 0
      vertex 27.555 -47.9499 4
    endloop
  endfacet
  facet normal -0.222521 0.974928 0
    outer loop
      vertex 27.555 -47.9499 4
      vertex 29.247 -47.5637 0
      vertex 27.555 -47.9499 0
    endloop
  endfacet
  facet normal 0.62349 0.781831 0
    outer loop
      vertex 27.555 -47.9499 4
      vertex 27.555 -47.9499 0
      vertex 26.1981 -46.8678 4
    endloop
  endfacet
  facet normal 0.62349 0.781831 0
    outer loop
      vertex 26.1981 -46.8678 4
      vertex 27.555 -47.9499 0
      vertex 26.1981 -46.8678 0
    endloop
  endfacet
  facet normal 1 0 0
    outer loop
      vertex 26.1981 46.8678 0
      vertex 26.1981 46.8678 4
      vertex 26.1981 45.1322 4
    endloop
  endfacet
  facet normal 1 0 0
    outer loop
      vertex 26.1981 45.1322 0
      vertex 26.1981 46.8678 0
      vertex 26.1981 45.1322 4
    endloop
  endfacet
  facet normal 0.62349 -0.781831 0
    outer loop
      vertex 27.555 47.9499 0
      vertex 27.555 47.9499 4
      vertex 26.1981 46.8678 4
    endloop
  endfacet
  facet normal 0.62349 -0.781831 0
    outer loop
      vertex 26.1981 46.8678 0
      vertex 27.555 47.9499 0
      vertex 26.1981 46.8678 4
    endloop
  endfacet
  facet normal -0.222521 -0.974928 0
    outer loop
      vertex 29.247 47.5637 0
      vertex 29.247 47.5637 4
      vertex 27.555 47.9499 4
    endloop
  endfacet
  facet normal -0.222521 -0.974928 0
    outer loop
      vertex 27.555 47.9499 0
      vertex 29.247 47.5637 0
      vertex 27.555 47.9499 4
    endloop
  endfacet
  facet normal -0.900969 -0.433884 0
    outer loop
      vertex 30 46 4
      vertex 29.247 47.5637 4
      vertex 30 46 0
    endloop
  endfacet
  facet normal -0.900969 -0.433884 0
    outer loop
      vertex 30 46 0
      vertex 29.247 47.5637 4
      vertex 29.247 47.5637 0
    endloop
  endfacet
  facet normal -0.900969 0.433884 0
    outer loop
      vertex 30 46 4
      vertex 30 46 0
      vertex 29.247 44.4363 4
    endloop
  endfacet
  facet normal -0.900969 0.433884 0
    outer loop
      vertex 29.247 44.4363 4
      vertex 30 46 0
      vertex 29.247 44.4363 0
    endloop
  endfacet
  facet normal -0.222521 0.974928 0
    outer loop
      vertex 29.247 44.4363 4
      vertex 29.247 44.4363 0
      vertex 27.555 44.0501 4
    endloop
  endfacet
  facet normal -0.222521 0.974928 0
    outer loop
      vertex 27.555 44.0501 4
      vertex 29.247 44.4363 0
      vertex 27.555 44.0501 0
    endloop
  endfacet
  facet normal 0.62349 0.781831 0
    outer loop
      vertex 27.555 44.0501 4
      vertex 27.555 44.0501 0
      vertex 26.1981 45.1322 4
    endloop
  endfacet
  facet normal 0.62349 0.781831 0
    outer loop
      vertex 26.1981 45.1322 4
      vertex 27.555 44.0501 0
      vertex 26.1981 45.1322 0
    endloop
  endfacet
endsolid OpenSCAD_Model
