solid ascii
  facet normal 1.081190e-001 0.000000e+000 9.941380e-001
    outer loop
      vertex   -6.354701e+000 -2.350000e+001 -1.611424e+000
      vertex   -6.000000e+000 -2.350000e+001 -1.650000e+000
      vertex   -6.000000e+000 2.350000e+001 -1.650000e+000
    endloop
  endfacet
  facet normal 3.193015e-001 0.000000e+000 9.476532e-001
    outer loop
      vertex   -6.692817e+000 -2.350000e+001 -1.497499e+000
      vertex   -6.354701e+000 -2.350000e+001 -1.611424e+000
      vertex   -6.354701e+000 2.350000e+001 -1.611424e+000
    endloop
  endfacet
  facet normal 5.155539e-001 0.000000e+000 8.568572e-001
    outer loop
      vertex   -6.998537e+000 -2.350000e+001 -1.313554e+000
      vertex   -6.692817e+000 -2.350000e+001 -1.497499e+000
      vertex   -6.692817e+000 2.350000e+001 -1.497499e+000
    endloop
  endfacet
  facet normal 6.876995e-001 0.000000e+000 7.259955e-001
    outer loop
      vertex   -7.257567e+000 -2.350000e+001 -1.068187e+000
      vertex   -6.998537e+000 -2.350000e+001 -1.313554e+000
      vertex   -6.998537e+000 2.350000e+001 -1.313554e+000
    endloop
  endfacet
  facet normal 8.276890e-001 0.000000e+000 5.611871e-001
    outer loop
      vertex   -7.457795e+000 -2.350000e+001 -7.728739e-001
      vertex   -7.257567e+000 -2.350000e+001 -1.068187e+000
      vertex   -7.257567e+000 2.350000e+001 -1.068187e+000
    endloop
  endfacet
  facet normal 9.289767e-001 0.000000e+000 3.701382e-001
    outer loop
      vertex   -7.589857e+000 -2.350000e+001 -4.414218e-001
      vertex   -7.457795e+000 -2.350000e+001 -7.728739e-001
      vertex   -7.457795e+000 2.350000e+001 -7.728739e-001
    endloop
  endfacet
  facet normal 9.868265e-001 0.000000e+000 1.617820e-001
    outer loop
      vertex   -7.647580e+000 -2.350000e+001 -8.932920e-002
      vertex   -7.589857e+000 -2.350000e+001 -4.414218e-001
      vertex   -7.589857e+000 2.350000e+001 -4.414218e-001
    endloop
  endfacet
  facet normal 9.985334e-001 0.000000e+000 -5.413891e-002
    outer loop
      vertex   -7.628264e+000 -2.350000e+001 2.669403e-001
      vertex   -7.647580e+000 -2.350000e+001 -8.932920e-002
      vertex   -7.647580e+000 2.350000e+001 -8.932920e-002
    endloop
  endfacet
  facet normal 9.635500e-001 0.000000e+000 -2.675283e-001
    outer loop
      vertex   -7.532812e+000 -2.350000e+001 6.107280e-001
      vertex   -7.628264e+000 -2.350000e+001 2.669403e-001
      vertex   -7.628264e+000 2.350000e+001 2.669403e-001
    endloop
  endfacet
  facet normal 8.835120e-001 0.000000e+000 -4.684084e-001
    outer loop
      vertex   -7.365687e+000 -2.350000e+001 9.259587e-001
      vertex   -7.532812e+000 -2.350000e+001 6.107280e-001
      vertex   -7.532812e+000 2.350000e+001 6.107280e-001
    endloop
  endfacet
  facet normal 7.621621e-001 0.000000e+000 -6.473863e-001
    outer loop
      vertex   -7.134704e+000 -2.350000e+001 1.197893e+000
      vertex   -7.365687e+000 -2.350000e+001 9.259587e-001
      vertex   -7.365687e+000 2.350000e+001 9.259587e-001
    endloop
  endfacet
  facet normal 6.051742e-001 0.000000e+000 -7.960931e-001
    outer loop
      vertex   -6.850664e+000 -2.350000e+001 1.413814e+000
      vertex   -7.134704e+000 -2.350000e+001 1.197893e+000
      vertex   -7.134704e+000 2.350000e+001 1.197893e+000
    endloop
  endfacet
  facet normal 4.198891e-001 0.000000e+000 -9.075754e-001
    outer loop
      vertex   -6.526848e+000 -2.350000e+001 1.563628e+000
      vertex   -6.850664e+000 -2.350000e+001 1.413814e+000
      vertex   -6.850664e+000 2.350000e+001 1.413814e+000
    endloop
  endfacet
  facet normal 2.149704e-001 0.000000e+000 -9.766206e-001
    outer loop
      vertex   -6.178396e+000 -2.350000e+001 1.640328e+000
      vertex   -6.526848e+000 -2.350000e+001 1.563628e+000
      vertex   -6.526848e+000 2.350000e+001 1.563628e+000
    endloop
  endfacet
  facet normal 0.000000e+000 0.000000e+000 -1.000000e+000
    outer loop
      vertex   -5.821604e+000 -2.350000e+001 1.640328e+000
      vertex   -6.178396e+000 -2.350000e+001 1.640328e+000
      vertex   -6.178396e+000 2.350000e+001 1.640328e+000
    endloop
  endfacet
  facet normal -2.149704e-001 0.000000e+000 -9.766206e-001
    outer loop
      vertex   -5.473152e+000 -2.350000e+001 1.563628e+000
      vertex   -5.821604e+000 -2.350000e+001 1.640328e+000
      vertex   -5.821604e+000 2.350000e+001 1.640328e+000
    endloop
  endfacet
  facet normal -4.198891e-001 0.000000e+000 -9.075754e-001
    outer loop
      vertex   -5.149336e+000 -2.350000e+001 1.413814e+000
      vertex   -5.473152e+000 -2.350000e+001 1.563628e+000
      vertex   -5.473152e+000 2.350000e+001 1.563628e+000
    endloop
  endfacet
  facet normal -6.051742e-001 0.000000e+000 -7.960931e-001
    outer loop
      vertex   -4.865296e+000 -2.350000e+001 1.197893e+000
      vertex   -5.149336e+000 -2.350000e+001 1.413814e+000
      vertex   -5.149336e+000 2.350000e+001 1.413814e+000
    endloop
  endfacet
  facet normal -7.621621e-001 0.000000e+000 -6.473863e-001
    outer loop
      vertex   -4.634313e+000 -2.350000e+001 9.259587e-001
      vertex   -4.865296e+000 -2.350000e+001 1.197893e+000
      vertex   -4.865296e+000 2.350000e+001 1.197893e+000
    endloop
  endfacet
  facet normal -8.835120e-001 0.000000e+000 -4.684084e-001
    outer loop
      vertex   -4.467188e+000 -2.350000e+001 6.107280e-001
      vertex   -4.634313e+000 -2.350000e+001 9.259587e-001
      vertex   -4.634313e+000 2.350000e+001 9.259587e-001
    endloop
  endfacet
  facet normal -9.635500e-001 0.000000e+000 -2.675283e-001
    outer loop
      vertex   -4.371736e+000 -2.350000e+001 2.669403e-001
      vertex   -4.467188e+000 -2.350000e+001 6.107280e-001
      vertex   -4.467188e+000 2.350000e+001 6.107280e-001
    endloop
  endfacet
  facet normal -9.996333e-001 0.000000e+000 2.707938e-002
    outer loop
      vertex   -4.352420e+000 2.350000e+001 -8.932920e-002
      vertex   -4.352420e+000 -2.350000e+001 -8.932920e-002
      vertex   -4.350000e+000 -2.350000e+001 -5.051668e-016
    endloop
  endfacet
  facet normal -9.985334e-001 -1.543086e-004 -5.413891e-002
    outer loop
      vertex   -4.350000e+000 -2.350000e+001 -5.051668e-016
      vertex   -4.371736e+000 2.350000e+001 2.669403e-001
      vertex   -4.352420e+000 2.350000e+001 -8.932920e-002
    endloop
  endfacet
  facet normal -9.967012e-001 0.000000e+000 -8.115873e-002
    outer loop
      vertex   -4.350000e+000 -2.350000e+001 -5.051668e-016
      vertex   -4.371736e+000 -2.350000e+001 2.669403e-001
      vertex   -4.371736e+000 2.350000e+001 2.669403e-001
    endloop
  endfacet
  facet normal -9.868265e-001 0.000000e+000 1.617820e-001
    outer loop
      vertex   -4.410143e+000 -2.350000e+001 -4.414218e-001
      vertex   -4.352420e+000 -2.350000e+001 -8.932920e-002
      vertex   -4.352420e+000 2.350000e+001 -8.932920e-002
    endloop
  endfacet
  facet normal -9.289767e-001 0.000000e+000 3.701382e-001
    outer loop
      vertex   -4.542205e+000 -2.350000e+001 -7.728739e-001
      vertex   -4.410143e+000 -2.350000e+001 -4.414218e-001
      vertex   -4.410143e+000 2.350000e+001 -4.414218e-001
    endloop
  endfacet
  facet normal -8.276890e-001 0.000000e+000 5.611871e-001
    outer loop
      vertex   -4.742433e+000 -2.350000e+001 -1.068187e+000
      vertex   -4.542205e+000 -2.350000e+001 -7.728739e-001
      vertex   -4.542205e+000 2.350000e+001 -7.728739e-001
    endloop
  endfacet
  facet normal -6.876995e-001 0.000000e+000 7.259955e-001
    outer loop
      vertex   -5.001463e+000 -2.350000e+001 -1.313554e+000
      vertex   -4.742433e+000 -2.350000e+001 -1.068187e+000
      vertex   -4.742433e+000 2.350000e+001 -1.068187e+000
    endloop
  endfacet
  facet normal -5.155539e-001 0.000000e+000 8.568572e-001
    outer loop
      vertex   -5.307183e+000 -2.350000e+001 -1.497499e+000
      vertex   -5.001463e+000 -2.350000e+001 -1.313554e+000
      vertex   -5.001463e+000 2.350000e+001 -1.313554e+000
    endloop
  endfacet
  facet normal -3.193015e-001 0.000000e+000 9.476532e-001
    outer loop
      vertex   -5.645299e+000 -2.350000e+001 -1.611424e+000
      vertex   -5.307183e+000 -2.350000e+001 -1.497499e+000
      vertex   -5.307183e+000 2.350000e+001 -1.497499e+000
    endloop
  endfacet
  facet normal -1.081190e-001 0.000000e+000 9.941380e-001
    outer loop
      vertex   -6.000000e+000 -2.350000e+001 -1.650000e+000
      vertex   -5.645299e+000 -2.350000e+001 -1.611424e+000
      vertex   -5.645299e+000 2.350000e+001 -1.611424e+000
    endloop
  endfacet
  facet normal -1.081190e-001 0.000000e+000 9.941380e-001
    outer loop
      vertex   -5.645299e+000 2.350000e+001 -1.611424e+000
      vertex   -6.000000e+000 2.350000e+001 -1.650000e+000
      vertex   -6.000000e+000 -2.350000e+001 -1.650000e+000
    endloop
  endfacet
  facet normal -3.193015e-001 0.000000e+000 9.476532e-001
    outer loop
      vertex   -5.307183e+000 2.350000e+001 -1.497499e+000
      vertex   -5.645299e+000 2.350000e+001 -1.611424e+000
      vertex   -5.645299e+000 -2.350000e+001 -1.611424e+000
    endloop
  endfacet
  facet normal -5.155539e-001 0.000000e+000 8.568572e-001
    outer loop
      vertex   -5.001463e+000 2.350000e+001 -1.313554e+000
      vertex   -5.307183e+000 2.350000e+001 -1.497499e+000
      vertex   -5.307183e+000 -2.350000e+001 -1.497499e+000
    endloop
  endfacet
  facet normal -6.876995e-001 0.000000e+000 7.259955e-001
    outer loop
      vertex   -4.742433e+000 2.350000e+001 -1.068187e+000
      vertex   -5.001463e+000 2.350000e+001 -1.313554e+000
      vertex   -5.001463e+000 -2.350000e+001 -1.313554e+000
    endloop
  endfacet
  facet normal -8.276890e-001 0.000000e+000 5.611871e-001
    outer loop
      vertex   -4.542205e+000 2.350000e+001 -7.728739e-001
      vertex   -4.742433e+000 2.350000e+001 -1.068187e+000
      vertex   -4.742433e+000 -2.350000e+001 -1.068187e+000
    endloop
  endfacet
  facet normal -9.289767e-001 0.000000e+000 3.701382e-001
    outer loop
      vertex   -4.410143e+000 2.350000e+001 -4.414218e-001
      vertex   -4.542205e+000 2.350000e+001 -7.728739e-001
      vertex   -4.542205e+000 -2.350000e+001 -7.728739e-001
    endloop
  endfacet
  facet normal -9.868265e-001 0.000000e+000 1.617820e-001
    outer loop
      vertex   -4.352420e+000 2.350000e+001 -8.932920e-002
      vertex   -4.410143e+000 2.350000e+001 -4.414218e-001
      vertex   -4.410143e+000 -2.350000e+001 -4.414218e-001
    endloop
  endfacet
  facet normal -9.635500e-001 0.000000e+000 -2.675283e-001
    outer loop
      vertex   -4.467188e+000 2.350000e+001 6.107280e-001
      vertex   -4.371736e+000 2.350000e+001 2.669403e-001
      vertex   -4.371736e+000 -2.350000e+001 2.669403e-001
    endloop
  endfacet
  facet normal -8.835120e-001 0.000000e+000 -4.684084e-001
    outer loop
      vertex   -4.634313e+000 2.350000e+001 9.259587e-001
      vertex   -4.467188e+000 2.350000e+001 6.107280e-001
      vertex   -4.467188e+000 -2.350000e+001 6.107280e-001
    endloop
  endfacet
  facet normal -7.621621e-001 0.000000e+000 -6.473863e-001
    outer loop
      vertex   -4.865296e+000 2.350000e+001 1.197893e+000
      vertex   -4.634313e+000 2.350000e+001 9.259587e-001
      vertex   -4.634313e+000 -2.350000e+001 9.259587e-001
    endloop
  endfacet
  facet normal -6.051742e-001 0.000000e+000 -7.960931e-001
    outer loop
      vertex   -5.149336e+000 2.350000e+001 1.413814e+000
      vertex   -4.865296e+000 2.350000e+001 1.197893e+000
      vertex   -4.865296e+000 -2.350000e+001 1.197893e+000
    endloop
  endfacet
  facet normal -4.198891e-001 0.000000e+000 -9.075754e-001
    outer loop
      vertex   -5.473152e+000 2.350000e+001 1.563628e+000
      vertex   -5.149336e+000 2.350000e+001 1.413814e+000
      vertex   -5.149336e+000 -2.350000e+001 1.413814e+000
    endloop
  endfacet
  facet normal -2.149704e-001 0.000000e+000 -9.766206e-001
    outer loop
      vertex   -5.821604e+000 2.350000e+001 1.640328e+000
      vertex   -5.473152e+000 2.350000e+001 1.563628e+000
      vertex   -5.473152e+000 -2.350000e+001 1.563628e+000
    endloop
  endfacet
  facet normal 0.000000e+000 0.000000e+000 -1.000000e+000
    outer loop
      vertex   -6.178396e+000 2.350000e+001 1.640328e+000
      vertex   -5.821604e+000 2.350000e+001 1.640328e+000
      vertex   -5.821604e+000 -2.350000e+001 1.640328e+000
    endloop
  endfacet
  facet normal 2.149704e-001 0.000000e+000 -9.766206e-001
    outer loop
      vertex   -6.526848e+000 2.350000e+001 1.563628e+000
      vertex   -6.178396e+000 2.350000e+001 1.640328e+000
      vertex   -6.178396e+000 -2.350000e+001 1.640328e+000
    endloop
  endfacet
  facet normal 4.198891e-001 0.000000e+000 -9.075754e-001
    outer loop
      vertex   -6.850664e+000 2.350000e+001 1.413814e+000
      vertex   -6.526848e+000 2.350000e+001 1.563628e+000
      vertex   -6.526848e+000 -2.350000e+001 1.563628e+000
    endloop
  endfacet
  facet normal 6.051742e-001 0.000000e+000 -7.960931e-001
    outer loop
      vertex   -7.134704e+000 2.350000e+001 1.197893e+000
      vertex   -6.850664e+000 2.350000e+001 1.413814e+000
      vertex   -6.850664e+000 -2.350000e+001 1.413814e+000
    endloop
  endfacet
  facet normal 7.621621e-001 0.000000e+000 -6.473863e-001
    outer loop
      vertex   -7.365687e+000 2.350000e+001 9.259587e-001
      vertex   -7.134704e+000 2.350000e+001 1.197893e+000
      vertex   -7.134704e+000 -2.350000e+001 1.197893e+000
    endloop
  endfacet
  facet normal 8.835120e-001 0.000000e+000 -4.684084e-001
    outer loop
      vertex   -7.532812e+000 2.350000e+001 6.107280e-001
      vertex   -7.365687e+000 2.350000e+001 9.259587e-001
      vertex   -7.365687e+000 -2.350000e+001 9.259587e-001
    endloop
  endfacet
  facet normal 9.635500e-001 0.000000e+000 -2.675283e-001
    outer loop
      vertex   -7.628264e+000 2.350000e+001 2.669403e-001
      vertex   -7.532812e+000 2.350000e+001 6.107280e-001
      vertex   -7.532812e+000 -2.350000e+001 6.107280e-001
    endloop
  endfacet
  facet normal 9.985334e-001 0.000000e+000 -5.413891e-002
    outer loop
      vertex   -7.647580e+000 2.350000e+001 -8.932920e-002
      vertex   -7.628264e+000 2.350000e+001 2.669403e-001
      vertex   -7.628264e+000 -2.350000e+001 2.669403e-001
    endloop
  endfacet
  facet normal 9.868265e-001 0.000000e+000 1.617820e-001
    outer loop
      vertex   -7.589857e+000 2.350000e+001 -4.414218e-001
      vertex   -7.647580e+000 2.350000e+001 -8.932920e-002
      vertex   -7.647580e+000 -2.350000e+001 -8.932920e-002
    endloop
  endfacet
  facet normal 9.289767e-001 0.000000e+000 3.701382e-001
    outer loop
      vertex   -7.457795e+000 2.350000e+001 -7.728739e-001
      vertex   -7.589857e+000 2.350000e+001 -4.414218e-001
      vertex   -7.589857e+000 -2.350000e+001 -4.414218e-001
    endloop
  endfacet
  facet normal 8.276890e-001 0.000000e+000 5.611871e-001
    outer loop
      vertex   -7.257567e+000 2.350000e+001 -1.068187e+000
      vertex   -7.457795e+000 2.350000e+001 -7.728739e-001
      vertex   -7.457795e+000 -2.350000e+001 -7.728739e-001
    endloop
  endfacet
  facet normal 6.876995e-001 0.000000e+000 7.259955e-001
    outer loop
      vertex   -6.998537e+000 2.350000e+001 -1.313554e+000
      vertex   -7.257567e+000 2.350000e+001 -1.068187e+000
      vertex   -7.257567e+000 -2.350000e+001 -1.068187e+000
    endloop
  endfacet
  facet normal 5.155539e-001 0.000000e+000 8.568572e-001
    outer loop
      vertex   -6.692817e+000 2.350000e+001 -1.497499e+000
      vertex   -6.998537e+000 2.350000e+001 -1.313554e+000
      vertex   -6.998537e+000 -2.350000e+001 -1.313554e+000
    endloop
  endfacet
  facet normal 3.193015e-001 0.000000e+000 9.476532e-001
    outer loop
      vertex   -6.354701e+000 2.350000e+001 -1.611424e+000
      vertex   -6.692817e+000 2.350000e+001 -1.497499e+000
      vertex   -6.692817e+000 -2.350000e+001 -1.497499e+000
    endloop
  endfacet
  facet normal 1.081190e-001 0.000000e+000 9.941380e-001
    outer loop
      vertex   -6.000000e+000 2.350000e+001 -1.650000e+000
      vertex   -6.354701e+000 2.350000e+001 -1.611424e+000
      vertex   -6.354701e+000 -2.350000e+001 -1.611424e+000
    endloop
  endfacet
  facet normal 0.000000e+000 -1.000000e+000 0.000000e+000
    outer loop
      vertex   4.352420e+000 -2.350000e+001 -8.932920e-002
      vertex   4.350000e+000 -2.350000e+001 7.072335e-016
      vertex   -4.350000e+000 -2.350000e+001 -5.051668e-016
    endloop
  endfacet
  facet normal -0.000000e+000 -1.000000e+000 0.000000e+000
    outer loop
      vertex   4.350000e+000 -2.350000e+001 7.072335e-016
      vertex   -4.371736e+000 -2.350000e+001 2.669403e-001
      vertex   -4.350000e+000 -2.350000e+001 -5.051668e-016
    endloop
  endfacet
  facet normal 0.000000e+000 -1.000000e+000 -0.000000e+000
    outer loop
      vertex   -4.350000e+000 -2.350000e+001 -5.051668e-016
      vertex   -4.352420e+000 -2.350000e+001 -8.932920e-002
      vertex   4.352420e+000 -2.350000e+001 -8.932920e-002
    endloop
  endfacet
  facet normal 0.000000e+000 -1.000000e+000 0.000000e+000
    outer loop
      vertex   4.350000e+000 -2.350000e+001 7.072335e-016
      vertex   4.371736e+000 -2.350000e+001 2.669403e-001
      vertex   -4.371736e+000 -2.350000e+001 2.669403e-001
    endloop
  endfacet
  facet normal 0.000000e+000 -1.000000e+000 -8.988968e-016
    outer loop
      vertex   1.000000e+001 -2.350000e+001 5.500000e+000
      vertex   5.821604e+000 -2.350000e+001 1.640328e+000
      vertex   6.178396e+000 -2.350000e+001 1.640328e+000
    endloop
  endfacet
  facet normal 0.000000e+000 -1.000000e+000 0.000000e+000
    outer loop
      vertex   -4.410143e+000 -2.350000e+001 -4.414218e-001
      vertex   4.410143e+000 -2.350000e+001 -4.414218e-001
      vertex   4.352420e+000 -2.350000e+001 -8.932920e-002
    endloop
  endfacet
  facet normal -2.597616e-016 -1.000000e+000 -1.180109e-015
    outer loop
      vertex   -1.000000e+001 -2.350000e+001 5.500000e+000
      vertex   -5.821604e+000 -2.350000e+001 1.640328e+000
      vertex   -5.473152e+000 -2.350000e+001 1.563628e+000
    endloop
  endfacet
  facet normal 2.597616e-016 -1.000000e+000 -1.180109e-015
    outer loop
      vertex   1.000000e+001 -2.350000e+001 5.500000e+000
      vertex   5.473152e+000 -2.350000e+001 1.563628e+000
      vertex   5.821604e+000 -2.350000e+001 1.640328e+000
    endloop
  endfacet
  facet normal 0.000000e+000 -1.000000e+000 0.000000e+000
    outer loop
      vertex   -4.467188e+000 -2.350000e+001 6.107280e-001
      vertex   5.149336e+000 -2.350000e+001 1.413814e+000
      vertex   5.473152e+000 -2.350000e+001 1.563628e+000
    endloop
  endfacet
  facet normal -0.000000e+000 -1.000000e+000 0.000000e+000
    outer loop
      vertex   4.371736e+000 -2.350000e+001 2.669403e-001
      vertex   -4.467188e+000 -2.350000e+001 6.107280e-001
      vertex   -4.371736e+000 -2.350000e+001 2.669403e-001
    endloop
  endfacet
  facet normal 0.000000e+000 -1.000000e+000 -8.988968e-016
    outer loop
      vertex   -1.000000e+001 -2.350000e+001 5.500000e+000
      vertex   -6.178396e+000 -2.350000e+001 1.640328e+000
      vertex   -5.821604e+000 -2.350000e+001 1.640328e+000
    endloop
  endfacet
  facet normal 9.495940e-017 -1.000000e+000 -9.905856e-016
    outer loop
      vertex   5.473152e+000 -2.350000e+001 1.563628e+000
      vertex   1.000000e+001 -2.350000e+001 5.500000e+000
      vertex   -4.467188e+000 -2.350000e+001 6.107280e-001
    endloop
  endfacet
  facet normal 0.000000e+000 -1.000000e+000 -0.000000e+000
    outer loop
      vertex   -4.352420e+000 -2.350000e+001 -8.932920e-002
      vertex   -4.410143e+000 -2.350000e+001 -4.414218e-001
      vertex   4.352420e+000 -2.350000e+001 -8.932920e-002
    endloop
  endfacet
  facet normal 0.000000e+000 -1.000000e+000 0.000000e+000
    outer loop
      vertex   -4.542205e+000 -2.350000e+001 -7.728739e-001
      vertex   4.742433e+000 -2.350000e+001 -1.068187e+000
      vertex   4.542205e+000 -2.350000e+001 -7.728739e-001
    endloop
  endfacet
  facet normal 4.827942e-016 -1.000000e+000 1.432882e-015
    outer loop
      vertex   1.000000e+001 -2.350000e+001 -5.500000e+000
      vertex   5.645299e+000 -2.350000e+001 -1.611424e+000
      vertex   5.307183e+000 -2.350000e+001 -1.497499e+000
    endloop
  endfacet
  facet normal 1.624556e-016 -1.000000e+000 -7.380434e-016
    outer loop
      vertex   -1.000000e+001 -2.350000e+001 5.500000e+000
      vertex   -6.526848e+000 -2.350000e+001 1.563628e+000
      vertex   -6.178396e+000 -2.350000e+001 1.640328e+000
    endloop
  endfacet
  facet normal 1.474842e-015 -1.000000e+000 0.000000e+000
    outer loop
      vertex   -1.000000e+001 -2.350000e+001 5.500000e+000
      vertex   -1.000000e+001 -2.350000e+001 -5.500000e+000
      vertex   -7.647580e+000 -2.350000e+001 -8.932920e-002
    endloop
  endfacet
  facet normal -2.895674e-016 -1.000000e+000 -6.258898e-016
    outer loop
      vertex   1.000000e+001 -2.350000e+001 5.500000e+000
      vertex   6.526848e+000 -2.350000e+001 1.563628e+000
      vertex   6.850664e+000 -2.350000e+001 1.413814e+000
    endloop
  endfacet
  facet normal 0.000000e+000 -1.000000e+000 0.000000e+000
    outer loop
      vertex   -4.467188e+000 -2.350000e+001 6.107280e-001
      vertex   4.865296e+000 -2.350000e+001 1.197893e+000
      vertex   5.149336e+000 -2.350000e+001 1.413814e+000
    endloop
  endfacet
  facet normal 0.000000e+000 -1.000000e+000 0.000000e+000
    outer loop
      vertex   -4.467188e+000 -2.350000e+001 6.107280e-001
      vertex   4.467188e+000 -2.350000e+001 6.107280e-001
      vertex   4.634313e+000 -2.350000e+001 9.259587e-001
    endloop
  endfacet
  facet normal 0.000000e+000 -1.000000e+000 0.000000e+000
    outer loop
      vertex   4.371736e+000 -2.350000e+001 2.669403e-001
      vertex   4.467188e+000 -2.350000e+001 6.107280e-001
      vertex   -4.467188e+000 -2.350000e+001 6.107280e-001
    endloop
  endfacet
  facet normal 0.000000e+000 -1.000000e+000 0.000000e+000
    outer loop
      vertex   -4.542205e+000 -2.350000e+001 -7.728739e-001
      vertex   5.001463e+000 -2.350000e+001 -1.313554e+000
      vertex   4.742433e+000 -2.350000e+001 -1.068187e+000
    endloop
  endfacet
  facet normal 6.979275e-017 -1.000000e+000 9.486499e-016
    outer loop
      vertex   5.307183e+000 -2.350000e+001 -1.497499e+000
      vertex   -4.542205e+000 -2.350000e+001 -7.728739e-001
      vertex   1.000000e+001 -2.350000e+001 -5.500000e+000
    endloop
  endfacet
  facet normal 2.895674e-016 -1.000000e+000 -6.258898e-016
    outer loop
      vertex   -1.000000e+001 -2.350000e+001 5.500000e+000
      vertex   -6.850664e+000 -2.350000e+001 1.413814e+000
      vertex   -6.526848e+000 -2.350000e+001 1.563628e+000
    endloop
  endfacet
  facet normal 1.306531e-015 -1.000000e+000 -7.083806e-017
    outer loop
      vertex   -7.647580e+000 -2.350000e+001 -8.932920e-002
      vertex   -7.628264e+000 -2.350000e+001 2.669403e-001
      vertex   -1.000000e+001 -2.350000e+001 5.500000e+000
    endloop
  endfacet
  facet normal 6.036680e-016 -1.000000e+000 4.092971e-016
    outer loop
      vertex   -1.000000e+001 -2.350000e+001 -5.500000e+000
      vertex   -7.257567e+000 -2.350000e+001 -1.068187e+000
      vertex   -7.457795e+000 -2.350000e+001 -7.728739e-001
    endloop
  endfacet
  facet normal -1.306531e-015 -1.000000e+000 -7.083806e-017
    outer loop
      vertex   1.000000e+001 -2.350000e+001 5.500000e+000
      vertex   7.628264e+000 -2.350000e+001 2.669403e-001
      vertex   7.647580e+000 -2.350000e+001 -8.932920e-002
    endloop
  endfacet
  facet normal -1.624556e-016 -1.000000e+000 -7.380434e-016
    outer loop
      vertex   6.178396e+000 -2.350000e+001 1.640328e+000
      vertex   6.526848e+000 -2.350000e+001 1.563628e+000
      vertex   1.000000e+001 -2.350000e+001 5.500000e+000
    endloop
  endfacet
  facet normal 0.000000e+000 -1.000000e+000 -0.000000e+000
    outer loop
      vertex   -4.410143e+000 -2.350000e+001 -4.414218e-001
      vertex   -4.542205e+000 -2.350000e+001 -7.728739e-001
      vertex   4.410143e+000 -2.350000e+001 -4.414218e-001
    endloop
  endfacet
  facet normal 0.000000e+000 -1.000000e+000 0.000000e+000
    outer loop
      vertex   5.307183e+000 -2.350000e+001 -1.497499e+000
      vertex   5.001463e+000 -2.350000e+001 -1.313554e+000
      vertex   -4.542205e+000 -2.350000e+001 -7.728739e-001
    endloop
  endfacet
  facet normal -1.446719e-016 -1.000000e+000 -3.127032e-016
    outer loop
      vertex   1.000000e+001 -2.350000e+001 5.500000e+000
      vertex   -5.473152e+000 -2.350000e+001 1.563628e+000
      vertex   -5.149336e+000 -2.350000e+001 1.413814e+000
    endloop
  endfacet
  facet normal 4.069913e-016 -1.000000e+000 -5.353879e-016
    outer loop
      vertex   -1.000000e+001 -2.350000e+001 5.500000e+000
      vertex   -7.134704e+000 -2.350000e+001 1.197893e+000
      vertex   -6.850664e+000 -2.350000e+001 1.413814e+000
    endloop
  endfacet
  facet normal 6.857541e-016 -1.000000e+000 -3.635638e-016
    outer loop
      vertex   -1.000000e+001 -2.350000e+001 5.500000e+000
      vertex   -7.532812e+000 -2.350000e+001 6.107280e-001
      vertex   -7.365687e+000 -2.350000e+001 9.259587e-001
    endloop
  endfacet
  facet normal 1.070997e-015 -1.000000e+000 1.755811e-016
    outer loop
      vertex   -1.000000e+001 -2.350000e+001 -5.500000e+000
      vertex   -7.589857e+000 -2.350000e+001 -4.414218e-001
      vertex   -7.647580e+000 -2.350000e+001 -8.932920e-002
    endloop
  endfacet
  facet normal 4.675149e-016 -1.000000e+000 4.935495e-016
    outer loop
      vertex   -1.000000e+001 -2.350000e+001 -5.500000e+000
      vertex   -6.998537e+000 -2.350000e+001 -1.313554e+000
      vertex   -7.257567e+000 -2.350000e+001 -1.068187e+000
    endloop
  endfacet
  facet normal 2.284608e-016 -1.000000e+000 6.780475e-016
    outer loop
      vertex   -1.000000e+001 -2.350000e+001 -5.500000e+000
      vertex   -6.354701e+000 -2.350000e+001 -1.611424e+000
      vertex   -6.692817e+000 -2.350000e+001 -1.497499e+000
    endloop
  endfacet
  facet normal -3.483594e-016 -1.000000e+000 5.789778e-016
    outer loop
      vertex   1.000000e+001 -2.350000e+001 -5.500000e+000
      vertex   6.998537e+000 -2.350000e+001 -1.313554e+000
      vertex   6.692817e+000 -2.350000e+001 -1.497499e+000
    endloop
  endfacet
  facet normal -6.036680e-016 -1.000000e+000 4.092971e-016
    outer loop
      vertex   1.000000e+001 -2.350000e+001 -5.500000e+000
      vertex   7.457795e+000 -2.350000e+001 -7.728739e-001
      vertex   7.257567e+000 -2.350000e+001 -1.068187e+000
    endloop
  endfacet
  facet normal -1.070997e-015 -1.000000e+000 1.755811e-016
    outer loop
      vertex   1.000000e+001 -2.350000e+001 -5.500000e+000
      vertex   7.647580e+000 -2.350000e+001 -8.932920e-002
      vertex   7.589857e+000 -2.350000e+001 -4.414218e-001
    endloop
  endfacet
  facet normal -9.071189e-016 -1.000000e+000 -2.518603e-016
    outer loop
      vertex   1.000000e+001 -2.350000e+001 5.500000e+000
      vertex   7.532812e+000 -2.350000e+001 6.107280e-001
      vertex   7.628264e+000 -2.350000e+001 2.669403e-001
    endloop
  endfacet
  facet normal -0.000000e+000 -1.000000e+000 0.000000e+000
    outer loop
      vertex   4.634313e+000 -2.350000e+001 9.259587e-001
      vertex   4.865296e+000 -2.350000e+001 1.197893e+000
      vertex   -4.467188e+000 -2.350000e+001 6.107280e-001
    endloop
  endfacet
  facet normal 1.104914e-016 -1.000000e+000 1.015951e-015
    outer loop
      vertex   1.000000e+001 -2.350000e+001 -5.500000e+000
      vertex   6.000000e+000 -2.350000e+001 -1.650000e+000
      vertex   5.645299e+000 -2.350000e+001 -1.611424e+000
    endloop
  endfacet
  facet normal 0.000000e+000 -1.000000e+000 -8.813818e-016
    outer loop
      vertex   -5.473152e+000 -2.350000e+001 1.563628e+000
      vertex   1.000000e+001 -2.350000e+001 5.500000e+000
      vertex   -1.000000e+001 -2.350000e+001 5.500000e+000
    endloop
  endfacet
  facet normal 9.071189e-016 -1.000000e+000 -2.518603e-016
    outer loop
      vertex   -7.628264e+000 -2.350000e+001 2.669403e-001
      vertex   -7.532812e+000 -2.350000e+001 6.107280e-001
      vertex   -1.000000e+001 -2.350000e+001 5.500000e+000
    endloop
  endfacet
  facet normal 3.483594e-016 -1.000000e+000 5.789778e-016
    outer loop
      vertex   -6.692817e+000 -2.350000e+001 -1.497499e+000
      vertex   -6.998537e+000 -2.350000e+001 -1.313554e+000
      vertex   -1.000000e+001 -2.350000e+001 -5.500000e+000
    endloop
  endfacet
  facet normal -1.276180e-016 -1.000000e+000 3.787568e-016
    outer loop
      vertex   1.000000e+001 -2.350000e+001 -5.500000e+000
      vertex   -5.307183e+000 -2.350000e+001 -1.497499e+000
      vertex   -5.645299e+000 -2.350000e+001 -1.611424e+000
    endloop
  endfacet
  facet normal -4.675149e-016 -1.000000e+000 4.935495e-016
    outer loop
      vertex   7.257567e+000 -2.350000e+001 -1.068187e+000
      vertex   6.998537e+000 -2.350000e+001 -1.313554e+000
      vertex   1.000000e+001 -2.350000e+001 -5.500000e+000
    endloop
  endfacet
  facet normal -1.474842e-015 -1.000000e+000 0.000000e+000
    outer loop
      vertex   7.647580e+000 -2.350000e+001 -8.932920e-002
      vertex   1.000000e+001 -2.350000e+001 -5.500000e+000
      vertex   1.000000e+001 -2.350000e+001 5.500000e+000
    endloop
  endfacet
  facet normal -5.321614e-016 -1.000000e+000 -4.520220e-016
    outer loop
      vertex   1.000000e+001 -2.350000e+001 5.500000e+000
      vertex   7.134704e+000 -2.350000e+001 1.197893e+000
      vertex   7.365687e+000 -2.350000e+001 9.259587e-001
    endloop
  endfacet
  facet normal 0.000000e+000 -1.000000e+000 0.000000e+000
    outer loop
      vertex   4.542205e+000 -2.350000e+001 -7.728739e-001
      vertex   4.410143e+000 -2.350000e+001 -4.414218e-001
      vertex   -4.542205e+000 -2.350000e+001 -7.728739e-001
    endloop
  endfacet
  facet normal -1.873398e-016 -1.000000e+000 -1.591279e-016
    outer loop
      vertex   1.000000e+001 -2.350000e+001 5.500000e+000
      vertex   -4.865296e+000 -2.350000e+001 1.197893e+000
      vertex   -4.634313e+000 -2.350000e+001 9.259587e-001
    endloop
  endfacet
  facet normal 5.321614e-016 -1.000000e+000 -4.520220e-016
    outer loop
      vertex   -7.365687e+000 -2.350000e+001 9.259587e-001
      vertex   -7.134704e+000 -2.350000e+001 1.197893e+000
      vertex   -1.000000e+001 -2.350000e+001 5.500000e+000
    endloop
  endfacet
  facet normal 8.805666e-017 -1.000000e+000 8.096676e-016
    outer loop
      vertex   -1.000000e+001 -2.350000e+001 -5.500000e+000
      vertex   -6.000000e+000 -2.350000e+001 -1.650000e+000
      vertex   -6.354701e+000 -2.350000e+001 -1.611424e+000
    endloop
  endfacet
  facet normal -1.579938e-016 -1.000000e+000 2.625877e-016
    outer loop
      vertex   1.000000e+001 -2.350000e+001 -5.500000e+000
      vertex   -5.001463e+000 -2.350000e+001 -1.313554e+000
      vertex   -5.307183e+000 -2.350000e+001 -1.497499e+000
    endloop
  endfacet
  facet normal -1.954918e-016 -1.000000e+000 1.325467e-016
    outer loop
      vertex   1.000000e+001 -2.350000e+001 -5.500000e+000
      vertex   -4.542205e+000 -2.350000e+001 -7.728739e-001
      vertex   -4.742433e+000 -2.350000e+001 -1.068187e+000
    endloop
  endfacet
  facet normal -2.284608e-016 -1.000000e+000 6.780475e-016
    outer loop
      vertex   6.692817e+000 -2.350000e+001 -1.497499e+000
      vertex   6.354701e+000 -2.350000e+001 -1.611424e+000
      vertex   1.000000e+001 -2.350000e+001 -5.500000e+000
    endloop
  endfacet
  facet normal -6.857541e-016 -1.000000e+000 -3.635638e-016
    outer loop
      vertex   7.365687e+000 -2.350000e+001 9.259587e-001
      vertex   7.532812e+000 -2.350000e+001 6.107280e-001
      vertex   1.000000e+001 -2.350000e+001 5.500000e+000
    endloop
  endfacet
  facet normal -2.033755e-016 -1.000000e+000 -1.078229e-016
    outer loop
      vertex   -4.634313e+000 -2.350000e+001 9.259587e-001
      vertex   -4.467188e+000 -2.350000e+001 6.107280e-001
      vertex   1.000000e+001 -2.350000e+001 5.500000e+000
    endloop
  endfacet
  facet normal 7.839381e-016 -1.000000e+000 3.123495e-016
    outer loop
      vertex   -7.457795e+000 -2.350000e+001 -7.728739e-001
      vertex   -7.589857e+000 -2.350000e+001 -4.414218e-001
      vertex   -1.000000e+001 -2.350000e+001 -5.500000e+000
    endloop
  endfacet
  facet normal -1.786437e-016 -1.000000e+000 1.885919e-016
    outer loop
      vertex   -4.742433e+000 -2.350000e+001 -1.068187e+000
      vertex   -5.001463e+000 -2.350000e+001 -1.313554e+000
      vertex   1.000000e+001 -2.350000e+001 -5.500000e+000
    endloop
  endfacet
  facet normal -7.839381e-016 -1.000000e+000 3.123495e-016
    outer loop
      vertex   7.589857e+000 -2.350000e+001 -4.414218e-001
      vertex   7.457795e+000 -2.350000e+001 -7.728739e-001
      vertex   1.000000e+001 -2.350000e+001 -5.500000e+000
    endloop
  endfacet
  facet normal -1.690383e-016 -1.000000e+000 -2.223661e-016
    outer loop
      vertex   -5.149336e+000 -2.350000e+001 1.413814e+000
      vertex   -4.865296e+000 -2.350000e+001 1.197893e+000
      vertex   1.000000e+001 -2.350000e+001 5.500000e+000
    endloop
  endfacet
  facet normal 0.000000e+000 -1.000000e+000 8.922153e-016
    outer loop
      vertex   -5.645299e+000 -2.350000e+001 -1.611424e+000
      vertex   -1.000000e+001 -2.350000e+001 -5.500000e+000
      vertex   1.000000e+001 -2.350000e+001 -5.500000e+000
    endloop
  endfacet
  facet normal -4.069913e-016 -1.000000e+000 -5.353879e-016
    outer loop
      vertex   6.850664e+000 -2.350000e+001 1.413814e+000
      vertex   7.134704e+000 -2.350000e+001 1.197893e+000
      vertex   1.000000e+001 -2.350000e+001 5.500000e+000
    endloop
  endfacet
  facet normal -8.805666e-017 -1.000000e+000 8.096676e-016
    outer loop
      vertex   6.354701e+000 -2.350000e+001 -1.611424e+000
      vertex   6.000000e+000 -2.350000e+001 -1.650000e+000
      vertex   1.000000e+001 -2.350000e+001 -5.500000e+000
    endloop
  endfacet
  facet normal -1.104914e-016 -1.000000e+000 1.015951e-015
    outer loop
      vertex   -5.645299e+000 -2.350000e+001 -1.611424e+000
      vertex   -6.000000e+000 -2.350000e+001 -1.650000e+000
      vertex   -1.000000e+001 -2.350000e+001 -5.500000e+000
    endloop
  endfacet
  facet normal 0.000000e+000 1.000000e+000 0.000000e+000
    outer loop
      vertex   4.371736e+000 2.350000e+001 2.669403e-001
      vertex   4.352420e+000 2.350000e+001 -8.932920e-002
      vertex   -4.352420e+000 2.350000e+001 -8.932920e-002
    endloop
  endfacet
  facet normal 0.000000e+000 1.000000e+000 -0.000000e+000
    outer loop
      vertex   -4.352420e+000 2.350000e+001 -8.932920e-002
      vertex   -4.371736e+000 2.350000e+001 2.669403e-001
      vertex   4.371736e+000 2.350000e+001 2.669403e-001
    endloop
  endfacet
  facet normal 0.000000e+000 1.000000e+000 0.000000e+000
    outer loop
      vertex   1.000000e+001 2.350000e+001 -5.500000e+000
      vertex   6.998537e+000 2.350000e+001 -1.313554e+000
      vertex   7.257567e+000 2.350000e+001 -1.068187e+000
    endloop
  endfacet
  facet normal 0.000000e+000 1.000000e+000 0.000000e+000
    outer loop
      vertex   1.000000e+001 2.350000e+001 -5.500000e+000
      vertex   6.354701e+000 2.350000e+001 -1.611424e+000
      vertex   6.692817e+000 2.350000e+001 -1.497499e+000
    endloop
  endfacet
  facet normal -0.000000e+000 1.000000e+000 0.000000e+000
    outer loop
      vertex   -4.467188e+000 2.350000e+001 6.107280e-001
      vertex   4.467188e+000 2.350000e+001 6.107280e-001
      vertex   4.371736e+000 2.350000e+001 2.669403e-001
    endloop
  endfacet
  facet normal 0.000000e+000 1.000000e+000 0.000000e+000
    outer loop
      vertex   1.000000e+001 2.350000e+001 5.500000e+000
      vertex   1.000000e+001 2.350000e+001 -5.500000e+000
      vertex   7.647580e+000 2.350000e+001 -8.932920e-002
    endloop
  endfacet
  facet normal -0.000000e+000 1.000000e+000 0.000000e+000
    outer loop
      vertex   6.692817e+000 2.350000e+001 -1.497499e+000
      vertex   6.998537e+000 2.350000e+001 -1.313554e+000
      vertex   1.000000e+001 2.350000e+001 -5.500000e+000
    endloop
  endfacet
  facet normal 0.000000e+000 1.000000e+000 0.000000e+000
    outer loop
      vertex   1.000000e+001 2.350000e+001 -5.500000e+000
      vertex   5.645299e+000 2.350000e+001 -1.611424e+000
      vertex   6.000000e+000 2.350000e+001 -1.650000e+000
    endloop
  endfacet
  facet normal 0.000000e+000 1.000000e+000 0.000000e+000
    outer loop
      vertex   1.000000e+001 2.350000e+001 -5.500000e+000
      vertex   -4.542205e+000 2.350000e+001 -7.728739e-001
      vertex   5.307183e+000 2.350000e+001 -1.497499e+000
    endloop
  endfacet
  facet normal 0.000000e+000 1.000000e+000 0.000000e+000
    outer loop
      vertex   4.410143e+000 2.350000e+001 -4.414218e-001
      vertex   -4.542205e+000 2.350000e+001 -7.728739e-001
      vertex   -4.410143e+000 2.350000e+001 -4.414218e-001
    endloop
  endfacet
  facet normal 0.000000e+000 1.000000e+000 0.000000e+000
    outer loop
      vertex   4.352420e+000 2.350000e+001 -8.932920e-002
      vertex   -4.410143e+000 2.350000e+001 -4.414218e-001
      vertex   -4.352420e+000 2.350000e+001 -8.932920e-002
    endloop
  endfacet
  facet normal 0.000000e+000 1.000000e+000 0.000000e+000
    outer loop
      vertex   -4.467188e+000 2.350000e+001 6.107280e-001
      vertex   1.000000e+001 2.350000e+001 5.500000e+000
      vertex   5.473152e+000 2.350000e+001 1.563628e+000
    endloop
  endfacet
  facet normal 0.000000e+000 1.000000e+000 0.000000e+000
    outer loop
      vertex   1.000000e+001 2.350000e+001 5.500000e+000
      vertex   6.178396e+000 2.350000e+001 1.640328e+000
      vertex   5.821604e+000 2.350000e+001 1.640328e+000
    endloop
  endfacet
  facet normal 0.000000e+000 1.000000e+000 -0.000000e+000
    outer loop
      vertex   7.647580e+000 2.350000e+001 -8.932920e-002
      vertex   7.628264e+000 2.350000e+001 2.669403e-001
      vertex   1.000000e+001 2.350000e+001 5.500000e+000
    endloop
  endfacet
  facet normal -0.000000e+000 1.000000e+000 0.000000e+000
    outer loop
      vertex   6.000000e+000 2.350000e+001 -1.650000e+000
      vertex   6.354701e+000 2.350000e+001 -1.611424e+000
      vertex   1.000000e+001 2.350000e+001 -5.500000e+000
    endloop
  endfacet
  facet normal 0.000000e+000 1.000000e+000 0.000000e+000
    outer loop
      vertex   -4.542205e+000 2.350000e+001 -7.728739e-001
      vertex   5.001463e+000 2.350000e+001 -1.313554e+000
      vertex   5.307183e+000 2.350000e+001 -1.497499e+000
    endloop
  endfacet
  facet normal -0.000000e+000 1.000000e+000 0.000000e+000
    outer loop
      vertex   -4.542205e+000 2.350000e+001 -7.728739e-001
      vertex   4.410143e+000 2.350000e+001 -4.414218e-001
      vertex   4.542205e+000 2.350000e+001 -7.728739e-001
    endloop
  endfacet
  facet normal 0.000000e+000 1.000000e+000 -0.000000e+000
    outer loop
      vertex   -4.371736e+000 2.350000e+001 2.669403e-001
      vertex   -4.467188e+000 2.350000e+001 6.107280e-001
      vertex   4.371736e+000 2.350000e+001 2.669403e-001
    endloop
  endfacet
  facet normal 0.000000e+000 1.000000e+000 0.000000e+000
    outer loop
      vertex   -4.467188e+000 2.350000e+001 6.107280e-001
      vertex   4.865296e+000 2.350000e+001 1.197893e+000
      vertex   4.634313e+000 2.350000e+001 9.259587e-001
    endloop
  endfacet
  facet normal 0.000000e+000 1.000000e+000 -0.000000e+000
    outer loop
      vertex   5.821604e+000 2.350000e+001 1.640328e+000
      vertex   5.473152e+000 2.350000e+001 1.563628e+000
      vertex   1.000000e+001 2.350000e+001 5.500000e+000
    endloop
  endfacet
  facet normal 0.000000e+000 1.000000e+000 0.000000e+000
    outer loop
      vertex   1.000000e+001 2.350000e+001 -5.500000e+000
      vertex   -1.000000e+001 2.350000e+001 -5.500000e+000
      vertex   -5.645299e+000 2.350000e+001 -1.611424e+000
    endloop
  endfacet
  facet normal 0.000000e+000 1.000000e+000 0.000000e+000
    outer loop
      vertex   1.000000e+001 2.350000e+001 -5.500000e+000
      vertex   7.589857e+000 2.350000e+001 -4.414218e-001
      vertex   7.647580e+000 2.350000e+001 -8.932920e-002
    endloop
  endfacet
  facet normal 0.000000e+000 1.000000e+000 0.000000e+000
    outer loop
      vertex   5.307183e+000 2.350000e+001 -1.497499e+000
      vertex   5.645299e+000 2.350000e+001 -1.611424e+000
      vertex   1.000000e+001 2.350000e+001 -5.500000e+000
    endloop
  endfacet
  facet normal 0.000000e+000 1.000000e+000 0.000000e+000
    outer loop
      vertex   4.542205e+000 2.350000e+001 -7.728739e-001
      vertex   4.742433e+000 2.350000e+001 -1.068187e+000
      vertex   -4.542205e+000 2.350000e+001 -7.728739e-001
    endloop
  endfacet
  facet normal 0.000000e+000 1.000000e+000 0.000000e+000
    outer loop
      vertex   4.634313e+000 2.350000e+001 9.259587e-001
      vertex   4.467188e+000 2.350000e+001 6.107280e-001
      vertex   -4.467188e+000 2.350000e+001 6.107280e-001
    endloop
  endfacet
  facet normal 0.000000e+000 1.000000e+000 0.000000e+000
    outer loop
      vertex   5.473152e+000 2.350000e+001 1.563628e+000
      vertex   5.149336e+000 2.350000e+001 1.413814e+000
      vertex   -4.467188e+000 2.350000e+001 6.107280e-001
    endloop
  endfacet
  facet normal 0.000000e+000 1.000000e+000 0.000000e+000
    outer loop
      vertex   1.000000e+001 2.350000e+001 -5.500000e+000
      vertex   -5.001463e+000 2.350000e+001 -1.313554e+000
      vertex   -4.742433e+000 2.350000e+001 -1.068187e+000
    endloop
  endfacet
  facet normal -0.000000e+000 1.000000e+000 0.000000e+000
    outer loop
      vertex   -5.645299e+000 2.350000e+001 -1.611424e+000
      vertex   -5.307183e+000 2.350000e+001 -1.497499e+000
      vertex   1.000000e+001 2.350000e+001 -5.500000e+000
    endloop
  endfacet
  facet normal 0.000000e+000 1.000000e+000 0.000000e+000
    outer loop
      vertex   -1.000000e+001 2.350000e+001 5.500000e+000
      vertex   -7.628264e+000 2.350000e+001 2.669403e-001
      vertex   -7.647580e+000 2.350000e+001 -8.932920e-002
    endloop
  endfacet
  facet normal 0.000000e+000 1.000000e+000 0.000000e+000
    outer loop
      vertex   1.000000e+001 2.350000e+001 5.500000e+000
      vertex   7.134704e+000 2.350000e+001 1.197893e+000
      vertex   6.850664e+000 2.350000e+001 1.413814e+000
    endloop
  endfacet
  facet normal 0.000000e+000 1.000000e+000 0.000000e+000
    outer loop
      vertex   1.000000e+001 2.350000e+001 5.500000e+000
      vertex   7.532812e+000 2.350000e+001 6.107280e-001
      vertex   7.365687e+000 2.350000e+001 9.259587e-001
    endloop
  endfacet
  facet normal 0.000000e+000 1.000000e+000 0.000000e+000
    outer loop
      vertex   1.000000e+001 2.350000e+001 -5.500000e+000
      vertex   7.457795e+000 2.350000e+001 -7.728739e-001
      vertex   7.589857e+000 2.350000e+001 -4.414218e-001
    endloop
  endfacet
  facet normal 0.000000e+000 1.000000e+000 0.000000e+000
    outer loop
      vertex   4.742433e+000 2.350000e+001 -1.068187e+000
      vertex   5.001463e+000 2.350000e+001 -1.313554e+000
      vertex   -4.542205e+000 2.350000e+001 -7.728739e-001
    endloop
  endfacet
  facet normal 0.000000e+000 1.000000e+000 0.000000e+000
    outer loop
      vertex   5.149336e+000 2.350000e+001 1.413814e+000
      vertex   4.865296e+000 2.350000e+001 1.197893e+000
      vertex   -4.467188e+000 2.350000e+001 6.107280e-001
    endloop
  endfacet
  facet normal -0.000000e+000 1.000000e+000 0.000000e+000
    outer loop
      vertex   -5.307183e+000 2.350000e+001 -1.497499e+000
      vertex   -5.001463e+000 2.350000e+001 -1.313554e+000
      vertex   1.000000e+001 2.350000e+001 -5.500000e+000
    endloop
  endfacet
  facet normal 0.000000e+000 1.000000e+000 0.000000e+000
    outer loop
      vertex   -1.000000e+001 2.350000e+001 -5.500000e+000
      vertex   -6.354701e+000 2.350000e+001 -1.611424e+000
      vertex   -6.000000e+000 2.350000e+001 -1.650000e+000
    endloop
  endfacet
  facet normal 0.000000e+000 1.000000e+000 0.000000e+000
    outer loop
      vertex   -1.000000e+001 2.350000e+001 5.500000e+000
      vertex   -7.532812e+000 2.350000e+001 6.107280e-001
      vertex   -7.628264e+000 2.350000e+001 2.669403e-001
    endloop
  endfacet
  facet normal 0.000000e+000 1.000000e+000 0.000000e+000
    outer loop
      vertex   -1.000000e+001 2.350000e+001 5.500000e+000
      vertex   -5.821604e+000 2.350000e+001 1.640328e+000
      vertex   -6.178396e+000 2.350000e+001 1.640328e+000
    endloop
  endfacet
  facet normal 0.000000e+000 1.000000e+000 -0.000000e+000
    outer loop
      vertex   6.850664e+000 2.350000e+001 1.413814e+000
      vertex   6.526848e+000 2.350000e+001 1.563628e+000
      vertex   1.000000e+001 2.350000e+001 5.500000e+000
    endloop
  endfacet
  facet normal 0.000000e+000 1.000000e+000 -0.000000e+000
    outer loop
      vertex   7.628264e+000 2.350000e+001 2.669403e-001
      vertex   7.532812e+000 2.350000e+001 6.107280e-001
      vertex   1.000000e+001 2.350000e+001 5.500000e+000
    endloop
  endfacet
  facet normal 0.000000e+000 1.000000e+000 0.000000e+000
    outer loop
      vertex   1.000000e+001 2.350000e+001 5.500000e+000
      vertex   -4.467188e+000 2.350000e+001 6.107280e-001
      vertex   -4.634313e+000 2.350000e+001 9.259587e-001
    endloop
  endfacet
  facet normal -0.000000e+000 1.000000e+000 0.000000e+000
    outer loop
      vertex   -4.410143e+000 2.350000e+001 -4.414218e-001
      vertex   4.352420e+000 2.350000e+001 -8.932920e-002
      vertex   4.410143e+000 2.350000e+001 -4.414218e-001
    endloop
  endfacet
  facet normal -0.000000e+000 1.000000e+000 0.000000e+000
    outer loop
      vertex   -6.000000e+000 2.350000e+001 -1.650000e+000
      vertex   -5.645299e+000 2.350000e+001 -1.611424e+000
      vertex   -1.000000e+001 2.350000e+001 -5.500000e+000
    endloop
  endfacet
  facet normal 0.000000e+000 1.000000e+000 0.000000e+000
    outer loop
      vertex   -1.000000e+001 2.350000e+001 -5.500000e+000
      vertex   -6.998537e+000 2.350000e+001 -1.313554e+000
      vertex   -6.692817e+000 2.350000e+001 -1.497499e+000
    endloop
  endfacet
  facet normal 0.000000e+000 1.000000e+000 0.000000e+000
    outer loop
      vertex   -1.000000e+001 2.350000e+001 -5.500000e+000
      vertex   -7.589857e+000 2.350000e+001 -4.414218e-001
      vertex   -7.457795e+000 2.350000e+001 -7.728739e-001
    endloop
  endfacet
  facet normal 0.000000e+000 1.000000e+000 0.000000e+000
    outer loop
      vertex   -7.647580e+000 2.350000e+001 -8.932920e-002
      vertex   -1.000000e+001 2.350000e+001 -5.500000e+000
      vertex   -1.000000e+001 2.350000e+001 5.500000e+000
    endloop
  endfacet
  facet normal 0.000000e+000 1.000000e+000 0.000000e+000
    outer loop
      vertex   -1.000000e+001 2.350000e+001 5.500000e+000
      vertex   -7.134704e+000 2.350000e+001 1.197893e+000
      vertex   -7.365687e+000 2.350000e+001 9.259587e-001
    endloop
  endfacet
  facet normal 0.000000e+000 1.000000e+000 0.000000e+000
    outer loop
      vertex   -6.178396e+000 2.350000e+001 1.640328e+000
      vertex   -6.526848e+000 2.350000e+001 1.563628e+000
      vertex   -1.000000e+001 2.350000e+001 5.500000e+000
    endloop
  endfacet
  facet normal -0.000000e+000 1.000000e+000 0.000000e+000
    outer loop
      vertex   -1.000000e+001 2.350000e+001 5.500000e+000
      vertex   1.000000e+001 2.350000e+001 5.500000e+000
      vertex   -5.473152e+000 2.350000e+001 1.563628e+000
    endloop
  endfacet
  facet normal 0.000000e+000 1.000000e+000 0.000000e+000
    outer loop
      vertex   1.000000e+001 2.350000e+001 5.500000e+000
      vertex   -4.865296e+000 2.350000e+001 1.197893e+000
      vertex   -5.149336e+000 2.350000e+001 1.413814e+000
    endloop
  endfacet
  facet normal 0.000000e+000 1.000000e+000 -0.000000e+000
    outer loop
      vertex   7.365687e+000 2.350000e+001 9.259587e-001
      vertex   7.134704e+000 2.350000e+001 1.197893e+000
      vertex   1.000000e+001 2.350000e+001 5.500000e+000
    endloop
  endfacet
  facet normal -0.000000e+000 1.000000e+000 0.000000e+000
    outer loop
      vertex   7.257567e+000 2.350000e+001 -1.068187e+000
      vertex   7.457795e+000 2.350000e+001 -7.728739e-001
      vertex   1.000000e+001 2.350000e+001 -5.500000e+000
    endloop
  endfacet
  facet normal 0.000000e+000 1.000000e+000 0.000000e+000
    outer loop
      vertex   -6.692817e+000 2.350000e+001 -1.497499e+000
      vertex   -6.354701e+000 2.350000e+001 -1.611424e+000
      vertex   -1.000000e+001 2.350000e+001 -5.500000e+000
    endloop
  endfacet
  facet normal 0.000000e+000 1.000000e+000 0.000000e+000
    outer loop
      vertex   -7.457795e+000 2.350000e+001 -7.728739e-001
      vertex   -7.257567e+000 2.350000e+001 -1.068187e+000
      vertex   -1.000000e+001 2.350000e+001 -5.500000e+000
    endloop
  endfacet
  facet normal 0.000000e+000 1.000000e+000 0.000000e+000
    outer loop
      vertex   -7.365687e+000 2.350000e+001 9.259587e-001
      vertex   -7.532812e+000 2.350000e+001 6.107280e-001
      vertex   -1.000000e+001 2.350000e+001 5.500000e+000
    endloop
  endfacet
  facet normal 0.000000e+000 1.000000e+000 0.000000e+000
    outer loop
      vertex   -6.526848e+000 2.350000e+001 1.563628e+000
      vertex   -6.850664e+000 2.350000e+001 1.413814e+000
      vertex   -1.000000e+001 2.350000e+001 5.500000e+000
    endloop
  endfacet
  facet normal 0.000000e+000 1.000000e+000 -0.000000e+000
    outer loop
      vertex   -5.149336e+000 2.350000e+001 1.413814e+000
      vertex   -5.473152e+000 2.350000e+001 1.563628e+000
      vertex   1.000000e+001 2.350000e+001 5.500000e+000
    endloop
  endfacet
  facet normal 0.000000e+000 1.000000e+000 -0.000000e+000
    outer loop
      vertex   -4.634313e+000 2.350000e+001 9.259587e-001
      vertex   -4.865296e+000 2.350000e+001 1.197893e+000
      vertex   1.000000e+001 2.350000e+001 5.500000e+000
    endloop
  endfacet
  facet normal 0.000000e+000 1.000000e+000 0.000000e+000
    outer loop
      vertex   -7.257567e+000 2.350000e+001 -1.068187e+000
      vertex   -6.998537e+000 2.350000e+001 -1.313554e+000
      vertex   -1.000000e+001 2.350000e+001 -5.500000e+000
    endloop
  endfacet
  facet normal 0.000000e+000 1.000000e+000 0.000000e+000
    outer loop
      vertex   -6.850664e+000 2.350000e+001 1.413814e+000
      vertex   -7.134704e+000 2.350000e+001 1.197893e+000
      vertex   -1.000000e+001 2.350000e+001 5.500000e+000
    endloop
  endfacet
  facet normal 0.000000e+000 1.000000e+000 -0.000000e+000
    outer loop
      vertex   6.526848e+000 2.350000e+001 1.563628e+000
      vertex   6.178396e+000 2.350000e+001 1.640328e+000
      vertex   1.000000e+001 2.350000e+001 5.500000e+000
    endloop
  endfacet
  facet normal 0.000000e+000 1.000000e+000 0.000000e+000
    outer loop
      vertex   -7.647580e+000 2.350000e+001 -8.932920e-002
      vertex   -7.589857e+000 2.350000e+001 -4.414218e-001
      vertex   -1.000000e+001 2.350000e+001 -5.500000e+000
    endloop
  endfacet
  facet normal -0.000000e+000 1.000000e+000 0.000000e+000
    outer loop
      vertex   -4.742433e+000 2.350000e+001 -1.068187e+000
      vertex   -4.542205e+000 2.350000e+001 -7.728739e-001
      vertex   1.000000e+001 2.350000e+001 -5.500000e+000
    endloop
  endfacet
  facet normal 0.000000e+000 1.000000e+000 0.000000e+000
    outer loop
      vertex   -5.473152e+000 2.350000e+001 1.563628e+000
      vertex   -5.821604e+000 2.350000e+001 1.640328e+000
      vertex   -1.000000e+001 2.350000e+001 5.500000e+000
    endloop
  endfacet
  facet normal 0.000000e+000 -0.000000e+000 1.000000e+000
    outer loop
      vertex   1.000000e+001 -2.350000e+001 5.500000e+000
      vertex   1.000000e+001 2.350000e+001 5.500000e+000
      vertex   -1.000000e+001 2.350000e+001 5.500000e+000
    endloop
  endfacet
  facet normal 0.000000e+000 0.000000e+000 1.000000e+000
    outer loop
      vertex   -1.000000e+001 2.350000e+001 5.500000e+000
      vertex   -1.000000e+001 -2.350000e+001 5.500000e+000
      vertex   1.000000e+001 -2.350000e+001 5.500000e+000
    endloop
  endfacet
  facet normal -1.000000e+000 0.000000e+000 0.000000e+000
    outer loop
      vertex   -1.000000e+001 -2.350000e+001 5.500000e+000
      vertex   -1.000000e+001 2.350000e+001 5.500000e+000
      vertex   -1.000000e+001 2.350000e+001 -5.500000e+000
    endloop
  endfacet
  facet normal -1.000000e+000 0.000000e+000 0.000000e+000
    outer loop
      vertex   -1.000000e+001 2.350000e+001 -5.500000e+000
      vertex   -1.000000e+001 -2.350000e+001 -5.500000e+000
      vertex   -1.000000e+001 -2.350000e+001 5.500000e+000
    endloop
  endfacet
  facet normal 0.000000e+000 0.000000e+000 -1.000000e+000
    outer loop
      vertex   -1.000000e+001 -2.350000e+001 -5.500000e+000
      vertex   -1.000000e+001 2.350000e+001 -5.500000e+000
      vertex   1.000000e+001 2.350000e+001 -5.500000e+000
    endloop
  endfacet
  facet normal 0.000000e+000 -0.000000e+000 -1.000000e+000
    outer loop
      vertex   1.000000e+001 2.350000e+001 -5.500000e+000
      vertex   1.000000e+001 -2.350000e+001 -5.500000e+000
      vertex   -1.000000e+001 -2.350000e+001 -5.500000e+000
    endloop
  endfacet
  facet normal 1.000000e+000 0.000000e+000 0.000000e+000
    outer loop
      vertex   1.000000e+001 -2.350000e+001 -5.500000e+000
      vertex   1.000000e+001 2.350000e+001 -5.500000e+000
      vertex   1.000000e+001 2.350000e+001 5.500000e+000
    endloop
  endfacet
  facet normal 1.000000e+000 0.000000e+000 0.000000e+000
    outer loop
      vertex   1.000000e+001 2.350000e+001 5.500000e+000
      vertex   1.000000e+001 -2.350000e+001 5.500000e+000
      vertex   1.000000e+001 -2.350000e+001 -5.500000e+000
    endloop
  endfacet
  facet normal 1.081190e-001 0.000000e+000 9.941380e-001
    outer loop
      vertex   5.645299e+000 -2.350000e+001 -1.611424e+000
      vertex   6.000000e+000 -2.350000e+001 -1.650000e+000
      vertex   6.000000e+000 2.350000e+001 -1.650000e+000
    endloop
  endfacet
  facet normal 3.193015e-001 0.000000e+000 9.476532e-001
    outer loop
      vertex   5.307183e+000 -2.350000e+001 -1.497499e+000
      vertex   5.645299e+000 -2.350000e+001 -1.611424e+000
      vertex   5.645299e+000 2.350000e+001 -1.611424e+000
    endloop
  endfacet
  facet normal 5.155539e-001 0.000000e+000 8.568572e-001
    outer loop
      vertex   5.001463e+000 -2.350000e+001 -1.313554e+000
      vertex   5.307183e+000 -2.350000e+001 -1.497499e+000
      vertex   5.307183e+000 2.350000e+001 -1.497499e+000
    endloop
  endfacet
  facet normal 6.876995e-001 0.000000e+000 7.259955e-001
    outer loop
      vertex   4.742433e+000 -2.350000e+001 -1.068187e+000
      vertex   5.001463e+000 -2.350000e+001 -1.313554e+000
      vertex   5.001463e+000 2.350000e+001 -1.313554e+000
    endloop
  endfacet
  facet normal 8.276890e-001 0.000000e+000 5.611871e-001
    outer loop
      vertex   4.542205e+000 -2.350000e+001 -7.728739e-001
      vertex   4.742433e+000 -2.350000e+001 -1.068187e+000
      vertex   4.742433e+000 2.350000e+001 -1.068187e+000
    endloop
  endfacet
  facet normal 9.289767e-001 0.000000e+000 3.701382e-001
    outer loop
      vertex   4.410143e+000 -2.350000e+001 -4.414218e-001
      vertex   4.542205e+000 -2.350000e+001 -7.728739e-001
      vertex   4.542205e+000 2.350000e+001 -7.728739e-001
    endloop
  endfacet
  facet normal 9.868265e-001 0.000000e+000 1.617820e-001
    outer loop
      vertex   4.352420e+000 -2.350000e+001 -8.932920e-002
      vertex   4.410143e+000 -2.350000e+001 -4.414218e-001
      vertex   4.410143e+000 2.350000e+001 -4.414218e-001
    endloop
  endfacet
  facet normal 9.967012e-001 0.000000e+000 -8.115873e-002
    outer loop
      vertex   4.371736e+000 2.350000e+001 2.669403e-001
      vertex   4.371736e+000 -2.350000e+001 2.669403e-001
      vertex   4.350000e+000 -2.350000e+001 7.072335e-016
    endloop
  endfacet
  facet normal 9.985334e-001 -1.543086e-004 -5.413891e-002
    outer loop
      vertex   4.350000e+000 -2.350000e+001 7.072335e-016
      vertex   4.352420e+000 2.350000e+001 -8.932920e-002
      vertex   4.371736e+000 2.350000e+001 2.669403e-001
    endloop
  endfacet
  facet normal 9.635500e-001 0.000000e+000 -2.675283e-001
    outer loop
      vertex   4.467188e+000 -2.350000e+001 6.107280e-001
      vertex   4.371736e+000 -2.350000e+001 2.669403e-001
      vertex   4.371736e+000 2.350000e+001 2.669403e-001
    endloop
  endfacet
  facet normal 8.835120e-001 0.000000e+000 -4.684084e-001
    outer loop
      vertex   4.634313e+000 -2.350000e+001 9.259587e-001
      vertex   4.467188e+000 -2.350000e+001 6.107280e-001
      vertex   4.467188e+000 2.350000e+001 6.107280e-001
    endloop
  endfacet
  facet normal 7.621621e-001 0.000000e+000 -6.473863e-001
    outer loop
      vertex   4.865296e+000 -2.350000e+001 1.197893e+000
      vertex   4.634313e+000 -2.350000e+001 9.259587e-001
      vertex   4.634313e+000 2.350000e+001 9.259587e-001
    endloop
  endfacet
  facet normal 6.051742e-001 0.000000e+000 -7.960931e-001
    outer loop
      vertex   5.149336e+000 -2.350000e+001 1.413814e+000
      vertex   4.865296e+000 -2.350000e+001 1.197893e+000
      vertex   4.865296e+000 2.350000e+001 1.197893e+000
    endloop
  endfacet
  facet normal 4.198891e-001 0.000000e+000 -9.075754e-001
    outer loop
      vertex   5.473152e+000 -2.350000e+001 1.563628e+000
      vertex   5.149336e+000 -2.350000e+001 1.413814e+000
      vertex   5.149336e+000 2.350000e+001 1.413814e+000
    endloop
  endfacet
  facet normal 2.149704e-001 0.000000e+000 -9.766206e-001
    outer loop
      vertex   5.821604e+000 -2.350000e+001 1.640328e+000
      vertex   5.473152e+000 -2.350000e+001 1.563628e+000
      vertex   5.473152e+000 2.350000e+001 1.563628e+000
    endloop
  endfacet
  facet normal 0.000000e+000 0.000000e+000 -1.000000e+000
    outer loop
      vertex   6.178396e+000 -2.350000e+001 1.640328e+000
      vertex   5.821604e+000 -2.350000e+001 1.640328e+000
      vertex   5.821604e+000 2.350000e+001 1.640328e+000
    endloop
  endfacet
  facet normal -2.149704e-001 0.000000e+000 -9.766206e-001
    outer loop
      vertex   6.526848e+000 -2.350000e+001 1.563628e+000
      vertex   6.178396e+000 -2.350000e+001 1.640328e+000
      vertex   6.178396e+000 2.350000e+001 1.640328e+000
    endloop
  endfacet
  facet normal -4.198891e-001 0.000000e+000 -9.075754e-001
    outer loop
      vertex   6.850664e+000 -2.350000e+001 1.413814e+000
      vertex   6.526848e+000 -2.350000e+001 1.563628e+000
      vertex   6.526848e+000 2.350000e+001 1.563628e+000
    endloop
  endfacet
  facet normal -6.051742e-001 0.000000e+000 -7.960931e-001
    outer loop
      vertex   7.134704e+000 -2.350000e+001 1.197893e+000
      vertex   6.850664e+000 -2.350000e+001 1.413814e+000
      vertex   6.850664e+000 2.350000e+001 1.413814e+000
    endloop
  endfacet
  facet normal -7.621621e-001 0.000000e+000 -6.473863e-001
    outer loop
      vertex   7.365687e+000 -2.350000e+001 9.259587e-001
      vertex   7.134704e+000 -2.350000e+001 1.197893e+000
      vertex   7.134704e+000 2.350000e+001 1.197893e+000
    endloop
  endfacet
  facet normal -8.835120e-001 0.000000e+000 -4.684084e-001
    outer loop
      vertex   7.532812e+000 -2.350000e+001 6.107280e-001
      vertex   7.365687e+000 -2.350000e+001 9.259587e-001
      vertex   7.365687e+000 2.350000e+001 9.259587e-001
    endloop
  endfacet
  facet normal -9.635500e-001 0.000000e+000 -2.675283e-001
    outer loop
      vertex   7.628264e+000 -2.350000e+001 2.669403e-001
      vertex   7.532812e+000 -2.350000e+001 6.107280e-001
      vertex   7.532812e+000 2.350000e+001 6.107280e-001
    endloop
  endfacet
  facet normal -9.985334e-001 0.000000e+000 -5.413891e-002
    outer loop
      vertex   7.647580e+000 -2.350000e+001 -8.932920e-002
      vertex   7.628264e+000 -2.350000e+001 2.669403e-001
      vertex   7.628264e+000 2.350000e+001 2.669403e-001
    endloop
  endfacet
  facet normal -9.868265e-001 0.000000e+000 1.617820e-001
    outer loop
      vertex   7.589857e+000 -2.350000e+001 -4.414218e-001
      vertex   7.647580e+000 -2.350000e+001 -8.932920e-002
      vertex   7.647580e+000 2.350000e+001 -8.932920e-002
    endloop
  endfacet
  facet normal -9.289767e-001 0.000000e+000 3.701382e-001
    outer loop
      vertex   7.457795e+000 -2.350000e+001 -7.728739e-001
      vertex   7.589857e+000 -2.350000e+001 -4.414218e-001
      vertex   7.589857e+000 2.350000e+001 -4.414218e-001
    endloop
  endfacet
  facet normal -8.276890e-001 0.000000e+000 5.611871e-001
    outer loop
      vertex   7.257567e+000 -2.350000e+001 -1.068187e+000
      vertex   7.457795e+000 -2.350000e+001 -7.728739e-001
      vertex   7.457795e+000 2.350000e+001 -7.728739e-001
    endloop
  endfacet
  facet normal -6.876995e-001 0.000000e+000 7.259955e-001
    outer loop
      vertex   6.998537e+000 -2.350000e+001 -1.313554e+000
      vertex   7.257567e+000 -2.350000e+001 -1.068187e+000
      vertex   7.257567e+000 2.350000e+001 -1.068187e+000
    endloop
  endfacet
  facet normal -5.155539e-001 0.000000e+000 8.568572e-001
    outer loop
      vertex   6.692817e+000 -2.350000e+001 -1.497499e+000
      vertex   6.998537e+000 -2.350000e+001 -1.313554e+000
      vertex   6.998537e+000 2.350000e+001 -1.313554e+000
    endloop
  endfacet
  facet normal -3.193015e-001 0.000000e+000 9.476532e-001
    outer loop
      vertex   6.354701e+000 -2.350000e+001 -1.611424e+000
      vertex   6.692817e+000 -2.350000e+001 -1.497499e+000
      vertex   6.692817e+000 2.350000e+001 -1.497499e+000
    endloop
  endfacet
  facet normal -1.081190e-001 0.000000e+000 9.941380e-001
    outer loop
      vertex   6.000000e+000 -2.350000e+001 -1.650000e+000
      vertex   6.354701e+000 -2.350000e+001 -1.611424e+000
      vertex   6.354701e+000 2.350000e+001 -1.611424e+000
    endloop
  endfacet
  facet normal -1.081190e-001 0.000000e+000 9.941380e-001
    outer loop
      vertex   6.354701e+000 2.350000e+001 -1.611424e+000
      vertex   6.000000e+000 2.350000e+001 -1.650000e+000
      vertex   6.000000e+000 -2.350000e+001 -1.650000e+000
    endloop
  endfacet
  facet normal -3.193015e-001 0.000000e+000 9.476532e-001
    outer loop
      vertex   6.692817e+000 2.350000e+001 -1.497499e+000
      vertex   6.354701e+000 2.350000e+001 -1.611424e+000
      vertex   6.354701e+000 -2.350000e+001 -1.611424e+000
    endloop
  endfacet
  facet normal -5.155539e-001 0.000000e+000 8.568572e-001
    outer loop
      vertex   6.998537e+000 2.350000e+001 -1.313554e+000
      vertex   6.692817e+000 2.350000e+001 -1.497499e+000
      vertex   6.692817e+000 -2.350000e+001 -1.497499e+000
    endloop
  endfacet
  facet normal -6.876995e-001 0.000000e+000 7.259955e-001
    outer loop
      vertex   7.257567e+000 2.350000e+001 -1.068187e+000
      vertex   6.998537e+000 2.350000e+001 -1.313554e+000
      vertex   6.998537e+000 -2.350000e+001 -1.313554e+000
    endloop
  endfacet
  facet normal -8.276890e-001 0.000000e+000 5.611871e-001
    outer loop
      vertex   7.457795e+000 2.350000e+001 -7.728739e-001
      vertex   7.257567e+000 2.350000e+001 -1.068187e+000
      vertex   7.257567e+000 -2.350000e+001 -1.068187e+000
    endloop
  endfacet
  facet normal -9.289767e-001 0.000000e+000 3.701382e-001
    outer loop
      vertex   7.589857e+000 2.350000e+001 -4.414218e-001
      vertex   7.457795e+000 2.350000e+001 -7.728739e-001
      vertex   7.457795e+000 -2.350000e+001 -7.728739e-001
    endloop
  endfacet
  facet normal -9.868265e-001 0.000000e+000 1.617820e-001
    outer loop
      vertex   7.647580e+000 2.350000e+001 -8.932920e-002
      vertex   7.589857e+000 2.350000e+001 -4.414218e-001
      vertex   7.589857e+000 -2.350000e+001 -4.414218e-001
    endloop
  endfacet
  facet normal -9.985334e-001 0.000000e+000 -5.413891e-002
    outer loop
      vertex   7.628264e+000 2.350000e+001 2.669403e-001
      vertex   7.647580e+000 2.350000e+001 -8.932920e-002
      vertex   7.647580e+000 -2.350000e+001 -8.932920e-002
    endloop
  endfacet
  facet normal -9.635500e-001 0.000000e+000 -2.675283e-001
    outer loop
      vertex   7.532812e+000 2.350000e+001 6.107280e-001
      vertex   7.628264e+000 2.350000e+001 2.669403e-001
      vertex   7.628264e+000 -2.350000e+001 2.669403e-001
    endloop
  endfacet
  facet normal -8.835120e-001 0.000000e+000 -4.684084e-001
    outer loop
      vertex   7.365687e+000 2.350000e+001 9.259587e-001
      vertex   7.532812e+000 2.350000e+001 6.107280e-001
      vertex   7.532812e+000 -2.350000e+001 6.107280e-001
    endloop
  endfacet
  facet normal -7.621621e-001 0.000000e+000 -6.473863e-001
    outer loop
      vertex   7.134704e+000 2.350000e+001 1.197893e+000
      vertex   7.365687e+000 2.350000e+001 9.259587e-001
      vertex   7.365687e+000 -2.350000e+001 9.259587e-001
    endloop
  endfacet
  facet normal -6.051742e-001 0.000000e+000 -7.960931e-001
    outer loop
      vertex   6.850664e+000 2.350000e+001 1.413814e+000
      vertex   7.134704e+000 2.350000e+001 1.197893e+000
      vertex   7.134704e+000 -2.350000e+001 1.197893e+000
    endloop
  endfacet
  facet normal -4.198891e-001 0.000000e+000 -9.075754e-001
    outer loop
      vertex   6.526848e+000 2.350000e+001 1.563628e+000
      vertex   6.850664e+000 2.350000e+001 1.413814e+000
      vertex   6.850664e+000 -2.350000e+001 1.413814e+000
    endloop
  endfacet
  facet normal -2.149704e-001 0.000000e+000 -9.766206e-001
    outer loop
      vertex   6.178396e+000 2.350000e+001 1.640328e+000
      vertex   6.526848e+000 2.350000e+001 1.563628e+000
      vertex   6.526848e+000 -2.350000e+001 1.563628e+000
    endloop
  endfacet
  facet normal 0.000000e+000 0.000000e+000 -1.000000e+000
    outer loop
      vertex   5.821604e+000 2.350000e+001 1.640328e+000
      vertex   6.178396e+000 2.350000e+001 1.640328e+000
      vertex   6.178396e+000 -2.350000e+001 1.640328e+000
    endloop
  endfacet
  facet normal 2.149704e-001 0.000000e+000 -9.766206e-001
    outer loop
      vertex   5.473152e+000 2.350000e+001 1.563628e+000
      vertex   5.821604e+000 2.350000e+001 1.640328e+000
      vertex   5.821604e+000 -2.350000e+001 1.640328e+000
    endloop
  endfacet
  facet normal 4.198891e-001 0.000000e+000 -9.075754e-001
    outer loop
      vertex   5.149336e+000 2.350000e+001 1.413814e+000
      vertex   5.473152e+000 2.350000e+001 1.563628e+000
      vertex   5.473152e+000 -2.350000e+001 1.563628e+000
    endloop
  endfacet
  facet normal 6.051742e-001 0.000000e+000 -7.960931e-001
    outer loop
      vertex   4.865296e+000 2.350000e+001 1.197893e+000
      vertex   5.149336e+000 2.350000e+001 1.413814e+000
      vertex   5.149336e+000 -2.350000e+001 1.413814e+000
    endloop
  endfacet
  facet normal 7.621621e-001 0.000000e+000 -6.473863e-001
    outer loop
      vertex   4.634313e+000 2.350000e+001 9.259587e-001
      vertex   4.865296e+000 2.350000e+001 1.197893e+000
      vertex   4.865296e+000 -2.350000e+001 1.197893e+000
    endloop
  endfacet
  facet normal 8.835120e-001 0.000000e+000 -4.684084e-001
    outer loop
      vertex   4.467188e+000 2.350000e+001 6.107280e-001
      vertex   4.634313e+000 2.350000e+001 9.259587e-001
      vertex   4.634313e+000 -2.350000e+001 9.259587e-001
    endloop
  endfacet
  facet normal 9.635500e-001 0.000000e+000 -2.675283e-001
    outer loop
      vertex   4.371736e+000 2.350000e+001 2.669403e-001
      vertex   4.467188e+000 2.350000e+001 6.107280e-001
      vertex   4.467188e+000 -2.350000e+001 6.107280e-001
    endloop
  endfacet
  facet normal 9.996333e-001 0.000000e+000 2.707938e-002
    outer loop
      vertex   4.350000e+000 -2.350000e+001 7.072335e-016
      vertex   4.352420e+000 -2.350000e+001 -8.932920e-002
      vertex   4.352420e+000 2.350000e+001 -8.932920e-002
    endloop
  endfacet
  facet normal 9.868265e-001 0.000000e+000 1.617820e-001
    outer loop
      vertex   4.410143e+000 2.350000e+001 -4.414218e-001
      vertex   4.352420e+000 2.350000e+001 -8.932920e-002
      vertex   4.352420e+000 -2.350000e+001 -8.932920e-002
    endloop
  endfacet
  facet normal 9.289767e-001 0.000000e+000 3.701382e-001
    outer loop
      vertex   4.542205e+000 2.350000e+001 -7.728739e-001
      vertex   4.410143e+000 2.350000e+001 -4.414218e-001
      vertex   4.410143e+000 -2.350000e+001 -4.414218e-001
    endloop
  endfacet
  facet normal 8.276890e-001 0.000000e+000 5.611871e-001
    outer loop
      vertex   4.742433e+000 2.350000e+001 -1.068187e+000
      vertex   4.542205e+000 2.350000e+001 -7.728739e-001
      vertex   4.542205e+000 -2.350000e+001 -7.728739e-001
    endloop
  endfacet
  facet normal 6.876995e-001 0.000000e+000 7.259955e-001
    outer loop
      vertex   5.001463e+000 2.350000e+001 -1.313554e+000
      vertex   4.742433e+000 2.350000e+001 -1.068187e+000
      vertex   4.742433e+000 -2.350000e+001 -1.068187e+000
    endloop
  endfacet
  facet normal 5.155539e-001 0.000000e+000 8.568572e-001
    outer loop
      vertex   5.307183e+000 2.350000e+001 -1.497499e+000
      vertex   5.001463e+000 2.350000e+001 -1.313554e+000
      vertex   5.001463e+000 -2.350000e+001 -1.313554e+000
    endloop
  endfacet
  facet normal 3.193015e-001 0.000000e+000 9.476532e-001
    outer loop
      vertex   5.645299e+000 2.350000e+001 -1.611424e+000
      vertex   5.307183e+000 2.350000e+001 -1.497499e+000
      vertex   5.307183e+000 -2.350000e+001 -1.497499e+000
    endloop
  endfacet
  facet normal 1.081190e-001 0.000000e+000 9.941380e-001
    outer loop
      vertex   6.000000e+000 2.350000e+001 -1.650000e+000
      vertex   5.645299e+000 2.350000e+001 -1.611424e+000
      vertex   5.645299e+000 -2.350000e+001 -1.611424e+000
    endloop
  endfacet
endsolid
