solid OpenSCAD_Model
  facet normal -1 0 0
    outer loop
      vertex -6 -18 0
      vertex -6 -18 4.8
      vertex -6 51 0
    endloop
  endfacet
  facet normal -1 0 0
    outer loop
      vertex -6 51 0
      vertex -6 -18 4.8
      vertex -6 51 4.8
    endloop
  endfacet
  facet normal -0.994522 -0.104528 0
    outer loop
      vertex -6 -18 0
      vertex -5.86889 -19.2475 0
      vertex -6 -18 4.8
    endloop
  endfacet
  facet normal -0.994522 -0.104528 0
    outer loop
      vertex -6 -18 4.8
      vertex -5.86889 -19.2475 0
      vertex -5.86889 -19.2475 4.8
    endloop
  endfacet
  facet normal 0 0 -1
    outer loop
      vertex -6 -18 0
      vertex -6 51 0
      vertex -5.86889 -19.2475 0
    endloop
  endfacet
  facet normal 0 0 -1
    outer loop
      vertex -5.86889 -19.2475 0
      vertex -6 51 0
      vertex -5.86889 52.2475 0
    endloop
  endfacet
  facet normal 0 0 -1
    outer loop
      vertex -5.86889 -19.2475 0
      vertex -5.86889 52.2475 0
      vertex -5.48127 53.4404 0
    endloop
  endfacet
  facet normal 0 0 -1
    outer loop
      vertex -5.86889 -19.2475 0
      vertex -5.48127 53.4404 0
      vertex -4.8541 54.5267 0
    endloop
  endfacet
  facet normal 0 0 -1
    outer loop
      vertex -5.86889 -19.2475 0
      vertex -4.8541 54.5267 0
      vertex -4.01478 55.4589 0
    endloop
  endfacet
  facet normal 0 0 -1
    outer loop
      vertex -5.86889 -19.2475 0
      vertex -4.01478 55.4589 0
      vertex -3 56.1962 0
    endloop
  endfacet
  facet normal 0 0 -1
    outer loop
      vertex -5.86889 -19.2475 0
      vertex -3 56.1962 0
      vertex -1.8541 56.7063 0
    endloop
  endfacet
  facet normal 0 0 -1
    outer loop
      vertex -1.82709 51.8135 0
      vertex -1.8541 56.7063 0
      vertex -0.627171 56.9671 0
    endloop
  endfacet
  facet normal 0 0 -1
    outer loop
      vertex -0.618034 52.9021 0
      vertex -0.627171 56.9671 0
      vertex 0.627171 56.9671 0
    endloop
  endfacet
  facet normal 0 0 -1
    outer loop
      vertex 1 52.7321 0
      vertex 0.627171 56.9671 0
      vertex 1.8541 56.7063 0
    endloop
  endfacet
  facet normal 0 0 -1
    outer loop
      vertex 1.82709 51.8135 0
      vertex 1.8541 56.7063 0
      vertex 3 56.1962 0
    endloop
  endfacet
  facet normal 0 0 -1
    outer loop
      vertex -5.86889 -19.2475 0
      vertex 3 56.1962 0
      vertex 4.01478 55.4589 0
    endloop
  endfacet
  facet normal 0 0 -1
    outer loop
      vertex -5.86889 -19.2475 0
      vertex 4.01478 55.4589 0
      vertex 4.8541 54.5267 0
    endloop
  endfacet
  facet normal 0 0 -1
    outer loop
      vertex -5.86889 -19.2475 0
      vertex 4.8541 54.5267 0
      vertex 5.48127 53.4404 0
    endloop
  endfacet
  facet normal 0 0 -1
    outer loop
      vertex -5.86889 -19.2475 0
      vertex 5.48127 53.4404 0
      vertex 7.0809 49.0588 0
    endloop
  endfacet
  facet normal 0 0 -1
    outer loop
      vertex -5.86889 -19.2475 0
      vertex 7.0809 49.0588 0
      vertex 7.1 49 0
    endloop
  endfacet
  facet normal 0 0 -1
    outer loop
      vertex 16.2135 6.88168 0
      vertex 7.1 49 0
      vertex 16.5 6 0
    endloop
  endfacet
  facet normal 0 0 -1
    outer loop
      vertex 16.2135 -5.11832 0
      vertex 19 6 0
      vertex 16.5 -6 0
    endloop
  endfacet
  facet normal 0 0 -1
    outer loop
      vertex 0.618034 -16.0979 0
      vertex 19 -6 0
      vertex 18.4271 -7.76336 0
    endloop
  endfacet
  facet normal 0 0 -1
    outer loop
      vertex 1 -19.7321 0
      vertex 18.4271 -7.76336 0
      vertex 4.01478 -22.4589 0
    endloop
  endfacet
  facet normal 0 0 -1
    outer loop
      vertex -5.86889 -19.2475 0
      vertex 4.01478 -22.4589 0
      vertex 3 -23.1962 0
    endloop
  endfacet
  facet normal 0 0 -1
    outer loop
      vertex -5.86889 -19.2475 0
      vertex 3 -23.1962 0
      vertex 1.8541 -23.7063 0
    endloop
  endfacet
  facet normal 0 0 -1
    outer loop
      vertex -5.86889 -19.2475 0
      vertex 1.8541 -23.7063 0
      vertex 0.627171 -23.9671 0
    endloop
  endfacet
  facet normal 0 0 -1
    outer loop
      vertex -5.86889 -19.2475 0
      vertex 0.627171 -23.9671 0
      vertex -0.627171 -23.9671 0
    endloop
  endfacet
  facet normal 0 0 -1
    outer loop
      vertex -5.86889 -19.2475 0
      vertex -0.627171 -23.9671 0
      vertex -1.8541 -23.7063 0
    endloop
  endfacet
  facet normal 0 0 -1
    outer loop
      vertex -5.86889 -19.2475 0
      vertex -1.8541 -23.7063 0
      vertex -3 -23.1962 0
    endloop
  endfacet
  facet normal 0 0 -1
    outer loop
      vertex -5.86889 -19.2475 0
      vertex -3 -23.1962 0
      vertex -4.01478 -22.4589 0
    endloop
  endfacet
  facet normal 0 0 -1
    outer loop
      vertex -5.86889 -19.2475 0
      vertex -4.01478 -22.4589 0
      vertex -4.8541 -21.5267 0
    endloop
  endfacet
  facet normal 0 0 -1
    outer loop
      vertex -5.86889 -19.2475 0
      vertex -4.8541 -21.5267 0
      vertex -5.48127 -20.4404 0
    endloop
  endfacet
  facet normal 0 0 -1
    outer loop
      vertex 0.618034 -16.0979 0
      vertex 18.4271 -7.76336 0
      vertex 1 -16.2679 0
    endloop
  endfacet
  facet normal 0 0 -1
    outer loop
      vertex -5.86889 -19.2475 0
      vertex -2 -18 0
      vertex -1.95629 -18.4158 0
    endloop
  endfacet
  facet normal 0 0 -1
    outer loop
      vertex -5.86889 -19.2475 0
      vertex -1.95629 -18.4158 0
      vertex -1.82709 -18.8135 0
    endloop
  endfacet
  facet normal 0 0 -1
    outer loop
      vertex -5.86889 -19.2475 0
      vertex -1.82709 -18.8135 0
      vertex -1.61803 -19.1756 0
    endloop
  endfacet
  facet normal 0 0 -1
    outer loop
      vertex -5.86889 -19.2475 0
      vertex -1.61803 -19.1756 0
      vertex -1.33826 -19.4863 0
    endloop
  endfacet
  facet normal 0 0 -1
    outer loop
      vertex -5.86889 -19.2475 0
      vertex -1.33826 -19.4863 0
      vertex -1 -19.7321 0
    endloop
  endfacet
  facet normal 0 0 -1
    outer loop
      vertex -5.86889 -19.2475 0
      vertex -1 -19.7321 0
      vertex 4.01478 -22.4589 0
    endloop
  endfacet
  facet normal 0 0 -1
    outer loop
      vertex -1 -19.7321 0
      vertex -0.618034 -19.9021 0
      vertex 4.01478 -22.4589 0
    endloop
  endfacet
  facet normal 0 0 -1
    outer loop
      vertex 0.209057 -19.989 0
      vertex 4.01478 -22.4589 0
      vertex -0.209057 -19.989 0
    endloop
  endfacet
  facet normal 0 0 -1
    outer loop
      vertex 0.618034 -19.9021 0
      vertex 4.01478 -22.4589 0
      vertex 0.209057 -19.989 0
    endloop
  endfacet
  facet normal 0 0 -1
    outer loop
      vertex 1 -16.2679 0
      vertex 18.4271 -7.76336 0
      vertex 1.33826 -16.5137 0
    endloop
  endfacet
  facet normal 0 0 -1
    outer loop
      vertex 1.61803 -19.1756 0
      vertex 18.4271 -7.76336 0
      vertex 1.33826 -19.4863 0
    endloop
  endfacet
  facet normal 0 0 -1
    outer loop
      vertex 1.33826 -19.4863 0
      vertex 18.4271 -7.76336 0
      vertex 1 -19.7321 0
    endloop
  endfacet
  facet normal 0 0 -1
    outer loop
      vertex 0.618034 -19.9021 0
      vertex 1 -19.7321 0
      vertex 4.01478 -22.4589 0
    endloop
  endfacet
  facet normal 0 0 -1
    outer loop
      vertex 1.82709 -18.8135 0
      vertex 18.4271 -7.76336 0
      vertex 1.61803 -19.1756 0
    endloop
  endfacet
  facet normal 0 0 -1
    outer loop
      vertex 1.95629 -18.4158 0
      vertex 18.4271 -7.76336 0
      vertex 1.82709 -18.8135 0
    endloop
  endfacet
  facet normal 0 0 -1
    outer loop
      vertex 2 -18 0
      vertex 18.4271 -7.76336 0
      vertex 1.95629 -18.4158 0
    endloop
  endfacet
  facet normal 0 0 -1
    outer loop
      vertex 1.95629 -17.5842 0
      vertex 18.4271 -7.76336 0
      vertex 2 -18 0
    endloop
  endfacet
  facet normal 0 0 -1
    outer loop
      vertex 1.82709 -17.1865 0
      vertex 18.4271 -7.76336 0
      vertex 1.95629 -17.5842 0
    endloop
  endfacet
  facet normal 0 0 -1
    outer loop
      vertex 1.61803 -16.8244 0
      vertex 18.4271 -7.76336 0
      vertex 1.82709 -17.1865 0
    endloop
  endfacet
  facet normal 0 0 -1
    outer loop
      vertex 1.33826 -16.5137 0
      vertex 18.4271 -7.76336 0
      vertex 1.61803 -16.8244 0
    endloop
  endfacet
  facet normal 0 0 -1
    outer loop
      vertex -1.33826 52.4863 0
      vertex -0.627171 56.9671 0
      vertex -1 52.7321 0
    endloop
  endfacet
  facet normal 0 0 -1
    outer loop
      vertex 0.209057 -16.011 0
      vertex 19 -6 0
      vertex 0.618034 -16.0979 0
    endloop
  endfacet
  facet normal 0 0 -1
    outer loop
      vertex -0.209057 -16.011 0
      vertex 19 -6 0
      vertex 0.209057 -16.011 0
    endloop
  endfacet
  facet normal 0 0 -1
    outer loop
      vertex -0.618034 -16.0979 0
      vertex 19 6 0
      vertex -0.209057 -16.011 0
    endloop
  endfacet
  facet normal 0 0 -1
    outer loop
      vertex -1.61803 -16.8244 0
      vertex -5.86889 -19.2475 0
      vertex -1.33826 -16.5137 0
    endloop
  endfacet
  facet normal 0 0 -1
    outer loop
      vertex -1 -16.2679 0
      vertex 19 6 0
      vertex -0.618034 -16.0979 0
    endloop
  endfacet
  facet normal 0 0 -1
    outer loop
      vertex -5.86889 -19.2475 0
      vertex 19 6 0
      vertex -1 -16.2679 0
    endloop
  endfacet
  facet normal 0 0 -1
    outer loop
      vertex -5.86889 -19.2475 0
      vertex -1 -16.2679 0
      vertex -1.33826 -16.5137 0
    endloop
  endfacet
  facet normal 0 0 -1
    outer loop
      vertex -1.82709 -17.1865 0
      vertex -5.86889 -19.2475 0
      vertex -1.61803 -16.8244 0
    endloop
  endfacet
  facet normal 0 0 -1
    outer loop
      vertex -1.95629 -17.5842 0
      vertex -5.86889 -19.2475 0
      vertex -1.82709 -17.1865 0
    endloop
  endfacet
  facet normal 0 0 -1
    outer loop
      vertex -1 49.2679 0
      vertex -5.86889 -19.2475 0
      vertex -1.33826 49.5137 0
    endloop
  endfacet
  facet normal 0 0 -1
    outer loop
      vertex -5.86889 -19.2475 0
      vertex -1.95629 -17.5842 0
      vertex -2 -18 0
    endloop
  endfacet
  facet normal 0 0 -1
    outer loop
      vertex -5.86889 -19.2475 0
      vertex -1.8541 56.7063 0
      vertex -2 51 0
    endloop
  endfacet
  facet normal 0 0 -1
    outer loop
      vertex -5.86889 -19.2475 0
      vertex -2 51 0
      vertex -1.95629 50.5842 0
    endloop
  endfacet
  facet normal 0 0 -1
    outer loop
      vertex -5.86889 -19.2475 0
      vertex -1.95629 50.5842 0
      vertex -1.82709 50.1865 0
    endloop
  endfacet
  facet normal 0 0 -1
    outer loop
      vertex -5.86889 -19.2475 0
      vertex -1.82709 50.1865 0
      vertex -1.61803 49.8244 0
    endloop
  endfacet
  facet normal 0 0 -1
    outer loop
      vertex -5.86889 -19.2475 0
      vertex -1.61803 49.8244 0
      vertex -1.33826 49.5137 0
    endloop
  endfacet
  facet normal 0 0 -1
    outer loop
      vertex 0.209057 49.011 0
      vertex -5.86889 -19.2475 0
      vertex -0.209057 49.011 0
    endloop
  endfacet
  facet normal 0 0 -1
    outer loop
      vertex -5.86889 -19.2475 0
      vertex -1 49.2679 0
      vertex -0.618034 49.0979 0
    endloop
  endfacet
  facet normal 0 0 -1
    outer loop
      vertex -5.86889 -19.2475 0
      vertex -0.618034 49.0979 0
      vertex -0.209057 49.011 0
    endloop
  endfacet
  facet normal 0 0 -1
    outer loop
      vertex 1.33826 49.5137 0
      vertex -5.86889 -19.2475 0
      vertex 1 49.2679 0
    endloop
  endfacet
  facet normal 0 0 -1
    outer loop
      vertex -5.86889 -19.2475 0
      vertex 0.209057 49.011 0
      vertex 0.618034 49.0979 0
    endloop
  endfacet
  facet normal 0 0 -1
    outer loop
      vertex -5.86889 -19.2475 0
      vertex 0.618034 49.0979 0
      vertex 1 49.2679 0
    endloop
  endfacet
  facet normal 0 0 -1
    outer loop
      vertex 1.95629 51.4158 0
      vertex 3 56.1962 0
      vertex 2 51 0
    endloop
  endfacet
  facet normal 0 0 -1
    outer loop
      vertex -5.86889 -19.2475 0
      vertex 1.33826 49.5137 0
      vertex 1.61803 49.8244 0
    endloop
  endfacet
  facet normal 0 0 -1
    outer loop
      vertex -5.86889 -19.2475 0
      vertex 1.61803 49.8244 0
      vertex 1.82709 50.1865 0
    endloop
  endfacet
  facet normal 0 0 -1
    outer loop
      vertex -5.86889 -19.2475 0
      vertex 1.82709 50.1865 0
      vertex 1.95629 50.5842 0
    endloop
  endfacet
  facet normal 0 0 -1
    outer loop
      vertex -5.86889 -19.2475 0
      vertex 1.95629 50.5842 0
      vertex 3 56.1962 0
    endloop
  endfacet
  facet normal 0 0 -1
    outer loop
      vertex 1.95629 50.5842 0
      vertex 2 51 0
      vertex 3 56.1962 0
    endloop
  endfacet
  facet normal 0 0 -1
    outer loop
      vertex 1.82709 51.8135 0
      vertex 3 56.1962 0
      vertex 1.95629 51.4158 0
    endloop
  endfacet
  facet normal 0 0 -1
    outer loop
      vertex 1.61803 52.1756 0
      vertex 1.8541 56.7063 0
      vertex 1.82709 51.8135 0
    endloop
  endfacet
  facet normal 0 0 -1
    outer loop
      vertex 1.33826 52.4863 0
      vertex 1.8541 56.7063 0
      vertex 1.61803 52.1756 0
    endloop
  endfacet
  facet normal 0 0 -1
    outer loop
      vertex 1 52.7321 0
      vertex 1.8541 56.7063 0
      vertex 1.33826 52.4863 0
    endloop
  endfacet
  facet normal 0 0 -1
    outer loop
      vertex 0.618034 52.9021 0
      vertex 0.627171 56.9671 0
      vertex 1 52.7321 0
    endloop
  endfacet
  facet normal 0 0 -1
    outer loop
      vertex 0.209057 52.989 0
      vertex 0.627171 56.9671 0
      vertex 0.618034 52.9021 0
    endloop
  endfacet
  facet normal 0 0 -1
    outer loop
      vertex -0.209057 52.989 0
      vertex 0.627171 56.9671 0
      vertex 0.209057 52.989 0
    endloop
  endfacet
  facet normal 0 0 -1
    outer loop
      vertex -0.618034 52.9021 0
      vertex 0.627171 56.9671 0
      vertex -0.209057 52.989 0
    endloop
  endfacet
  facet normal 0 0 -1
    outer loop
      vertex -1 52.7321 0
      vertex -0.627171 56.9671 0
      vertex -0.618034 52.9021 0
    endloop
  endfacet
  facet normal 0 0 -1
    outer loop
      vertex -1.61803 52.1756 0
      vertex -0.627171 56.9671 0
      vertex -1.33826 52.4863 0
    endloop
  endfacet
  facet normal 0 0 -1
    outer loop
      vertex -1.82709 51.8135 0
      vertex -0.627171 56.9671 0
      vertex -1.61803 52.1756 0
    endloop
  endfacet
  facet normal 0 0 -1
    outer loop
      vertex -1.95629 51.4158 0
      vertex -1.8541 56.7063 0
      vertex -1.82709 51.8135 0
    endloop
  endfacet
  facet normal 0 0 -1
    outer loop
      vertex 16.2135 -6.88168 0
      vertex 19 -6 0
      vertex 15.4635 -7.42658 0
    endloop
  endfacet
  facet normal 0 0 -1
    outer loop
      vertex -2 51 0
      vertex -1.8541 56.7063 0
      vertex -1.95629 51.4158 0
    endloop
  endfacet
  facet normal 0 0 -1
    outer loop
      vertex 16.2135 5.11832 0
      vertex 19 6 0
      vertex 15.4635 4.57341 0
    endloop
  endfacet
  facet normal 0 0 -1
    outer loop
      vertex 16.5 -6 0
      vertex 19 6 0
      vertex 19 -6 0
    endloop
  endfacet
  facet normal 0 0 -1
    outer loop
      vertex -0.209057 -16.011 0
      vertex 13.5 -6 0
      vertex 13.7865 -6.88168 0
    endloop
  endfacet
  facet normal 0 0 -1
    outer loop
      vertex -0.209057 -16.011 0
      vertex 13.7865 -6.88168 0
      vertex 14.5365 -7.42658 0
    endloop
  endfacet
  facet normal 0 0 -1
    outer loop
      vertex -0.209057 -16.011 0
      vertex 14.5365 -7.42658 0
      vertex 15.4635 -7.42658 0
    endloop
  endfacet
  facet normal 0 0 -1
    outer loop
      vertex -0.209057 -16.011 0
      vertex 15.4635 -7.42658 0
      vertex 19 -6 0
    endloop
  endfacet
  facet normal 0 0 -1
    outer loop
      vertex 16.5 -6 0
      vertex 19 -6 0
      vertex 16.2135 -6.88168 0
    endloop
  endfacet
  facet normal 0 0 -1
    outer loop
      vertex 13.7865 -5.11832 0
      vertex 19 6 0
      vertex 14.5365 -4.57341 0
    endloop
  endfacet
  facet normal 0 0 -1
    outer loop
      vertex 15.4635 -4.57341 0
      vertex 19 6 0
      vertex 16.2135 -5.11832 0
    endloop
  endfacet
  facet normal 0 0 -1
    outer loop
      vertex 14.5365 -4.57341 0
      vertex 19 6 0
      vertex 15.4635 -4.57341 0
    endloop
  endfacet
  facet normal 0 0 -1
    outer loop
      vertex -0.209057 -16.011 0
      vertex 19 6 0
      vertex 13.7865 -5.11832 0
    endloop
  endfacet
  facet normal 0 0 -1
    outer loop
      vertex -0.209057 -16.011 0
      vertex 13.7865 -5.11832 0
      vertex 13.5 -6 0
    endloop
  endfacet
  facet normal 0 0 -1
    outer loop
      vertex -5.86889 -19.2475 0
      vertex 7.1 49 0
      vertex 13.5 6 0
    endloop
  endfacet
  facet normal 0 0 -1
    outer loop
      vertex 16.5 6 0
      vertex 7.1 49 0
      vertex 19 6 0
    endloop
  endfacet
  facet normal 0 0 -1
    outer loop
      vertex -5.86889 -19.2475 0
      vertex 13.5 6 0
      vertex 13.7865 5.11832 0
    endloop
  endfacet
  facet normal 0 0 -1
    outer loop
      vertex -5.86889 -19.2475 0
      vertex 13.7865 5.11832 0
      vertex 14.5365 4.57341 0
    endloop
  endfacet
  facet normal 0 0 -1
    outer loop
      vertex -5.86889 -19.2475 0
      vertex 14.5365 4.57341 0
      vertex 15.4635 4.57341 0
    endloop
  endfacet
  facet normal 0 0 -1
    outer loop
      vertex -5.86889 -19.2475 0
      vertex 15.4635 4.57341 0
      vertex 19 6 0
    endloop
  endfacet
  facet normal 0 0 -1
    outer loop
      vertex 16.5 6 0
      vertex 19 6 0
      vertex 16.2135 5.11832 0
    endloop
  endfacet
  facet normal 0 0 -1
    outer loop
      vertex 15.4635 7.42658 0
      vertex 7.1 49 0
      vertex 16.2135 6.88168 0
    endloop
  endfacet
  facet normal 0 0 -1
    outer loop
      vertex 14.5365 7.42658 0
      vertex 7.1 49 0
      vertex 15.4635 7.42658 0
    endloop
  endfacet
  facet normal 0 0 -1
    outer loop
      vertex 13.7865 6.88168 0
      vertex 7.1 49 0
      vertex 14.5365 7.42658 0
    endloop
  endfacet
  facet normal 0 0 -1
    outer loop
      vertex 13.5 6 0
      vertex 7.1 49 0
      vertex 13.7865 6.88168 0
    endloop
  endfacet
  facet normal 0 0 -1
    outer loop
      vertex -0.209057 -19.989 0
      vertex 4.01478 -22.4589 0
      vertex -0.618034 -19.9021 0
    endloop
  endfacet
  facet normal -0.994522 0.104528 0
    outer loop
      vertex -6 51 0
      vertex -6 51 4.8
      vertex -5.86889 52.2475 0
    endloop
  endfacet
  facet normal -0.994522 0.104528 0
    outer loop
      vertex -5.86889 52.2475 0
      vertex -6 51 4.8
      vertex -5.86889 52.2475 4.8
    endloop
  endfacet
  facet normal 0 0 1
    outer loop
      vertex -6 51 4.8
      vertex -6 -18 4.8
      vertex -5.86889 -19.2475 4.8
    endloop
  endfacet
  facet normal 0 0 1
    outer loop
      vertex -4.8541 -21.5267 4.8
      vertex -6 51 4.8
      vertex -5.48127 -20.4404 4.8
    endloop
  endfacet
  facet normal 0 0 1
    outer loop
      vertex -5.48127 -20.4404 4.8
      vertex -6 51 4.8
      vertex -5.86889 -19.2475 4.8
    endloop
  endfacet
  facet normal 0 0 1
    outer loop
      vertex -4.01478 -22.4589 4.8
      vertex -6 51 4.8
      vertex -4.8541 -21.5267 4.8
    endloop
  endfacet
  facet normal 0 0 1
    outer loop
      vertex -3 -23.1962 4.8
      vertex -6 51 4.8
      vertex -4.01478 -22.4589 4.8
    endloop
  endfacet
  facet normal 0 0 1
    outer loop
      vertex -1.8541 -23.7063 4.8
      vertex -6 51 4.8
      vertex -3 -23.1962 4.8
    endloop
  endfacet
  facet normal 0 0 1
    outer loop
      vertex -2 -18 4.8
      vertex -6 51 4.8
      vertex -1.8541 -23.7063 4.8
    endloop
  endfacet
  facet normal 0 0 1
    outer loop
      vertex 0.209057 -19.989 4.8
      vertex -0.209057 -19.989 4.8
      vertex 0.627171 -23.9671 4.8
    endloop
  endfacet
  facet normal 0 0 1
    outer loop
      vertex 4.01478 -22.4589 4.8
      vertex -6 51 4.8
      vertex 3 -23.1962 4.8
    endloop
  endfacet
  facet normal 0 0 1
    outer loop
      vertex 13.7865 -6.88168 4.8
      vertex -6 51 4.8
      vertex 4.01478 -22.4589 4.8
    endloop
  endfacet
  facet normal 0 0 1
    outer loop
      vertex 13.7865 5.11832 4.8
      vertex -6 51 4.8
      vertex 18.4271 -7.76336 4.8
    endloop
  endfacet
  facet normal 0 0 1
    outer loop
      vertex -0.618034 49.0979 4.8
      vertex -6 51 4.8
      vertex 19 6 4.8
    endloop
  endfacet
  facet normal 0 0 1
    outer loop
      vertex -1.82709 51.8135 4.8
      vertex -1.61803 52.1756 4.8
      vertex -6 51 4.8
    endloop
  endfacet
  facet normal 0 0 1
    outer loop
      vertex 0.209057 52.989 4.8
      vertex 0.618034 52.9021 4.8
      vertex 4.8541 54.5267 4.8
    endloop
  endfacet
  facet normal 0 0 1
    outer loop
      vertex 3 56.1962 4.8
      vertex -6 51 4.8
      vertex 4.01478 55.4589 4.8
    endloop
  endfacet
  facet normal 0 0 1
    outer loop
      vertex 1.8541 56.7063 4.8
      vertex -6 51 4.8
      vertex 3 56.1962 4.8
    endloop
  endfacet
  facet normal 0 0 1
    outer loop
      vertex 0.627171 56.9671 4.8
      vertex -6 51 4.8
      vertex 1.8541 56.7063 4.8
    endloop
  endfacet
  facet normal 0 0 1
    outer loop
      vertex -0.627171 56.9671 4.8
      vertex -6 51 4.8
      vertex 0.627171 56.9671 4.8
    endloop
  endfacet
  facet normal 0 0 1
    outer loop
      vertex -1.8541 56.7063 4.8
      vertex -6 51 4.8
      vertex -0.627171 56.9671 4.8
    endloop
  endfacet
  facet normal 0 0 1
    outer loop
      vertex -3 56.1962 4.8
      vertex -6 51 4.8
      vertex -1.8541 56.7063 4.8
    endloop
  endfacet
  facet normal 0 0 1
    outer loop
      vertex -4.01478 55.4589 4.8
      vertex -6 51 4.8
      vertex -3 56.1962 4.8
    endloop
  endfacet
  facet normal 0 0 1
    outer loop
      vertex -4.8541 54.5267 4.8
      vertex -6 51 4.8
      vertex -4.01478 55.4589 4.8
    endloop
  endfacet
  facet normal 0 0 1
    outer loop
      vertex -5.48127 53.4404 4.8
      vertex -6 51 4.8
      vertex -4.8541 54.5267 4.8
    endloop
  endfacet
  facet normal 0 0 1
    outer loop
      vertex -5.86889 52.2475 4.8
      vertex -6 51 4.8
      vertex -5.48127 53.4404 4.8
    endloop
  endfacet
  facet normal 0 0 1
    outer loop
      vertex -0.627171 -23.9671 4.8
      vertex -1.95629 -18.4158 4.8
      vertex -1.8541 -23.7063 4.8
    endloop
  endfacet
  facet normal 0 0 1
    outer loop
      vertex -1.95629 -18.4158 4.8
      vertex -2 -18 4.8
      vertex -1.8541 -23.7063 4.8
    endloop
  endfacet
  facet normal 0 0 1
    outer loop
      vertex -1.82709 -17.1865 4.8
      vertex -6 51 4.8
      vertex -1.95629 -17.5842 4.8
    endloop
  endfacet
  facet normal 0 0 1
    outer loop
      vertex -1.61803 -16.8244 4.8
      vertex -6 51 4.8
      vertex -1.82709 -17.1865 4.8
    endloop
  endfacet
  facet normal 0 0 1
    outer loop
      vertex -1.33826 -16.5137 4.8
      vertex -6 51 4.8
      vertex -1.61803 -16.8244 4.8
    endloop
  endfacet
  facet normal 0 0 1
    outer loop
      vertex -1.33826 -19.4863 4.8
      vertex -1.61803 -19.1756 4.8
      vertex -0.627171 -23.9671 4.8
    endloop
  endfacet
  facet normal 0 0 1
    outer loop
      vertex 2 -18 4.8
      vertex 1.95629 -18.4158 4.8
      vertex 3 -23.1962 4.8
    endloop
  endfacet
  facet normal 0 0 1
    outer loop
      vertex -0.618034 -16.0979 4.8
      vertex -6 51 4.8
      vertex -1 -16.2679 4.8
    endloop
  endfacet
  facet normal 0 0 1
    outer loop
      vertex -0.209057 -16.011 4.8
      vertex -6 51 4.8
      vertex -0.618034 -16.0979 4.8
    endloop
  endfacet
  facet normal 0 0 1
    outer loop
      vertex 1 -16.2679 4.8
      vertex 1.33826 -16.5137 4.8
      vertex -6 51 4.8
    endloop
  endfacet
  facet normal 0 0 1
    outer loop
      vertex -1 -19.7321 4.8
      vertex -1.33826 -19.4863 4.8
      vertex -0.627171 -23.9671 4.8
    endloop
  endfacet
  facet normal 0 0 1
    outer loop
      vertex 0.618034 -16.0979 4.8
      vertex -6 51 4.8
      vertex 0.209057 -16.011 4.8
    endloop
  endfacet
  facet normal 0 0 1
    outer loop
      vertex 1 -16.2679 4.8
      vertex -6 51 4.8
      vertex 0.618034 -16.0979 4.8
    endloop
  endfacet
  facet normal 0 0 1
    outer loop
      vertex 1.33826 -19.4863 4.8
      vertex 1 -19.7321 4.8
      vertex 1.8541 -23.7063 4.8
    endloop
  endfacet
  facet normal 0 0 1
    outer loop
      vertex 1.61803 -16.8244 4.8
      vertex -6 51 4.8
      vertex 1.33826 -16.5137 4.8
    endloop
  endfacet
  facet normal 0 0 1
    outer loop
      vertex 1.82709 -17.1865 4.8
      vertex -6 51 4.8
      vertex 1.61803 -16.8244 4.8
    endloop
  endfacet
  facet normal 0 0 1
    outer loop
      vertex 1.95629 -18.4158 4.8
      vertex 1.82709 -18.8135 4.8
      vertex 3 -23.1962 4.8
    endloop
  endfacet
  facet normal 0 0 1
    outer loop
      vertex 1.95629 -17.5842 4.8
      vertex -6 51 4.8
      vertex 1.82709 -17.1865 4.8
    endloop
  endfacet
  facet normal 0 0 1
    outer loop
      vertex 3 -23.1962 4.8
      vertex -6 51 4.8
      vertex 1.95629 -17.5842 4.8
    endloop
  endfacet
  facet normal 0 0 1
    outer loop
      vertex 1.61803 -19.1756 4.8
      vertex 1.33826 -19.4863 4.8
      vertex 1.8541 -23.7063 4.8
    endloop
  endfacet
  facet normal 0 0 1
    outer loop
      vertex 3 -23.1962 4.8
      vertex 1.95629 -17.5842 4.8
      vertex 2 -18 4.8
    endloop
  endfacet
  facet normal 0 0 1
    outer loop
      vertex 3 -23.1962 4.8
      vertex 1.82709 -18.8135 4.8
      vertex 1.8541 -23.7063 4.8
    endloop
  endfacet
  facet normal 0 0 1
    outer loop
      vertex 1.82709 -18.8135 4.8
      vertex 1.61803 -19.1756 4.8
      vertex 1.8541 -23.7063 4.8
    endloop
  endfacet
  facet normal 0 0 1
    outer loop
      vertex 0.618034 -19.9021 4.8
      vertex 0.209057 -19.989 4.8
      vertex 0.627171 -23.9671 4.8
    endloop
  endfacet
  facet normal 0 0 1
    outer loop
      vertex 1.8541 -23.7063 4.8
      vertex 1 -19.7321 4.8
      vertex 0.627171 -23.9671 4.8
    endloop
  endfacet
  facet normal 0 0 1
    outer loop
      vertex 1 -19.7321 4.8
      vertex 0.618034 -19.9021 4.8
      vertex 0.627171 -23.9671 4.8
    endloop
  endfacet
  facet normal 0 0 1
    outer loop
      vertex -0.209057 -19.989 4.8
      vertex -0.618034 -19.9021 4.8
      vertex 0.627171 -23.9671 4.8
    endloop
  endfacet
  facet normal 0 0 1
    outer loop
      vertex -0.618034 -19.9021 4.8
      vertex -1 -19.7321 4.8
      vertex -0.627171 -23.9671 4.8
    endloop
  endfacet
  facet normal 0 0 1
    outer loop
      vertex 0.627171 -23.9671 4.8
      vertex -0.618034 -19.9021 4.8
      vertex -0.627171 -23.9671 4.8
    endloop
  endfacet
  facet normal 0 0 1
    outer loop
      vertex -0.209057 -16.011 4.8
      vertex 0.209057 -16.011 4.8
      vertex -6 51 4.8
    endloop
  endfacet
  facet normal 0 0 1
    outer loop
      vertex -1.61803 -19.1756 4.8
      vertex -1.82709 -18.8135 4.8
      vertex -0.627171 -23.9671 4.8
    endloop
  endfacet
  facet normal 0 0 1
    outer loop
      vertex -0.627171 -23.9671 4.8
      vertex -1.82709 -18.8135 4.8
      vertex -1.95629 -18.4158 4.8
    endloop
  endfacet
  facet normal 0 0 1
    outer loop
      vertex -1 49.2679 4.8
      vertex -1.33826 49.5137 4.8
      vertex -6 51 4.8
    endloop
  endfacet
  facet normal 0 0 1
    outer loop
      vertex -2 51 4.8
      vertex -6 51 4.8
      vertex -1.95629 50.5842 4.8
    endloop
  endfacet
  facet normal 0 0 1
    outer loop
      vertex -1.95629 51.4158 4.8
      vertex -6 51 4.8
      vertex -2 51 4.8
    endloop
  endfacet
  facet normal 0 0 1
    outer loop
      vertex 1.61803 52.1756 4.8
      vertex 1.82709 51.8135 4.8
      vertex 5.48127 53.4404 4.8
    endloop
  endfacet
  facet normal 0 0 1
    outer loop
      vertex -1.82709 51.8135 4.8
      vertex -6 51 4.8
      vertex -1.95629 51.4158 4.8
    endloop
  endfacet
  facet normal 0 0 1
    outer loop
      vertex -1.33826 52.4863 4.8
      vertex -1 52.7321 4.8
      vertex -6 51 4.8
    endloop
  endfacet
  facet normal 0 0 1
    outer loop
      vertex 1.33826 52.4863 4.8
      vertex 1.61803 52.1756 4.8
      vertex 5.48127 53.4404 4.8
    endloop
  endfacet
  facet normal 0 0 1
    outer loop
      vertex -1.33826 52.4863 4.8
      vertex -6 51 4.8
      vertex -1.61803 52.1756 4.8
    endloop
  endfacet
  facet normal 0 0 1
    outer loop
      vertex 1 52.7321 4.8
      vertex 1.33826 52.4863 4.8
      vertex 5.48127 53.4404 4.8
    endloop
  endfacet
  facet normal 0 0 1
    outer loop
      vertex 4.01478 55.4589 4.8
      vertex -6 51 4.8
      vertex -1 52.7321 4.8
    endloop
  endfacet
  facet normal 0 0 1
    outer loop
      vertex 4.01478 55.4589 4.8
      vertex -0.618034 52.9021 4.8
      vertex 4.8541 54.5267 4.8
    endloop
  endfacet
  facet normal 0 0 1
    outer loop
      vertex 4.01478 55.4589 4.8
      vertex -1 52.7321 4.8
      vertex -0.618034 52.9021 4.8
    endloop
  endfacet
  facet normal 0 0 1
    outer loop
      vertex -0.618034 52.9021 4.8
      vertex -0.209057 52.989 4.8
      vertex 4.8541 54.5267 4.8
    endloop
  endfacet
  facet normal 0 0 1
    outer loop
      vertex 4.8541 54.5267 4.8
      vertex 0.618034 52.9021 4.8
      vertex 5.48127 53.4404 4.8
    endloop
  endfacet
  facet normal 0 0 1
    outer loop
      vertex 0.618034 52.9021 4.8
      vertex 1 52.7321 4.8
      vertex 5.48127 53.4404 4.8
    endloop
  endfacet
  facet normal 0 0 1
    outer loop
      vertex 1.82709 50.1865 4.8
      vertex 1.61803 49.8244 4.8
      vertex 7.1 49 4.8
    endloop
  endfacet
  facet normal 0 0 1
    outer loop
      vertex 1.82709 50.1865 4.8
      vertex 7.1 49 4.8
      vertex 7.0809 49.0588 4.8
    endloop
  endfacet
  facet normal 0 0 1
    outer loop
      vertex 5.48127 53.4404 4.8
      vertex 1.82709 51.8135 4.8
      vertex 7.0809 49.0588 4.8
    endloop
  endfacet
  facet normal 0 0 1
    outer loop
      vertex 1.82709 51.8135 4.8
      vertex 1.95629 51.4158 4.8
      vertex 7.0809 49.0588 4.8
    endloop
  endfacet
  facet normal 0 0 1
    outer loop
      vertex 1.95629 51.4158 4.8
      vertex 2 51 4.8
      vertex 7.0809 49.0588 4.8
    endloop
  endfacet
  facet normal 0 0 1
    outer loop
      vertex 2 51 4.8
      vertex 1.95629 50.5842 4.8
      vertex 7.0809 49.0588 4.8
    endloop
  endfacet
  facet normal 0 0 1
    outer loop
      vertex 1.95629 50.5842 4.8
      vertex 1.82709 50.1865 4.8
      vertex 7.0809 49.0588 4.8
    endloop
  endfacet
  facet normal 0 0 1
    outer loop
      vertex 7.1 49 4.8
      vertex 1.61803 49.8244 4.8
      vertex 19 6 4.8
    endloop
  endfacet
  facet normal 0 0 1
    outer loop
      vertex -0.209057 52.989 4.8
      vertex 0.209057 52.989 4.8
      vertex 4.8541 54.5267 4.8
    endloop
  endfacet
  facet normal 0 0 1
    outer loop
      vertex 1.61803 49.8244 4.8
      vertex 1.33826 49.5137 4.8
      vertex 19 6 4.8
    endloop
  endfacet
  facet normal 0 0 1
    outer loop
      vertex 1.33826 49.5137 4.8
      vertex 1 49.2679 4.8
      vertex 19 6 4.8
    endloop
  endfacet
  facet normal 0 0 1
    outer loop
      vertex 16.2135 -5.11832 4.8
      vertex 16.5 -6 4.8
      vertex 18.4271 -7.76336 4.8
    endloop
  endfacet
  facet normal 0 0 1
    outer loop
      vertex 1 49.2679 4.8
      vertex 0.618034 49.0979 4.8
      vertex 19 6 4.8
    endloop
  endfacet
  facet normal 0 0 1
    outer loop
      vertex 0.618034 49.0979 4.8
      vertex 0.209057 49.011 4.8
      vertex 19 6 4.8
    endloop
  endfacet
  facet normal 0 0 1
    outer loop
      vertex 0.209057 49.011 4.8
      vertex -0.209057 49.011 4.8
      vertex 19 6 4.8
    endloop
  endfacet
  facet normal 0 0 1
    outer loop
      vertex -1.33826 49.5137 4.8
      vertex -1.61803 49.8244 4.8
      vertex -6 51 4.8
    endloop
  endfacet
  facet normal 0 0 1
    outer loop
      vertex -0.209057 49.011 4.8
      vertex -0.618034 49.0979 4.8
      vertex 19 6 4.8
    endloop
  endfacet
  facet normal 0 0 1
    outer loop
      vertex -1 49.2679 4.8
      vertex -6 51 4.8
      vertex -0.618034 49.0979 4.8
    endloop
  endfacet
  facet normal 0 0 1
    outer loop
      vertex -1.61803 49.8244 4.8
      vertex -1.82709 50.1865 4.8
      vertex -6 51 4.8
    endloop
  endfacet
  facet normal 0 0 1
    outer loop
      vertex 16.5 -6 4.8
      vertex 16.2135 -6.88168 4.8
      vertex 18.4271 -7.76336 4.8
    endloop
  endfacet
  facet normal 0 0 1
    outer loop
      vertex 14.5365 -7.42658 4.8
      vertex 13.7865 -6.88168 4.8
      vertex 4.01478 -22.4589 4.8
    endloop
  endfacet
  facet normal 0 0 1
    outer loop
      vertex 13.5 -6 4.8
      vertex -6 51 4.8
      vertex 13.7865 -6.88168 4.8
    endloop
  endfacet
  facet normal 0 0 1
    outer loop
      vertex 13.7865 -5.11832 4.8
      vertex -6 51 4.8
      vertex 13.5 -6 4.8
    endloop
  endfacet
  facet normal 0 0 1
    outer loop
      vertex 14.5365 -4.57341 4.8
      vertex -6 51 4.8
      vertex 13.7865 -5.11832 4.8
    endloop
  endfacet
  facet normal 0 0 1
    outer loop
      vertex 15.4635 -4.57341 4.8
      vertex -6 51 4.8
      vertex 14.5365 -4.57341 4.8
    endloop
  endfacet
  facet normal 0 0 1
    outer loop
      vertex 16.2135 -5.11832 4.8
      vertex -6 51 4.8
      vertex 15.4635 -4.57341 4.8
    endloop
  endfacet
  facet normal 0 0 1
    outer loop
      vertex 18.4271 -7.76336 4.8
      vertex -6 51 4.8
      vertex 16.2135 -5.11832 4.8
    endloop
  endfacet
  facet normal 0 0 1
    outer loop
      vertex 16.2135 -6.88168 4.8
      vertex 15.4635 -7.42658 4.8
      vertex 18.4271 -7.76336 4.8
    endloop
  endfacet
  facet normal 0 0 1
    outer loop
      vertex 14.5365 4.57341 4.8
      vertex 13.7865 5.11832 4.8
      vertex 19 -6 4.8
    endloop
  endfacet
  facet normal 0 0 1
    outer loop
      vertex 18.4271 -7.76336 4.8
      vertex 15.4635 -7.42658 4.8
      vertex 4.01478 -22.4589 4.8
    endloop
  endfacet
  facet normal 0 0 1
    outer loop
      vertex 15.4635 7.42658 4.8
      vertex 16.2135 6.88168 4.8
      vertex 19 6 4.8
    endloop
  endfacet
  facet normal 0 0 1
    outer loop
      vertex 15.4635 -7.42658 4.8
      vertex 14.5365 -7.42658 4.8
      vertex 4.01478 -22.4589 4.8
    endloop
  endfacet
  facet normal 0 0 1
    outer loop
      vertex 19 -6 4.8
      vertex 13.7865 5.11832 4.8
      vertex 18.4271 -7.76336 4.8
    endloop
  endfacet
  facet normal 0 0 1
    outer loop
      vertex 13.5 6 4.8
      vertex -6 51 4.8
      vertex 13.7865 5.11832 4.8
    endloop
  endfacet
  facet normal 0 0 1
    outer loop
      vertex 13.5 6 4.8
      vertex 13.7865 6.88168 4.8
      vertex -6 51 4.8
    endloop
  endfacet
  facet normal 0 0 1
    outer loop
      vertex 14.5365 7.42658 4.8
      vertex -6 51 4.8
      vertex 13.7865 6.88168 4.8
    endloop
  endfacet
  facet normal 0 0 1
    outer loop
      vertex 15.4635 7.42658 4.8
      vertex -6 51 4.8
      vertex 14.5365 7.42658 4.8
    endloop
  endfacet
  facet normal 0 0 1
    outer loop
      vertex 16.2135 6.88168 4.8
      vertex 16.5 6 4.8
      vertex 19 6 4.8
    endloop
  endfacet
  facet normal 0 0 1
    outer loop
      vertex 19 6 4.8
      vertex -6 51 4.8
      vertex 15.4635 7.42658 4.8
    endloop
  endfacet
  facet normal 0 0 1
    outer loop
      vertex 15.4635 4.57341 4.8
      vertex 14.5365 4.57341 4.8
      vertex 19 -6 4.8
    endloop
  endfacet
  facet normal 0 0 1
    outer loop
      vertex 19 6 4.8
      vertex 16.5 6 4.8
      vertex 19 -6 4.8
    endloop
  endfacet
  facet normal 0 0 1
    outer loop
      vertex 16.5 6 4.8
      vertex 16.2135 5.11832 4.8
      vertex 19 -6 4.8
    endloop
  endfacet
  facet normal 0 0 1
    outer loop
      vertex 16.2135 5.11832 4.8
      vertex 15.4635 4.57341 4.8
      vertex 19 -6 4.8
    endloop
  endfacet
  facet normal 0 0 1
    outer loop
      vertex -2 -18 4.8
      vertex -1.95629 -17.5842 4.8
      vertex -6 51 4.8
    endloop
  endfacet
  facet normal 0 0 1
    outer loop
      vertex -1.33826 -16.5137 4.8
      vertex -1 -16.2679 4.8
      vertex -6 51 4.8
    endloop
  endfacet
  facet normal 0 0 1
    outer loop
      vertex -1.82709 50.1865 4.8
      vertex -1.95629 50.5842 4.8
      vertex -6 51 4.8
    endloop
  endfacet
  facet normal -0.951057 -0.309017 0
    outer loop
      vertex -5.86889 -19.2475 0
      vertex -5.48127 -20.4404 0
      vertex -5.86889 -19.2475 4.8
    endloop
  endfacet
  facet normal -0.951057 -0.309017 0
    outer loop
      vertex -5.86889 -19.2475 4.8
      vertex -5.48127 -20.4404 0
      vertex -5.48127 -20.4404 4.8
    endloop
  endfacet
  facet normal -0.866025 -0.5 0
    outer loop
      vertex -5.48127 -20.4404 0
      vertex -4.8541 -21.5267 0
      vertex -5.48127 -20.4404 4.8
    endloop
  endfacet
  facet normal -0.866025 -0.5 0
    outer loop
      vertex -5.48127 -20.4404 4.8
      vertex -4.8541 -21.5267 0
      vertex -4.8541 -21.5267 4.8
    endloop
  endfacet
  facet normal -0.743145 -0.669131 0
    outer loop
      vertex -4.8541 -21.5267 0
      vertex -4.01478 -22.4589 0
      vertex -4.8541 -21.5267 4.8
    endloop
  endfacet
  facet normal -0.743145 -0.669131 0
    outer loop
      vertex -4.8541 -21.5267 4.8
      vertex -4.01478 -22.4589 0
      vertex -4.01478 -22.4589 4.8
    endloop
  endfacet
  facet normal -0.587785 -0.809017 0
    outer loop
      vertex -4.01478 -22.4589 4.8
      vertex -4.01478 -22.4589 0
      vertex -3 -23.1962 0
    endloop
  endfacet
  facet normal -0.587785 -0.809017 0
    outer loop
      vertex -3 -23.1962 4.8
      vertex -4.01478 -22.4589 4.8
      vertex -3 -23.1962 0
    endloop
  endfacet
  facet normal -0.406737 -0.913545 0
    outer loop
      vertex -3 -23.1962 4.8
      vertex -3 -23.1962 0
      vertex -1.8541 -23.7063 0
    endloop
  endfacet
  facet normal -0.406737 -0.913545 0
    outer loop
      vertex -1.8541 -23.7063 4.8
      vertex -3 -23.1962 4.8
      vertex -1.8541 -23.7063 0
    endloop
  endfacet
  facet normal -0.207912 -0.978148 0
    outer loop
      vertex -1.8541 -23.7063 4.8
      vertex -1.8541 -23.7063 0
      vertex -0.627171 -23.9671 0
    endloop
  endfacet
  facet normal -0.207912 -0.978148 0
    outer loop
      vertex -0.627171 -23.9671 4.8
      vertex -1.8541 -23.7063 4.8
      vertex -0.627171 -23.9671 0
    endloop
  endfacet
  facet normal 0 -1 0
    outer loop
      vertex -0.627171 -23.9671 4.8
      vertex -0.627171 -23.9671 0
      vertex 0.627171 -23.9671 0
    endloop
  endfacet
  facet normal 0 -1 0
    outer loop
      vertex 0.627171 -23.9671 4.8
      vertex -0.627171 -23.9671 4.8
      vertex 0.627171 -23.9671 0
    endloop
  endfacet
  facet normal 0.207912 -0.978148 0
    outer loop
      vertex 0.627171 -23.9671 4.8
      vertex 0.627171 -23.9671 0
      vertex 1.8541 -23.7063 0
    endloop
  endfacet
  facet normal 0.207912 -0.978148 0
    outer loop
      vertex 1.8541 -23.7063 4.8
      vertex 0.627171 -23.9671 4.8
      vertex 1.8541 -23.7063 0
    endloop
  endfacet
  facet normal 0.406737 -0.913545 0
    outer loop
      vertex 1.8541 -23.7063 4.8
      vertex 1.8541 -23.7063 0
      vertex 3 -23.1962 0
    endloop
  endfacet
  facet normal 0.406737 -0.913545 0
    outer loop
      vertex 3 -23.1962 4.8
      vertex 1.8541 -23.7063 4.8
      vertex 3 -23.1962 0
    endloop
  endfacet
  facet normal 0.587785 -0.809017 0
    outer loop
      vertex 3 -23.1962 4.8
      vertex 3 -23.1962 0
      vertex 4.01478 -22.4589 0
    endloop
  endfacet
  facet normal 0.587785 -0.809017 0
    outer loop
      vertex 4.01478 -22.4589 4.8
      vertex 3 -23.1962 4.8
      vertex 4.01478 -22.4589 0
    endloop
  endfacet
  facet normal 0.713954 -0.700193 0
    outer loop
      vertex 4.01478 -22.4589 4.8
      vertex 4.01478 -22.4589 0
      vertex 18.4271 -7.76336 0
    endloop
  endfacet
  facet normal 0.713954 -0.700193 0
    outer loop
      vertex 18.4271 -7.76336 4.8
      vertex 4.01478 -22.4589 4.8
      vertex 18.4271 -7.76336 0
    endloop
  endfacet
  facet normal 0.951057 -0.309017 0
    outer loop
      vertex 18.4271 -7.76336 4.8
      vertex 18.4271 -7.76336 0
      vertex 19 -6 0
    endloop
  endfacet
  facet normal 0.951057 -0.309017 0
    outer loop
      vertex 19 -6 4.8
      vertex 18.4271 -7.76336 4.8
      vertex 19 -6 0
    endloop
  endfacet
  facet normal 1 0 0
    outer loop
      vertex 19 -6 4.8
      vertex 19 -6 0
      vertex 19 6 0
    endloop
  endfacet
  facet normal 1 0 0
    outer loop
      vertex 19 6 4.8
      vertex 19 -6 4.8
      vertex 19 6 0
    endloop
  endfacet
  facet normal 0.963774 0.266719 0
    outer loop
      vertex 19 6 0
      vertex 7.1 49 0
      vertex 7.1 49 4.8
    endloop
  endfacet
  facet normal 0.963774 0.266719 0
    outer loop
      vertex 19 6 4.8
      vertex 19 6 0
      vertex 7.1 49 4.8
    endloop
  endfacet
  facet normal 0.951059 0.30901 0
    outer loop
      vertex 7.1 49 0
      vertex 7.0809 49.0588 0
      vertex 7.0809 49.0588 4.8
    endloop
  endfacet
  facet normal 0.951059 0.30901 0
    outer loop
      vertex 7.1 49 4.8
      vertex 7.1 49 0
      vertex 7.0809 49.0588 4.8
    endloop
  endfacet
  facet normal 0.939359 0.342937 0
    outer loop
      vertex 7.0809 49.0588 0
      vertex 5.48127 53.4404 0
      vertex 5.48127 53.4404 4.8
    endloop
  endfacet
  facet normal 0.939359 0.342937 0
    outer loop
      vertex 7.0809 49.0588 4.8
      vertex 7.0809 49.0588 0
      vertex 5.48127 53.4404 4.8
    endloop
  endfacet
  facet normal 0.866025 0.5 0
    outer loop
      vertex 5.48127 53.4404 0
      vertex 4.8541 54.5267 0
      vertex 4.8541 54.5267 4.8
    endloop
  endfacet
  facet normal 0.866025 0.5 0
    outer loop
      vertex 5.48127 53.4404 4.8
      vertex 5.48127 53.4404 0
      vertex 4.8541 54.5267 4.8
    endloop
  endfacet
  facet normal 0.743145 0.669131 0
    outer loop
      vertex 4.8541 54.5267 0
      vertex 4.01478 55.4589 0
      vertex 4.01478 55.4589 4.8
    endloop
  endfacet
  facet normal 0.743145 0.669131 0
    outer loop
      vertex 4.8541 54.5267 4.8
      vertex 4.8541 54.5267 0
      vertex 4.01478 55.4589 4.8
    endloop
  endfacet
  facet normal 0.587785 0.809017 0
    outer loop
      vertex 3 56.1962 0
      vertex 3 56.1962 4.8
      vertex 4.01478 55.4589 0
    endloop
  endfacet
  facet normal 0.587785 0.809017 0
    outer loop
      vertex 4.01478 55.4589 0
      vertex 3 56.1962 4.8
      vertex 4.01478 55.4589 4.8
    endloop
  endfacet
  facet normal 0.406737 0.913545 0
    outer loop
      vertex 1.8541 56.7063 0
      vertex 1.8541 56.7063 4.8
      vertex 3 56.1962 0
    endloop
  endfacet
  facet normal 0.406737 0.913545 0
    outer loop
      vertex 3 56.1962 0
      vertex 1.8541 56.7063 4.8
      vertex 3 56.1962 4.8
    endloop
  endfacet
  facet normal 0.207912 0.978148 0
    outer loop
      vertex 0.627171 56.9671 0
      vertex 0.627171 56.9671 4.8
      vertex 1.8541 56.7063 0
    endloop
  endfacet
  facet normal 0.207912 0.978148 0
    outer loop
      vertex 1.8541 56.7063 0
      vertex 0.627171 56.9671 4.8
      vertex 1.8541 56.7063 4.8
    endloop
  endfacet
  facet normal 0 1 0
    outer loop
      vertex -0.627171 56.9671 0
      vertex -0.627171 56.9671 4.8
      vertex 0.627171 56.9671 0
    endloop
  endfacet
  facet normal 0 1 0
    outer loop
      vertex 0.627171 56.9671 0
      vertex -0.627171 56.9671 4.8
      vertex 0.627171 56.9671 4.8
    endloop
  endfacet
  facet normal -0.207912 0.978148 0
    outer loop
      vertex -1.8541 56.7063 0
      vertex -1.8541 56.7063 4.8
      vertex -0.627171 56.9671 0
    endloop
  endfacet
  facet normal -0.207912 0.978148 0
    outer loop
      vertex -0.627171 56.9671 0
      vertex -1.8541 56.7063 4.8
      vertex -0.627171 56.9671 4.8
    endloop
  endfacet
  facet normal -0.406737 0.913545 0
    outer loop
      vertex -3 56.1962 0
      vertex -3 56.1962 4.8
      vertex -1.8541 56.7063 0
    endloop
  endfacet
  facet normal -0.406737 0.913545 0
    outer loop
      vertex -1.8541 56.7063 0
      vertex -3 56.1962 4.8
      vertex -1.8541 56.7063 4.8
    endloop
  endfacet
  facet normal -0.587785 0.809017 0
    outer loop
      vertex -4.01478 55.4589 0
      vertex -4.01478 55.4589 4.8
      vertex -3 56.1962 0
    endloop
  endfacet
  facet normal -0.587785 0.809017 0
    outer loop
      vertex -3 56.1962 0
      vertex -4.01478 55.4589 4.8
      vertex -3 56.1962 4.8
    endloop
  endfacet
  facet normal -0.743145 0.669131 0
    outer loop
      vertex -4.8541 54.5267 0
      vertex -4.8541 54.5267 4.8
      vertex -4.01478 55.4589 0
    endloop
  endfacet
  facet normal -0.743145 0.669131 0
    outer loop
      vertex -4.01478 55.4589 0
      vertex -4.8541 54.5267 4.8
      vertex -4.01478 55.4589 4.8
    endloop
  endfacet
  facet normal -0.866025 0.5 0
    outer loop
      vertex -5.48127 53.4404 0
      vertex -5.48127 53.4404 4.8
      vertex -4.8541 54.5267 0
    endloop
  endfacet
  facet normal -0.866025 0.5 0
    outer loop
      vertex -4.8541 54.5267 0
      vertex -5.48127 53.4404 4.8
      vertex -4.8541 54.5267 4.8
    endloop
  endfacet
  facet normal -0.951057 0.309017 0
    outer loop
      vertex -5.86889 52.2475 0
      vertex -5.86889 52.2475 4.8
      vertex -5.48127 53.4404 0
    endloop
  endfacet
  facet normal -0.951057 0.309017 0
    outer loop
      vertex -5.48127 53.4404 0
      vertex -5.86889 52.2475 4.8
      vertex -5.48127 53.4404 4.8
    endloop
  endfacet
  facet normal 0.994522 -0.104529 0
    outer loop
      vertex -1.95629 -17.5842 0
      vertex -1.95629 -17.5842 4.8
      vertex -2 -18 4.8
    endloop
  endfacet
  facet normal 0.994522 -0.104529 0
    outer loop
      vertex -2 -18 0
      vertex -1.95629 -17.5842 0
      vertex -2 -18 4.8
    endloop
  endfacet
  facet normal 0.994522 0.104529 0
    outer loop
      vertex -2 -18 4.8
      vertex -1.95629 -18.4158 4.8
      vertex -1.95629 -18.4158 0
    endloop
  endfacet
  facet normal 0.994522 0.104529 0
    outer loop
      vertex -2 -18 0
      vertex -2 -18 4.8
      vertex -1.95629 -18.4158 0
    endloop
  endfacet
  facet normal 0.951057 -0.309016 0
    outer loop
      vertex -1.82709 -17.1865 0
      vertex -1.82709 -17.1865 4.8
      vertex -1.95629 -17.5842 4.8
    endloop
  endfacet
  facet normal 0.951057 -0.309016 0
    outer loop
      vertex -1.95629 -17.5842 0
      vertex -1.82709 -17.1865 0
      vertex -1.95629 -17.5842 4.8
    endloop
  endfacet
  facet normal 0.866026 -0.499999 0
    outer loop
      vertex -1.61803 -16.8244 0
      vertex -1.61803 -16.8244 4.8
      vertex -1.82709 -17.1865 4.8
    endloop
  endfacet
  facet normal 0.866026 -0.499999 0
    outer loop
      vertex -1.82709 -17.1865 0
      vertex -1.61803 -16.8244 0
      vertex -1.82709 -17.1865 4.8
    endloop
  endfacet
  facet normal 0.743144 -0.669131 0
    outer loop
      vertex -1.33826 -16.5137 0
      vertex -1.33826 -16.5137 4.8
      vertex -1.61803 -16.8244 4.8
    endloop
  endfacet
  facet normal 0.743144 -0.669131 0
    outer loop
      vertex -1.61803 -16.8244 0
      vertex -1.33826 -16.5137 0
      vertex -1.61803 -16.8244 4.8
    endloop
  endfacet
  facet normal 0.587785 -0.809017 0
    outer loop
      vertex -1 -16.2679 0
      vertex -1 -16.2679 4.8
      vertex -1.33826 -16.5137 4.8
    endloop
  endfacet
  facet normal 0.587785 -0.809017 0
    outer loop
      vertex -1.33826 -16.5137 0
      vertex -1 -16.2679 0
      vertex -1.33826 -16.5137 4.8
    endloop
  endfacet
  facet normal 0.406736 -0.913546 0
    outer loop
      vertex -0.618034 -16.0979 0
      vertex -0.618034 -16.0979 4.8
      vertex -1 -16.2679 4.8
    endloop
  endfacet
  facet normal 0.406736 -0.913546 0
    outer loop
      vertex -1 -16.2679 0
      vertex -0.618034 -16.0979 0
      vertex -1 -16.2679 4.8
    endloop
  endfacet
  facet normal 0.207912 -0.978147 0
    outer loop
      vertex -0.209057 -16.011 0
      vertex -0.209057 -16.011 4.8
      vertex -0.618034 -16.0979 4.8
    endloop
  endfacet
  facet normal 0.207912 -0.978147 0
    outer loop
      vertex -0.618034 -16.0979 0
      vertex -0.209057 -16.011 0
      vertex -0.618034 -16.0979 4.8
    endloop
  endfacet
  facet normal 0 -1 0
    outer loop
      vertex 0.209057 -16.011 0
      vertex 0.209057 -16.011 4.8
      vertex -0.209057 -16.011 4.8
    endloop
  endfacet
  facet normal 0 -1 0
    outer loop
      vertex -0.209057 -16.011 0
      vertex 0.209057 -16.011 0
      vertex -0.209057 -16.011 4.8
    endloop
  endfacet
  facet normal -0.207912 -0.978147 0
    outer loop
      vertex 0.618034 -16.0979 0
      vertex 0.618034 -16.0979 4.8
      vertex 0.209057 -16.011 4.8
    endloop
  endfacet
  facet normal -0.207912 -0.978147 0
    outer loop
      vertex 0.209057 -16.011 0
      vertex 0.618034 -16.0979 0
      vertex 0.209057 -16.011 4.8
    endloop
  endfacet
  facet normal -0.406736 -0.913546 0
    outer loop
      vertex 1 -16.2679 0
      vertex 1 -16.2679 4.8
      vertex 0.618034 -16.0979 4.8
    endloop
  endfacet
  facet normal -0.406736 -0.913546 0
    outer loop
      vertex 0.618034 -16.0979 0
      vertex 1 -16.2679 0
      vertex 0.618034 -16.0979 4.8
    endloop
  endfacet
  facet normal -0.587785 -0.809017 0
    outer loop
      vertex 1.33826 -16.5137 0
      vertex 1.33826 -16.5137 4.8
      vertex 1 -16.2679 4.8
    endloop
  endfacet
  facet normal -0.587785 -0.809017 0
    outer loop
      vertex 1 -16.2679 0
      vertex 1.33826 -16.5137 0
      vertex 1 -16.2679 4.8
    endloop
  endfacet
  facet normal -0.743144 -0.669131 0
    outer loop
      vertex 1.61803 -16.8244 4.8
      vertex 1.33826 -16.5137 4.8
      vertex 1.61803 -16.8244 0
    endloop
  endfacet
  facet normal -0.743144 -0.669131 0
    outer loop
      vertex 1.61803 -16.8244 0
      vertex 1.33826 -16.5137 4.8
      vertex 1.33826 -16.5137 0
    endloop
  endfacet
  facet normal -0.866026 -0.499999 0
    outer loop
      vertex 1.82709 -17.1865 4.8
      vertex 1.61803 -16.8244 4.8
      vertex 1.82709 -17.1865 0
    endloop
  endfacet
  facet normal -0.866026 -0.499999 0
    outer loop
      vertex 1.82709 -17.1865 0
      vertex 1.61803 -16.8244 4.8
      vertex 1.61803 -16.8244 0
    endloop
  endfacet
  facet normal -0.951057 -0.309016 0
    outer loop
      vertex 1.95629 -17.5842 4.8
      vertex 1.82709 -17.1865 4.8
      vertex 1.95629 -17.5842 0
    endloop
  endfacet
  facet normal -0.951057 -0.309016 0
    outer loop
      vertex 1.95629 -17.5842 0
      vertex 1.82709 -17.1865 4.8
      vertex 1.82709 -17.1865 0
    endloop
  endfacet
  facet normal -0.994522 -0.104529 0
    outer loop
      vertex 2 -18 4.8
      vertex 1.95629 -17.5842 4.8
      vertex 2 -18 0
    endloop
  endfacet
  facet normal -0.994522 -0.104529 0
    outer loop
      vertex 2 -18 0
      vertex 1.95629 -17.5842 4.8
      vertex 1.95629 -17.5842 0
    endloop
  endfacet
  facet normal -0.994522 0.104529 0
    outer loop
      vertex 2 -18 4.8
      vertex 2 -18 0
      vertex 1.95629 -18.4158 4.8
    endloop
  endfacet
  facet normal -0.994522 0.104529 0
    outer loop
      vertex 1.95629 -18.4158 4.8
      vertex 2 -18 0
      vertex 1.95629 -18.4158 0
    endloop
  endfacet
  facet normal -0.951057 0.309016 0
    outer loop
      vertex 1.95629 -18.4158 4.8
      vertex 1.95629 -18.4158 0
      vertex 1.82709 -18.8135 4.8
    endloop
  endfacet
  facet normal -0.951057 0.309016 0
    outer loop
      vertex 1.82709 -18.8135 4.8
      vertex 1.95629 -18.4158 0
      vertex 1.82709 -18.8135 0
    endloop
  endfacet
  facet normal -0.866026 0.499999 0
    outer loop
      vertex 1.82709 -18.8135 4.8
      vertex 1.82709 -18.8135 0
      vertex 1.61803 -19.1756 4.8
    endloop
  endfacet
  facet normal -0.866026 0.499999 0
    outer loop
      vertex 1.61803 -19.1756 4.8
      vertex 1.82709 -18.8135 0
      vertex 1.61803 -19.1756 0
    endloop
  endfacet
  facet normal -0.743144 0.669131 0
    outer loop
      vertex 1.61803 -19.1756 4.8
      vertex 1.61803 -19.1756 0
      vertex 1.33826 -19.4863 4.8
    endloop
  endfacet
  facet normal -0.743144 0.669131 0
    outer loop
      vertex 1.33826 -19.4863 4.8
      vertex 1.61803 -19.1756 0
      vertex 1.33826 -19.4863 0
    endloop
  endfacet
  facet normal -0.587785 0.809017 0
    outer loop
      vertex 1.33826 -19.4863 4.8
      vertex 1.33826 -19.4863 0
      vertex 1 -19.7321 4.8
    endloop
  endfacet
  facet normal -0.587785 0.809017 0
    outer loop
      vertex 1 -19.7321 4.8
      vertex 1.33826 -19.4863 0
      vertex 1 -19.7321 0
    endloop
  endfacet
  facet normal -0.406736 0.913546 0
    outer loop
      vertex 1 -19.7321 4.8
      vertex 1 -19.7321 0
      vertex 0.618034 -19.9021 4.8
    endloop
  endfacet
  facet normal -0.406736 0.913546 0
    outer loop
      vertex 0.618034 -19.9021 4.8
      vertex 1 -19.7321 0
      vertex 0.618034 -19.9021 0
    endloop
  endfacet
  facet normal -0.207912 0.978147 0
    outer loop
      vertex 0.618034 -19.9021 4.8
      vertex 0.618034 -19.9021 0
      vertex 0.209057 -19.989 4.8
    endloop
  endfacet
  facet normal -0.207912 0.978147 0
    outer loop
      vertex 0.209057 -19.989 4.8
      vertex 0.618034 -19.9021 0
      vertex 0.209057 -19.989 0
    endloop
  endfacet
  facet normal 0 1 0
    outer loop
      vertex 0.209057 -19.989 4.8
      vertex 0.209057 -19.989 0
      vertex -0.209057 -19.989 4.8
    endloop
  endfacet
  facet normal 0 1 0
    outer loop
      vertex -0.209057 -19.989 4.8
      vertex 0.209057 -19.989 0
      vertex -0.209057 -19.989 0
    endloop
  endfacet
  facet normal 0.207912 0.978147 0
    outer loop
      vertex -0.209057 -19.989 4.8
      vertex -0.209057 -19.989 0
      vertex -0.618034 -19.9021 4.8
    endloop
  endfacet
  facet normal 0.207912 0.978147 0
    outer loop
      vertex -0.618034 -19.9021 4.8
      vertex -0.209057 -19.989 0
      vertex -0.618034 -19.9021 0
    endloop
  endfacet
  facet normal 0.406736 0.913546 0
    outer loop
      vertex -0.618034 -19.9021 4.8
      vertex -0.618034 -19.9021 0
      vertex -1 -19.7321 4.8
    endloop
  endfacet
  facet normal 0.406736 0.913546 0
    outer loop
      vertex -1 -19.7321 4.8
      vertex -0.618034 -19.9021 0
      vertex -1 -19.7321 0
    endloop
  endfacet
  facet normal 0.587785 0.809017 0
    outer loop
      vertex -1 -19.7321 4.8
      vertex -1 -19.7321 0
      vertex -1.33826 -19.4863 4.8
    endloop
  endfacet
  facet normal 0.587785 0.809017 0
    outer loop
      vertex -1.33826 -19.4863 4.8
      vertex -1 -19.7321 0
      vertex -1.33826 -19.4863 0
    endloop
  endfacet
  facet normal 0.743144 0.669131 0
    outer loop
      vertex -1.61803 -19.1756 4.8
      vertex -1.33826 -19.4863 4.8
      vertex -1.33826 -19.4863 0
    endloop
  endfacet
  facet normal 0.743144 0.669131 0
    outer loop
      vertex -1.61803 -19.1756 0
      vertex -1.61803 -19.1756 4.8
      vertex -1.33826 -19.4863 0
    endloop
  endfacet
  facet normal 0.866026 0.499999 0
    outer loop
      vertex -1.82709 -18.8135 4.8
      vertex -1.61803 -19.1756 4.8
      vertex -1.61803 -19.1756 0
    endloop
  endfacet
  facet normal 0.866026 0.499999 0
    outer loop
      vertex -1.82709 -18.8135 0
      vertex -1.82709 -18.8135 4.8
      vertex -1.61803 -19.1756 0
    endloop
  endfacet
  facet normal 0.951057 0.309016 0
    outer loop
      vertex -1.95629 -18.4158 4.8
      vertex -1.82709 -18.8135 4.8
      vertex -1.82709 -18.8135 0
    endloop
  endfacet
  facet normal 0.951057 0.309016 0
    outer loop
      vertex -1.95629 -18.4158 0
      vertex -1.95629 -18.4158 4.8
      vertex -1.82709 -18.8135 0
    endloop
  endfacet
  facet normal 0.994522 -0.104529 0
    outer loop
      vertex -1.95629 51.4158 0
      vertex -1.95629 51.4158 4.8
      vertex -2 51 4.8
    endloop
  endfacet
  facet normal 0.994522 -0.104529 0
    outer loop
      vertex -2 51 0
      vertex -1.95629 51.4158 0
      vertex -2 51 4.8
    endloop
  endfacet
  facet normal 0.994522 0.104529 0
    outer loop
      vertex -2 51 4.8
      vertex -1.95629 50.5842 4.8
      vertex -1.95629 50.5842 0
    endloop
  endfacet
  facet normal 0.994522 0.104529 0
    outer loop
      vertex -2 51 0
      vertex -2 51 4.8
      vertex -1.95629 50.5842 0
    endloop
  endfacet
  facet normal 0.951057 -0.309016 0
    outer loop
      vertex -1.82709 51.8135 0
      vertex -1.82709 51.8135 4.8
      vertex -1.95629 51.4158 4.8
    endloop
  endfacet
  facet normal 0.951057 -0.309016 0
    outer loop
      vertex -1.95629 51.4158 0
      vertex -1.82709 51.8135 0
      vertex -1.95629 51.4158 4.8
    endloop
  endfacet
  facet normal 0.866026 -0.499999 0
    outer loop
      vertex -1.61803 52.1756 0
      vertex -1.61803 52.1756 4.8
      vertex -1.82709 51.8135 4.8
    endloop
  endfacet
  facet normal 0.866026 -0.499999 0
    outer loop
      vertex -1.82709 51.8135 0
      vertex -1.61803 52.1756 0
      vertex -1.82709 51.8135 4.8
    endloop
  endfacet
  facet normal 0.743144 -0.669131 0
    outer loop
      vertex -1.33826 52.4863 0
      vertex -1.33826 52.4863 4.8
      vertex -1.61803 52.1756 4.8
    endloop
  endfacet
  facet normal 0.743144 -0.669131 0
    outer loop
      vertex -1.61803 52.1756 0
      vertex -1.33826 52.4863 0
      vertex -1.61803 52.1756 4.8
    endloop
  endfacet
  facet normal 0.587785 -0.809017 0
    outer loop
      vertex -1 52.7321 0
      vertex -1 52.7321 4.8
      vertex -1.33826 52.4863 4.8
    endloop
  endfacet
  facet normal 0.587785 -0.809017 0
    outer loop
      vertex -1.33826 52.4863 0
      vertex -1 52.7321 0
      vertex -1.33826 52.4863 4.8
    endloop
  endfacet
  facet normal 0.406736 -0.913546 0
    outer loop
      vertex -0.618034 52.9021 0
      vertex -0.618034 52.9021 4.8
      vertex -1 52.7321 4.8
    endloop
  endfacet
  facet normal 0.406736 -0.913546 0
    outer loop
      vertex -1 52.7321 0
      vertex -0.618034 52.9021 0
      vertex -1 52.7321 4.8
    endloop
  endfacet
  facet normal 0.207912 -0.978147 0
    outer loop
      vertex -0.209057 52.989 0
      vertex -0.209057 52.989 4.8
      vertex -0.618034 52.9021 4.8
    endloop
  endfacet
  facet normal 0.207912 -0.978147 0
    outer loop
      vertex -0.618034 52.9021 0
      vertex -0.209057 52.989 0
      vertex -0.618034 52.9021 4.8
    endloop
  endfacet
  facet normal 0 -1 0
    outer loop
      vertex 0.209057 52.989 0
      vertex 0.209057 52.989 4.8
      vertex -0.209057 52.989 4.8
    endloop
  endfacet
  facet normal 0 -1 0
    outer loop
      vertex -0.209057 52.989 0
      vertex 0.209057 52.989 0
      vertex -0.209057 52.989 4.8
    endloop
  endfacet
  facet normal -0.207912 -0.978147 0
    outer loop
      vertex 0.618034 52.9021 0
      vertex 0.618034 52.9021 4.8
      vertex 0.209057 52.989 4.8
    endloop
  endfacet
  facet normal -0.207912 -0.978147 0
    outer loop
      vertex 0.209057 52.989 0
      vertex 0.618034 52.9021 0
      vertex 0.209057 52.989 4.8
    endloop
  endfacet
  facet normal -0.406736 -0.913546 0
    outer loop
      vertex 1 52.7321 0
      vertex 1 52.7321 4.8
      vertex 0.618034 52.9021 4.8
    endloop
  endfacet
  facet normal -0.406736 -0.913546 0
    outer loop
      vertex 0.618034 52.9021 0
      vertex 1 52.7321 0
      vertex 0.618034 52.9021 4.8
    endloop
  endfacet
  facet normal -0.587785 -0.809017 0
    outer loop
      vertex 1.33826 52.4863 0
      vertex 1.33826 52.4863 4.8
      vertex 1 52.7321 4.8
    endloop
  endfacet
  facet normal -0.587785 -0.809017 0
    outer loop
      vertex 1 52.7321 0
      vertex 1.33826 52.4863 0
      vertex 1 52.7321 4.8
    endloop
  endfacet
  facet normal -0.743144 -0.669131 0
    outer loop
      vertex 1.61803 52.1756 4.8
      vertex 1.33826 52.4863 4.8
      vertex 1.61803 52.1756 0
    endloop
  endfacet
  facet normal -0.743144 -0.669131 0
    outer loop
      vertex 1.61803 52.1756 0
      vertex 1.33826 52.4863 4.8
      vertex 1.33826 52.4863 0
    endloop
  endfacet
  facet normal -0.866026 -0.499999 0
    outer loop
      vertex 1.82709 51.8135 4.8
      vertex 1.61803 52.1756 4.8
      vertex 1.82709 51.8135 0
    endloop
  endfacet
  facet normal -0.866026 -0.499999 0
    outer loop
      vertex 1.82709 51.8135 0
      vertex 1.61803 52.1756 4.8
      vertex 1.61803 52.1756 0
    endloop
  endfacet
  facet normal -0.951057 -0.309016 0
    outer loop
      vertex 1.95629 51.4158 4.8
      vertex 1.82709 51.8135 4.8
      vertex 1.95629 51.4158 0
    endloop
  endfacet
  facet normal -0.951057 -0.309016 0
    outer loop
      vertex 1.95629 51.4158 0
      vertex 1.82709 51.8135 4.8
      vertex 1.82709 51.8135 0
    endloop
  endfacet
  facet normal -0.994522 -0.104529 0
    outer loop
      vertex 2 51 4.8
      vertex 1.95629 51.4158 4.8
      vertex 2 51 0
    endloop
  endfacet
  facet normal -0.994522 -0.104529 0
    outer loop
      vertex 2 51 0
      vertex 1.95629 51.4158 4.8
      vertex 1.95629 51.4158 0
    endloop
  endfacet
  facet normal -0.994522 0.104529 0
    outer loop
      vertex 2 51 4.8
      vertex 2 51 0
      vertex 1.95629 50.5842 4.8
    endloop
  endfacet
  facet normal -0.994522 0.104529 0
    outer loop
      vertex 1.95629 50.5842 4.8
      vertex 2 51 0
      vertex 1.95629 50.5842 0
    endloop
  endfacet
  facet normal -0.951057 0.309016 0
    outer loop
      vertex 1.95629 50.5842 4.8
      vertex 1.95629 50.5842 0
      vertex 1.82709 50.1865 4.8
    endloop
  endfacet
  facet normal -0.951057 0.309016 0
    outer loop
      vertex 1.82709 50.1865 4.8
      vertex 1.95629 50.5842 0
      vertex 1.82709 50.1865 0
    endloop
  endfacet
  facet normal -0.866026 0.499999 0
    outer loop
      vertex 1.82709 50.1865 4.8
      vertex 1.82709 50.1865 0
      vertex 1.61803 49.8244 4.8
    endloop
  endfacet
  facet normal -0.866026 0.499999 0
    outer loop
      vertex 1.61803 49.8244 4.8
      vertex 1.82709 50.1865 0
      vertex 1.61803 49.8244 0
    endloop
  endfacet
  facet normal -0.743144 0.669131 0
    outer loop
      vertex 1.61803 49.8244 4.8
      vertex 1.61803 49.8244 0
      vertex 1.33826 49.5137 4.8
    endloop
  endfacet
  facet normal -0.743144 0.669131 0
    outer loop
      vertex 1.33826 49.5137 4.8
      vertex 1.61803 49.8244 0
      vertex 1.33826 49.5137 0
    endloop
  endfacet
  facet normal -0.587785 0.809017 0
    outer loop
      vertex 1.33826 49.5137 4.8
      vertex 1.33826 49.5137 0
      vertex 1 49.2679 4.8
    endloop
  endfacet
  facet normal -0.587785 0.809017 0
    outer loop
      vertex 1 49.2679 4.8
      vertex 1.33826 49.5137 0
      vertex 1 49.2679 0
    endloop
  endfacet
  facet normal -0.406736 0.913546 0
    outer loop
      vertex 1 49.2679 4.8
      vertex 1 49.2679 0
      vertex 0.618034 49.0979 4.8
    endloop
  endfacet
  facet normal -0.406736 0.913546 0
    outer loop
      vertex 0.618034 49.0979 4.8
      vertex 1 49.2679 0
      vertex 0.618034 49.0979 0
    endloop
  endfacet
  facet normal -0.207912 0.978147 0
    outer loop
      vertex 0.618034 49.0979 4.8
      vertex 0.618034 49.0979 0
      vertex 0.209057 49.011 4.8
    endloop
  endfacet
  facet normal -0.207912 0.978147 0
    outer loop
      vertex 0.209057 49.011 4.8
      vertex 0.618034 49.0979 0
      vertex 0.209057 49.011 0
    endloop
  endfacet
  facet normal 0 1 0
    outer loop
      vertex 0.209057 49.011 4.8
      vertex 0.209057 49.011 0
      vertex -0.209057 49.011 4.8
    endloop
  endfacet
  facet normal 0 1 0
    outer loop
      vertex -0.209057 49.011 4.8
      vertex 0.209057 49.011 0
      vertex -0.209057 49.011 0
    endloop
  endfacet
  facet normal 0.207912 0.978147 0
    outer loop
      vertex -0.209057 49.011 4.8
      vertex -0.209057 49.011 0
      vertex -0.618034 49.0979 4.8
    endloop
  endfacet
  facet normal 0.207912 0.978147 0
    outer loop
      vertex -0.618034 49.0979 4.8
      vertex -0.209057 49.011 0
      vertex -0.618034 49.0979 0
    endloop
  endfacet
  facet normal 0.406736 0.913546 0
    outer loop
      vertex -0.618034 49.0979 4.8
      vertex -0.618034 49.0979 0
      vertex -1 49.2679 4.8
    endloop
  endfacet
  facet normal 0.406736 0.913546 0
    outer loop
      vertex -1 49.2679 4.8
      vertex -0.618034 49.0979 0
      vertex -1 49.2679 0
    endloop
  endfacet
  facet normal 0.587785 0.809017 0
    outer loop
      vertex -1 49.2679 4.8
      vertex -1 49.2679 0
      vertex -1.33826 49.5137 4.8
    endloop
  endfacet
  facet normal 0.587785 0.809017 0
    outer loop
      vertex -1.33826 49.5137 4.8
      vertex -1 49.2679 0
      vertex -1.33826 49.5137 0
    endloop
  endfacet
  facet normal 0.743144 0.669131 0
    outer loop
      vertex -1.61803 49.8244 4.8
      vertex -1.33826 49.5137 4.8
      vertex -1.33826 49.5137 0
    endloop
  endfacet
  facet normal 0.743144 0.669131 0
    outer loop
      vertex -1.61803 49.8244 0
      vertex -1.61803 49.8244 4.8
      vertex -1.33826 49.5137 0
    endloop
  endfacet
  facet normal 0.866026 0.499999 0
    outer loop
      vertex -1.82709 50.1865 4.8
      vertex -1.61803 49.8244 4.8
      vertex -1.61803 49.8244 0
    endloop
  endfacet
  facet normal 0.866026 0.499999 0
    outer loop
      vertex -1.82709 50.1865 0
      vertex -1.82709 50.1865 4.8
      vertex -1.61803 49.8244 0
    endloop
  endfacet
  facet normal 0.951057 0.309016 0
    outer loop
      vertex -1.95629 50.5842 4.8
      vertex -1.82709 50.1865 4.8
      vertex -1.82709 50.1865 0
    endloop
  endfacet
  facet normal 0.951057 0.309016 0
    outer loop
      vertex -1.95629 50.5842 0
      vertex -1.95629 50.5842 4.8
      vertex -1.82709 50.1865 0
    endloop
  endfacet
  facet normal 0.951056 -0.309017 0
    outer loop
      vertex 13.7865 -5.11832 0
      vertex 13.7865 -5.11832 4.8
      vertex 13.5 -6 4.8
    endloop
  endfacet
  facet normal 0.951056 -0.309017 0
    outer loop
      vertex 13.5 -6 0
      vertex 13.7865 -5.11832 0
      vertex 13.5 -6 4.8
    endloop
  endfacet
  facet normal 0.951056 0.309017 0
    outer loop
      vertex 13.5 -6 4.8
      vertex 13.7865 -6.88168 4.8
      vertex 13.7865 -6.88168 0
    endloop
  endfacet
  facet normal 0.951056 0.309017 0
    outer loop
      vertex 13.5 -6 0
      vertex 13.5 -6 4.8
      vertex 13.7865 -6.88168 0
    endloop
  endfacet
  facet normal 0.587785 -0.809017 0
    outer loop
      vertex 14.5365 -4.57341 0
      vertex 14.5365 -4.57341 4.8
      vertex 13.7865 -5.11832 4.8
    endloop
  endfacet
  facet normal 0.587785 -0.809017 0
    outer loop
      vertex 13.7865 -5.11832 0
      vertex 14.5365 -4.57341 0
      vertex 13.7865 -5.11832 4.8
    endloop
  endfacet
  facet normal 0 -1 0
    outer loop
      vertex 15.4635 -4.57341 0
      vertex 15.4635 -4.57341 4.8
      vertex 14.5365 -4.57341 4.8
    endloop
  endfacet
  facet normal 0 -1 0
    outer loop
      vertex 14.5365 -4.57341 0
      vertex 15.4635 -4.57341 0
      vertex 14.5365 -4.57341 4.8
    endloop
  endfacet
  facet normal -0.587785 -0.809017 0
    outer loop
      vertex 16.2135 -5.11832 0
      vertex 16.2135 -5.11832 4.8
      vertex 15.4635 -4.57341 4.8
    endloop
  endfacet
  facet normal -0.587785 -0.809017 0
    outer loop
      vertex 15.4635 -4.57341 0
      vertex 16.2135 -5.11832 0
      vertex 15.4635 -4.57341 4.8
    endloop
  endfacet
  facet normal -0.951056 -0.309017 0
    outer loop
      vertex 16.5 -6 4.8
      vertex 16.2135 -5.11832 4.8
      vertex 16.5 -6 0
    endloop
  endfacet
  facet normal -0.951056 -0.309017 0
    outer loop
      vertex 16.5 -6 0
      vertex 16.2135 -5.11832 4.8
      vertex 16.2135 -5.11832 0
    endloop
  endfacet
  facet normal -0.951056 0.309017 0
    outer loop
      vertex 16.5 -6 4.8
      vertex 16.5 -6 0
      vertex 16.2135 -6.88168 4.8
    endloop
  endfacet
  facet normal -0.951056 0.309017 0
    outer loop
      vertex 16.2135 -6.88168 4.8
      vertex 16.5 -6 0
      vertex 16.2135 -6.88168 0
    endloop
  endfacet
  facet normal -0.587785 0.809017 0
    outer loop
      vertex 16.2135 -6.88168 4.8
      vertex 16.2135 -6.88168 0
      vertex 15.4635 -7.42658 4.8
    endloop
  endfacet
  facet normal -0.587785 0.809017 0
    outer loop
      vertex 15.4635 -7.42658 4.8
      vertex 16.2135 -6.88168 0
      vertex 15.4635 -7.42658 0
    endloop
  endfacet
  facet normal 0 1 0
    outer loop
      vertex 15.4635 -7.42658 4.8
      vertex 15.4635 -7.42658 0
      vertex 14.5365 -7.42658 4.8
    endloop
  endfacet
  facet normal 0 1 0
    outer loop
      vertex 14.5365 -7.42658 4.8
      vertex 15.4635 -7.42658 0
      vertex 14.5365 -7.42658 0
    endloop
  endfacet
  facet normal 0.587785 0.809017 0
    outer loop
      vertex 14.5365 -7.42658 4.8
      vertex 14.5365 -7.42658 0
      vertex 13.7865 -6.88168 4.8
    endloop
  endfacet
  facet normal 0.587785 0.809017 0
    outer loop
      vertex 13.7865 -6.88168 4.8
      vertex 14.5365 -7.42658 0
      vertex 13.7865 -6.88168 0
    endloop
  endfacet
  facet normal 0.951056 0.309017 0
    outer loop
      vertex 13.5 6 4.8
      vertex 13.7865 5.11832 4.8
      vertex 13.7865 5.11832 0
    endloop
  endfacet
  facet normal 0.951056 0.309017 0
    outer loop
      vertex 13.5 6 0
      vertex 13.5 6 4.8
      vertex 13.7865 5.11832 0
    endloop
  endfacet
  facet normal 0.951056 -0.309017 0
    outer loop
      vertex 13.7865 6.88168 0
      vertex 13.7865 6.88168 4.8
      vertex 13.5 6 4.8
    endloop
  endfacet
  facet normal 0.951056 -0.309017 0
    outer loop
      vertex 13.5 6 0
      vertex 13.7865 6.88168 0
      vertex 13.5 6 4.8
    endloop
  endfacet
  facet normal 0.587785 -0.809017 0
    outer loop
      vertex 14.5365 7.42658 0
      vertex 14.5365 7.42658 4.8
      vertex 13.7865 6.88168 4.8
    endloop
  endfacet
  facet normal 0.587785 -0.809017 0
    outer loop
      vertex 13.7865 6.88168 0
      vertex 14.5365 7.42658 0
      vertex 13.7865 6.88168 4.8
    endloop
  endfacet
  facet normal 0 -1 0
    outer loop
      vertex 15.4635 7.42658 0
      vertex 15.4635 7.42658 4.8
      vertex 14.5365 7.42658 4.8
    endloop
  endfacet
  facet normal 0 -1 0
    outer loop
      vertex 14.5365 7.42658 0
      vertex 15.4635 7.42658 0
      vertex 14.5365 7.42658 4.8
    endloop
  endfacet
  facet normal -0.587785 -0.809017 0
    outer loop
      vertex 16.2135 6.88168 0
      vertex 16.2135 6.88168 4.8
      vertex 15.4635 7.42658 4.8
    endloop
  endfacet
  facet normal -0.587785 -0.809017 0
    outer loop
      vertex 15.4635 7.42658 0
      vertex 16.2135 6.88168 0
      vertex 15.4635 7.42658 4.8
    endloop
  endfacet
  facet normal -0.951056 -0.309017 0
    outer loop
      vertex 16.5 6 4.8
      vertex 16.2135 6.88168 4.8
      vertex 16.5 6 0
    endloop
  endfacet
  facet normal -0.951056 -0.309017 0
    outer loop
      vertex 16.5 6 0
      vertex 16.2135 6.88168 4.8
      vertex 16.2135 6.88168 0
    endloop
  endfacet
  facet normal -0.951056 0.309017 0
    outer loop
      vertex 16.5 6 4.8
      vertex 16.5 6 0
      vertex 16.2135 5.11832 4.8
    endloop
  endfacet
  facet normal -0.951056 0.309017 0
    outer loop
      vertex 16.2135 5.11832 4.8
      vertex 16.5 6 0
      vertex 16.2135 5.11832 0
    endloop
  endfacet
  facet normal -0.587785 0.809017 0
    outer loop
      vertex 16.2135 5.11832 4.8
      vertex 16.2135 5.11832 0
      vertex 15.4635 4.57341 4.8
    endloop
  endfacet
  facet normal -0.587785 0.809017 0
    outer loop
      vertex 15.4635 4.57341 4.8
      vertex 16.2135 5.11832 0
      vertex 15.4635 4.57341 0
    endloop
  endfacet
  facet normal 0 1 0
    outer loop
      vertex 15.4635 4.57341 4.8
      vertex 15.4635 4.57341 0
      vertex 14.5365 4.57341 4.8
    endloop
  endfacet
  facet normal 0 1 0
    outer loop
      vertex 14.5365 4.57341 4.8
      vertex 15.4635 4.57341 0
      vertex 14.5365 4.57341 0
    endloop
  endfacet
  facet normal 0.587785 0.809017 0
    outer loop
      vertex 14.5365 4.57341 4.8
      vertex 14.5365 4.57341 0
      vertex 13.7865 5.11832 4.8
    endloop
  endfacet
  facet normal 0.587785 0.809017 0
    outer loop
      vertex 13.7865 5.11832 4.8
      vertex 14.5365 4.57341 0
      vertex 13.7865 5.11832 0
    endloop
  endfacet
endsolid OpenSCAD_Model
